<?xml version="1.0" encoding="UTF-8" standalone="no"?><!DOCTYPE svg PUBLIC "-//W3C//DTD SVG 1.1//EN" "http://www.w3.org/Graphics/SVG/1.1/DTD/svg11.dtd"><svg width="100%" height="100%" viewBox="0 0 330 450" version="1.1" xmlns="http://www.w3.org/2000/svg" xmlns:xlink="http://www.w3.org/1999/xlink" xml:space="preserve" xmlns:serif="http://www.serif.com/" style="fill-rule:evenodd;clip-rule:evenodd;stroke-linecap:round;stroke-linejoin:round;"><rect id="ee-background" x="0" y="0" width="330" height="450" style="fill:#00023d;"/><g><path d="M243.921,232.051l-55.394,-175.943l-45.376,0.214l-130.032,339.206l230.802,0l0,-163.477Z" style="fill:#fff;fill-rule:nonzero;"/><path d="M246.674,395.528l47.554,0l-47.554,-151.636l0,151.636Z" style="fill:#fff;fill-rule:nonzero;"/><rect x="19.51" y="376.373" width="45.863" height="2.03" style="fill:#00023d;"/><rect x="246.402" y="376.373" width="83.513" height="2.03" style="fill:#00023d;"/><rect x="74.363" y="99.373" width="159.368" height="7.741" style="fill:#00023d;"/><path d="M189.333,55.796c-1.487,-12.113 -11.89,-21.317 -24.094,-21.317c-12.204,0 -22.607,9.204 -24.093,21.317l48.187,0Z" style="fill:none;fill-rule:nonzero;stroke:#fff;stroke-width:0.82px;"/><rect x="74.363" y="99.546" width="7.807" height="295.695" style="fill:#00023d;"/><path d="M74.363,236.612l0,-137.066l159.598,0l0,112.126" style="fill:none;fill-rule:nonzero;stroke:#fff;stroke-width:0.82px;"/><path d="M233.961,200.431l0,194.809l-159.598,0l0,-158.628" style="fill:none;fill-rule:nonzero;stroke:#00023d;stroke-width:0.82px;"/><path d="M125.574,90.876l73.925,0" style="fill:none;fill-rule:nonzero;stroke:#00023d;stroke-width:0.82px;"/><path d="M199.853,90.876l43.64,0l0,144.848" style="fill:none;fill-rule:nonzero;stroke:#fff;stroke-width:0.82px;"/><path d="M64.822,260.163l0,-169.287l64.727,0" style="fill:none;fill-rule:nonzero;stroke:#fff;stroke-width:0.82px;"/><rect x="256.625" y="184.719" width="18.144" height="24.299" style="fill:none;stroke:#fff;stroke-width:0.82px;"/><path d="M271.482,191.778l-11.71,0c-0.306,0 -0.559,-0.253 -0.559,-0.559l0,-2.367c0,-0.306 0.253,-0.559 0.559,-0.559l11.71,0c0.306,0 0.559,0.253 0.559,0.559l0,2.367c0,0.306 -0.253,0.559 -0.559,0.559" style="fill:#fff;fill-rule:nonzero;"/><path d="M261.021,196.519l-0.534,0c-0.671,-0.053 -1.195,-0.621 -1.195,-1.294c0,-0.674 0.524,-1.241 1.195,-1.294l0.534,0c0.671,0.053 1.195,0.62 1.195,1.294c0,0.673 -0.524,1.241 -1.195,1.294" style="fill:#fff;fill-rule:nonzero;"/><path d="M261.021,200.677l-0.534,0c-0.671,-0.053 -1.195,-0.621 -1.195,-1.294c0,-0.674 0.524,-1.241 1.195,-1.294l0.534,0c0.671,0.053 1.195,0.62 1.195,1.294c0,0.673 -0.524,1.241 -1.195,1.294" style="fill:#fff;fill-rule:nonzero;"/><path d="M261.021,204.827l-0.534,0c-0.671,-0.054 -1.195,-0.621 -1.195,-1.294c0,-0.674 0.524,-1.241 1.195,-1.295l0.534,0c0.671,0.054 1.195,0.621 1.195,1.295c0,0.673 -0.524,1.24 -1.195,1.294" style="fill:#fff;fill-rule:nonzero;"/><path d="M265.952,196.519l-0.535,0c-0.034,0.003 -0.068,0.004 -0.103,0.004c-0.712,0 -1.298,-0.586 -1.298,-1.298c0,-0.712 0.586,-1.298 1.298,-1.298c0.035,0 0.069,0.001 0.103,0.004l0.535,0c0.671,0.053 1.195,0.62 1.195,1.294c0,0.673 -0.524,1.241 -1.195,1.294" style="fill:#fff;fill-rule:nonzero;"/><path d="M265.952,200.677l-0.535,0c-0.034,0.003 -0.068,0.004 -0.103,0.004c-0.712,0 -1.298,-0.586 -1.298,-1.298c0,-0.712 0.586,-1.298 1.298,-1.298c0.035,0 0.069,0.001 0.103,0.004l0.535,0c0.671,0.053 1.195,0.62 1.195,1.294c0,0.673 -0.524,1.241 -1.195,1.294" style="fill:#fff;fill-rule:nonzero;"/><path d="M265.952,204.827l-0.535,0c-0.034,0.003 -0.068,0.004 -0.103,0.004c-0.712,0 -1.298,-0.586 -1.298,-1.298c0,-0.713 0.586,-1.299 1.298,-1.299c0.035,0 0.069,0.002 0.103,0.004l0.535,0c0.671,0.054 1.195,0.621 1.195,1.295c0,0.673 -0.524,1.24 -1.195,1.294" style="fill:#fff;fill-rule:nonzero;"/><path d="M270.792,196.519l-0.535,0c-0.671,-0.053 -1.195,-0.621 -1.195,-1.294c0,-0.674 0.524,-1.241 1.195,-1.294l0.535,0c0.671,0.053 1.195,0.62 1.195,1.294c0,0.673 -0.524,1.241 -1.195,1.294" style="fill:#fff;fill-rule:nonzero;"/><path d="M270.792,200.677l-0.535,0c-0.671,-0.053 -1.195,-0.621 -1.195,-1.294c0,-0.674 0.524,-1.241 1.195,-1.294l0.535,0c0.671,0.053 1.195,0.62 1.195,1.294c0,0.673 -0.524,1.241 -1.195,1.294" style="fill:#fff;fill-rule:nonzero;"/><path d="M270.792,204.827l-0.535,0c-0.671,-0.054 -1.195,-0.621 -1.195,-1.294c0,-0.674 0.524,-1.241 1.195,-1.295l0.535,0c0.671,0.054 1.195,0.621 1.195,1.295c0,0.673 -0.524,1.24 -1.195,1.294" style="fill:#fff;fill-rule:nonzero;"/><path d="M96.846,265.701l-3.139,0c-2.618,-0.004 -4.77,-2.157 -4.775,-4.774l0,-33.806c0.005,-2.618 2.157,-4.77 4.775,-4.775l3.139,0c1.05,0 1.914,0.865 1.914,1.915c0,1.05 -0.864,1.915 -1.914,1.915l-3.139,0c-0.52,0 -0.949,0.425 -0.954,0.945l0,33.806c0.005,0.52 0.434,0.945 0.954,0.945l3.139,0c1.05,0 1.914,0.864 1.914,1.915c0,1.05 -0.864,1.914 -1.914,1.914" style="fill:#00023d;fill-rule:nonzero;"/><path d="M94.874,222.116l0,-1.972c0,-0.451 0.37,-0.822 0.821,-0.822l5.153,0c0.45,0 0.821,0.371 0.821,0.822l0,47.439c0,0.451 -0.371,0.822 -0.821,0.822l-5.153,0c-0.451,0 -0.821,-0.371 -0.821,-0.822l0,-1.849" style="fill:#00023d;fill-rule:nonzero;"/><path d="M96.846,265.701l-3.139,0c-2.618,-0.004 -4.77,-2.157 -4.775,-4.774l0,-33.806c0.005,-2.618 2.157,-4.77 4.775,-4.775l3.139,0c1.05,0 1.914,0.865 1.914,1.915c0,1.05 -0.864,1.915 -1.914,1.915l-3.139,0c-0.52,0 -0.949,0.425 -0.954,0.945l0,33.806c0.005,0.52 0.434,0.945 0.954,0.945l3.139,0c1.05,0 1.914,0.864 1.914,1.915c0,1.05 -0.864,1.914 -1.914,1.914Z" style="fill:none;fill-rule:nonzero;stroke:#fff;stroke-width:0.82px;"/><path d="M94.874,222.116l0,-1.972c0,-0.451 0.37,-0.822 0.821,-0.822l5.153,0c0.45,0 0.821,0.371 0.821,0.822l0,47.439c0,0.451 -0.371,0.822 -0.821,0.822l-5.153,0c-0.451,0 -0.821,-0.371 -0.821,-0.822l0,-1.849" style="fill:none;fill-rule:nonzero;stroke:#fff;stroke-width:0.82px;"/><path d="M94.874,261.395l0,-35.203" style="fill:none;fill-rule:nonzero;stroke:#fff;stroke-width:0.82px;"/><path d="M305.905,284.708l-0.124,0c-0.646,-0.047 -1.152,-0.593 -1.15,-1.241c-0.002,-0.122 0.015,-0.244 0.049,-0.361c0.23,-1.323 1.939,-13.814 4.627,-33.691c0.039,-0.301 0.059,-0.604 0.059,-0.907c0,-3.777 -3.108,-6.886 -6.886,-6.886c-2.663,0 -5.097,1.545 -6.231,3.955l-2.054,4.38c-0.203,0.433 -0.64,0.711 -1.118,0.711c-0.676,0 -1.233,-0.556 -1.233,-1.233c0,-0.18 0.039,-0.358 0.116,-0.522l2.054,-4.38c1.539,-3.274 4.845,-5.373 8.463,-5.373c5.13,0 9.352,4.221 9.352,9.351c0,0.412 -0.028,0.824 -0.082,1.232c-0.822,6.122 -1.972,14.594 -2.925,21.53c-0.477,3.476 -0.904,6.574 -1.216,8.784c-0.157,1.118 -0.288,2.013 -0.378,2.63c-0.189,1.084 -0.288,2.021 -1.323,2.021Z" style="fill:none;fill-rule:nonzero;stroke:#fff;stroke-width:0.82px;"/><path d="M308.74,318.63l10.107,-47.538l-6.188,3.509l-2.679,-4.947l-5.152,4.331l-1.857,-5.366l-3.912,5.571l-3.508,-4.331l-0.666,48.771l13.855,0Z" style="fill:#fff;fill-rule:nonzero;"/><path d="M303.283,241.674c3.448,0.404 6.077,3.359 6.077,6.831c0,0.307 -0.021,0.613 -0.062,0.918c-0.673,5.004 -1.29,9.54 -1.832,13.55l2.465,0c0.641,-4.692 1.274,-9.409 1.791,-13.222c0.055,-0.408 0.082,-0.82 0.082,-1.232c0,-5.13 -4.221,-9.351 -9.351,-9.351c-3.618,0 -6.925,2.099 -8.464,5.374l-2.054,4.379c-0.076,0.164 -0.116,0.342 -0.116,0.522c0,0.677 0.557,1.234 1.234,1.234c0.478,0 0.915,-0.279 1.117,-0.712l2.054,-4.38c1.257,-2.678 4.104,-4.263 7.043,-3.92" style="fill:#fff;fill-rule:nonzero;"/><rect x="281.4" y="318.515" width="30.396" height="76.726" style="fill:#00023d;"/><rect x="281.4" y="318.515" width="30.396" height="76.726" style="fill:none;stroke:#fff;stroke-width:0.82px;"/><path d="M293.291,322.623l18.341,0" style="fill:none;fill-rule:nonzero;stroke:#fff;stroke-width:0.82px;"/><path d="M293.291,391.255l18.341,0" style="fill:none;fill-rule:nonzero;stroke:#fff;stroke-width:0.82px;"/><path d="M287.309,322.623l-2.063,0" style="fill:none;fill-rule:nonzero;stroke:#fff;stroke-width:0.82px;"/><path d="M287.309,391.255l-2.063,0" style="fill:none;fill-rule:nonzero;stroke:#fff;stroke-width:0.82px;"/><rect x="0" y="395.84" width="330" height="5.317" style="fill:none;stroke:#fff;stroke-width:0.65px;"/><rect x="0" y="424.766" width="330" height="5.317" style="fill:none;stroke:#fff;stroke-width:0.65px;"/><path d="M330,400.943l-330,-3.755l0,-1.561l330,0l0,5.316Z" style="fill:#fff;fill-rule:nonzero;"/><path d="M330,429.812l-330,-3.182l0,-2.078l330,-0.057l0,5.317Z" style="fill:#fff;fill-rule:nonzero;"/><path d="M159.232,56.528c0.264,2.381 2.3,4.204 4.696,4.204c2.397,0 4.433,-1.823 4.697,-4.204" style="fill:#00023d;fill-rule:nonzero;"/><path d="M168.165,34.521l0,-7.806l-5.851,0l0,7.806" style="fill:none;fill-rule:nonzero;stroke:#fff;stroke-width:0.82px;"/><rect x="164.302" y="0" width="2.145" height="26.608" style="fill:none;stroke:#fff;stroke-width:0.82px;"/><path d="M243.493,235.552l0,159.688l-178.671,0l0,-133.688" style="fill:none;fill-rule:nonzero;stroke:#00023d;stroke-width:0.82px;"/><path d="M226.245,387.672l-138.003,0" style="fill:none;fill-rule:nonzero;stroke:#00023d;stroke-width:0.82px;"/><path d="M226.245,113.071l-138.003,0" style="fill:none;fill-rule:nonzero;stroke:#00023d;stroke-width:0.82px;"/></g><g><path d="M166.493,178.071c0,1.127 -0.916,2.043 -2.043,2.043c-1.127,0 -2.043,-0.916 -2.043,-2.043c0,-1.127 0.916,-2.043 2.043,-2.043c1.127,0 2.043,0.916 2.043,2.043" style="fill:#00023d;fill-rule:nonzero;"/><path d="M164.45,174.408c-2.043,0 -3.663,1.62 -3.663,3.663c0,2.043 1.62,3.663 3.663,3.663c2.043,0 3.663,-1.62 3.663,-3.663c0,-2.043 -1.62,-3.663 -3.663,-3.663Zm0,5.706c-1.127,0 -2.043,-0.916 -2.043,-2.043c0,-1.127 0.916,-2.043 2.043,-2.043c1.127,0 2.043,0.916 2.043,2.043c0,1.127 -0.916,2.043 -2.043,2.043Z" style="fill:none;fill-rule:nonzero;stroke:#00023d;stroke-width:0.7px;"/><path d="M168.747,178.071c0,2.357 -1.94,4.297 -4.297,4.297c-2.357,0 -4.297,-1.94 -4.297,-4.297c0,-2.357 1.94,-4.297 4.297,-4.297c2.357,0 4.297,1.94 4.297,4.297Z" style="fill:none;fill-rule:nonzero;stroke:#fff;stroke-width:0.4px;"/><path d="M166.422,178.001c0,1.056 -0.845,1.901 -1.902,1.901c-1.056,0 -1.901,-0.845 -1.901,-1.901c0,-1.057 0.845,-1.902 1.901,-1.902c1.057,0 1.902,0.845 1.902,1.902" style="fill:#00023d;fill-rule:nonzero;"/><path d="M166.211,178.071c0,0 -0.775,0.916 -1.691,0.916c-0.986,0 -1.69,-0.916 -1.69,-0.916c0,0 0.775,-0.916 1.69,-0.916c0.916,0 1.691,0.916 1.691,0.916" style="fill:#fff;fill-rule:nonzero;"/><path d="M165.084,178.141c0,0.423 -0.352,0.775 -0.775,0.775c-0.422,0 -0.775,-0.352 -0.775,-0.775c0,-0.422 0.353,-0.774 0.775,-0.774c0.423,0 0.775,0.352 0.775,0.774" style="fill:#00023d;fill-rule:nonzero;"/><path d="M165.014,177.93c0,0.141 -0.141,0.282 -0.282,0.282c-0.141,0 -0.282,-0.141 -0.282,-0.282c0,-0.141 0.141,-0.282 0.282,-0.282c0.141,0 0.282,0.141 0.282,0.282" style="fill:#fff;fill-rule:nonzero;"/><path d="M164.52,180.888c-1.549,0 -2.887,-1.267 -2.887,-2.887c0,-1.55 1.267,-2.888 2.887,-2.888c1.55,0 2.888,1.267 2.888,2.888c-0.07,1.62 -1.338,2.887 -2.888,2.887m0,-5.635c-1.549,0 -2.747,1.268 -2.747,2.748c0,1.549 1.268,2.747 2.747,2.747c1.55,0 2.748,-1.268 2.748,-2.747c0,-1.55 -1.268,-2.748 -2.748,-2.748" style="fill:#fff;fill-rule:nonzero;"/></g></svg>