<svg id="Layer_1" data-name="Layer 1" xmlns="http://www.w3.org/2000/svg" xmlns:xlink="http://www.w3.org/1999/xlink" viewBox="0 0 1100 1391.27"><defs><style>.cls-1,.cls-12,.cls-2,.cls-6,.cls-9{fill:none;}.cls-2,.cls-9{stroke:#fff;}.cls-2,.cls-6{stroke-linecap:round;stroke-linejoin:round;}.cls-3{fill:#fff;}.cls-4{fill:#00023d;}.cls-5{clip-path:url(#clip-path);}.cls-12,.cls-6{stroke:#00023d;}.cls-7{clip-path:url(#clip-path-2);}.cls-8{clip-path:url(#clip-path-3);}.cls-12,.cls-9{stroke-miterlimit:10;}.cls-10{clip-path:url(#clip-path-4);}.cls-11{clip-path:url(#clip-path-6);}.cls-13{fill:#ff486f;}</style><clipPath id="clip-path"><rect class="cls-1" x="0.82" y="366.27" width="1099.18" height="1080"/></clipPath><clipPath id="clip-path-2"><polygon class="cls-1" points="643.57 389.68 643.57 449.52 561.86 449.52 561.86 453.3 643.57 453.3 643.57 512.95 561.86 512.95 561.86 516.73 643.57 516.73 643.57 576.38 561.86 576.38 561.86 580.15 643.57 580.15 643.57 639.8 561.86 639.8 561.86 643.58 643.57 643.58 643.57 704.99 647.27 704.99 647.27 643.58 728.98 643.58 728.98 639.8 647.27 639.8 647.27 580.15 728.98 580.15 728.98 576.38 647.27 576.38 647.27 516.73 728.98 516.73 728.98 512.95 647.27 512.95 647.27 453.3 728.98 453.3 728.98 449.52 647.27 449.52 647.27 389.68 643.57 389.68"/></clipPath><clipPath id="clip-path-3"><rect class="cls-1" x="-1095" y="366.27" width="2195" height="1080"/></clipPath><clipPath id="clip-path-4"><path class="cls-1" d="M905.5,389.68v59.85H825.68a1.89,1.89,0,1,0,0,3.78H905.5V513H825.68a1.89,1.89,0,1,0,0,3.78H905.5v59.65H825.68a1.89,1.89,0,1,0,0,3.78H905.5V639.8H825.68a1.89,1.89,0,1,0,0,3.78H905.5V705h3.7V643.58h81.7V639.8H909.2V580.15h81.7v-3.78H909.2V516.73h81.7V513H909.2V453.3h81.7v-3.78H909.2V389.68Z"/></clipPath><clipPath id="clip-path-6"><path class="cls-1" d="M1085.72,643.58H1100v-3.78h-14.28Zm0-63.43H1100v-3.78h-14.28Zm0-63.43H1100V513h-14.28Zm0-63.43H1100v-3.78h-14.28Z"/></clipPath></defs><title>1Artboard 1 copy 2</title><rect class="cls-2" x="13.28" y="783.44" width="26.74" height="39.02"/><rect class="cls-2" x="11.1" y="822.48" width="31.7" height="3.13"/><line class="cls-2" x1="16.16" y1="794.18" x2="39.75" y2="794.18"/><line class="cls-2" x1="26.76" y1="822.25" x2="26.76" y2="785.03"/><polygon class="cls-3" points="43.09 827.35 43.09 825.62 11.1 825.62 43.09 827.35"/><rect class="cls-2" x="49.24" y="783.44" width="26.74" height="39.02"/><rect class="cls-2" x="47.06" y="822.48" width="31.7" height="3.13"/><line class="cls-2" x1="52.11" y1="794.18" x2="75.71" y2="794.18"/><line class="cls-2" x1="62.72" y1="822.25" x2="62.72" y2="785.03"/><polygon class="cls-3" points="79.05 827.35 79.05 825.62 47.06 825.62 79.05 827.35"/><rect class="cls-2" x="117.92" y="783.44" width="26.74" height="39.02"/><rect class="cls-2" x="115.74" y="822.48" width="31.7" height="3.13"/><line class="cls-2" x1="120.79" y1="794.18" x2="144.38" y2="794.18"/><line class="cls-2" x1="131.4" y1="822.25" x2="131.4" y2="785.03"/><polygon class="cls-3" points="147.72 827.35 147.72 825.62 115.74 825.62 147.72 827.35"/><rect class="cls-2" x="153.87" y="783.44" width="26.74" height="39.02"/><rect class="cls-2" x="151.69" y="822.48" width="31.7" height="3.13"/><line class="cls-2" x1="156.74" y1="794.18" x2="180.34" y2="794.18"/><line class="cls-2" x1="167.35" y1="822.25" x2="167.35" y2="785.03"/><polygon class="cls-3" points="183.68 827.35 183.68 825.62 151.69 825.62 183.68 827.35"/><rect class="cls-2" x="219.64" y="783.44" width="26.74" height="39.02"/><rect class="cls-2" x="217.46" y="822.48" width="31.7" height="3.13"/><line class="cls-2" x1="222.51" y1="794.18" x2="246.11" y2="794.18"/><line class="cls-2" x1="233.12" y1="822.25" x2="233.12" y2="785.03"/><polygon class="cls-3" points="249.45 827.35 249.45 825.62 217.46 825.62 249.45 827.35"/><rect class="cls-2" x="13.28" y="878.61" width="26.74" height="39.02"/><rect class="cls-2" x="11.1" y="917.65" width="31.7" height="3.14"/><line class="cls-2" x1="16.16" y1="889.35" x2="39.75" y2="889.35"/><line class="cls-2" x1="26.76" y1="917.43" x2="26.76" y2="880.2"/><polygon class="cls-3" points="43.09 922.53 43.09 920.79 11.1 920.79 43.09 922.53"/><rect class="cls-2" x="49.24" y="878.61" width="26.74" height="39.02"/><rect class="cls-2" x="47.06" y="917.65" width="31.7" height="3.14"/><line class="cls-2" x1="52.11" y1="889.35" x2="75.71" y2="889.35"/><line class="cls-2" x1="62.72" y1="917.43" x2="62.72" y2="880.2"/><polygon class="cls-3" points="79.05 922.53 79.05 920.79 47.06 920.79 79.05 922.53"/><rect class="cls-2" x="117.92" y="878.61" width="26.74" height="39.02"/><rect class="cls-2" x="115.74" y="917.65" width="31.7" height="3.14"/><line class="cls-2" x1="120.79" y1="889.35" x2="144.38" y2="889.35"/><line class="cls-2" x1="131.4" y1="917.43" x2="131.4" y2="880.2"/><polygon class="cls-3" points="147.72 922.53 147.72 920.79 115.74 920.79 147.72 922.53"/><rect class="cls-2" x="153.87" y="878.61" width="26.74" height="39.02"/><rect class="cls-2" x="151.69" y="917.65" width="31.7" height="3.14"/><line class="cls-2" x1="156.74" y1="889.35" x2="180.34" y2="889.35"/><line class="cls-2" x1="167.35" y1="917.43" x2="167.35" y2="880.2"/><polygon class="cls-3" points="183.68 922.53 183.68 920.79 151.69 920.79 183.68 922.53"/><rect class="cls-2" x="219.64" y="878.61" width="26.74" height="39.02"/><rect class="cls-2" x="217.46" y="917.65" width="31.7" height="3.14"/><line class="cls-2" x1="222.51" y1="889.35" x2="246.11" y2="889.35"/><line class="cls-2" x1="233.12" y1="917.43" x2="233.12" y2="880.2"/><polygon class="cls-3" points="249.45 922.53 249.45 920.79 217.46 920.79 249.45 922.53"/><rect class="cls-2" x="13.28" y="968.65" width="26.74" height="39.02"/><rect class="cls-2" x="11.1" y="1007.69" width="31.7" height="3.13"/><line class="cls-2" x1="16.16" y1="979.38" x2="39.75" y2="979.38"/><line class="cls-2" x1="26.76" y1="1007.46" x2="26.76" y2="970.24"/><polygon class="cls-3" points="43.09 1012.56 43.09 1010.82 11.1 1010.82 43.09 1012.56"/><rect class="cls-2" x="49.24" y="968.65" width="26.74" height="39.02"/><rect class="cls-2" x="47.06" y="1007.69" width="31.7" height="3.13"/><line class="cls-2" x1="52.11" y1="979.38" x2="75.71" y2="979.38"/><line class="cls-2" x1="62.72" y1="1007.46" x2="62.72" y2="970.24"/><polygon class="cls-3" points="79.05 1012.56 79.05 1010.82 47.06 1010.82 79.05 1012.56"/><rect class="cls-2" x="117.92" y="968.65" width="26.74" height="39.02"/><rect class="cls-2" x="115.74" y="1007.69" width="31.7" height="3.13"/><line class="cls-2" x1="120.79" y1="979.38" x2="144.38" y2="979.38"/><line class="cls-2" x1="131.4" y1="1007.46" x2="131.4" y2="970.24"/><polygon class="cls-3" points="147.72 1012.56 147.72 1010.82 115.74 1010.82 147.72 1012.56"/><rect class="cls-2" x="153.87" y="968.65" width="26.74" height="39.02"/><rect class="cls-2" x="151.69" y="1007.69" width="31.7" height="3.13"/><line class="cls-2" x1="156.74" y1="979.38" x2="180.34" y2="979.38"/><line class="cls-2" x1="167.35" y1="1007.46" x2="167.35" y2="970.24"/><polygon class="cls-3" points="183.68 1012.56 183.68 1010.82 151.69 1010.82 183.68 1012.56"/><rect class="cls-2" x="219.64" y="968.65" width="26.74" height="39.02"/><rect class="cls-2" x="217.46" y="1007.69" width="31.7" height="3.13"/><line class="cls-2" x1="222.51" y1="979.38" x2="246.11" y2="979.38"/><line class="cls-2" x1="233.12" y1="1007.46" x2="233.12" y2="970.24"/><polygon class="cls-3" points="249.45 1012.56 249.45 1010.82 217.46 1010.82 249.45 1012.56"/><rect class="cls-4" x="201.45" y="778.03" width="19.45" height="237.52"/><rect class="cls-4" x="6.97" y="778.03" width="45.93" height="237.52"/><g class="cls-5"><path class="cls-4" d="M561.42,705.27h9.43s25.51-97.18,25.51-204.71V389.61H561.42Z"/><polygon class="cls-3" points="993.19 1080.49 925.78 866.38 870.56 866.64 712.32 1279.43 993.19 1279.43 993.19 1080.49"/><polygon class="cls-3" points="996.54 1279.43 1054.41 1279.43 996.54 1094.9 996.54 1279.43"/><rect class="cls-4" x="674.28" y="1256.12" width="101.63" height="2.47"/><rect class="cls-4" x="996.21" y="1256.12" width="101.63" height="2.47"/><rect class="cls-4" x="786.85" y="919.24" width="9.5" height="359.84"/><rect class="cls-4" x="786.85" y="919.03" width="193.94" height="9.42"/><path class="cls-3" d="M465.42,509.66s-21.94-26.41-54.62-31.79-62.68,37.61-93.12,22.39-35.37-52.38-65.81-77.9-71.63,34-130.28,21.94-55.52-50.14-84.17-63.12-35.37-1.79-35.37-1.79l-.45,76.08,267.72.48v17h-6.27v192.6h25.07l44.77-35V555.78l-6.27-.45V517.27H466.77Z"/><path class="cls-3" d="M324.4,440.72c1.41.08,81,0,99.83,0s13.43-23.28-1.34-28.2-11.19,13-37.16,18.8-20.59-3.13-33.58-5.37c-22.06-3.8-51.48,13.43-27.76,14.77"/><path class="cls-3" d="M729.61,705.27h-9.43s-25.51-97.18-25.51-204.71V389.61h34.94Z"/><rect class="cls-2" x="527.3" y="705.67" width="225.19" height="17.94"/><polygon class="cls-3" points="752.49 723.61 527.3 723.61 752.49 734.57 752.49 723.61"/><rect class="cls-2" x="372.13" y="762.01" width="983.5" height="35.88"/><path class="cls-2" d="M926.76,866a29.54,29.54,0,0,0-58.64,0Z"/><polyline class="cls-2" points="786.85 1086.04 786.85 919.24 981.07 919.24 981.07 1055.69"/><polyline class="cls-6" points="981.07 1042.01 981.07 1279.08 786.85 1279.08 786.85 1086.04"/><polyline class="cls-2" points="941.86 908.69 992.67 908.69 992.67 1084.96"/><line class="cls-6" x1="849.17" y1="908.69" x2="941.86" y2="908.69"/><polyline class="cls-2" points="775.24 1114.7 775.24 908.69 849.17 908.69"/><rect class="cls-4" x="553.47" y="389.08" width="7.78" height="316.42"/><rect class="cls-2" x="553.47" y="389.08" width="175.98" height="316.42"/><rect class="cls-2" x="543.95" y="379.81" width="194.55" height="325.7"/><rect class="cls-2" x="1008.65" y="1022.89" width="22.08" height="29.57"/><path class="cls-3" d="M1026.73,1031.48h-14.25a.68.68,0,0,1-.68-.68v-2.88a.68.68,0,0,1,.68-.68h14.25a.68.68,0,0,1,.68.68v2.88a.68.68,0,0,1-.68.68"/><path class="cls-3" d="M1014,1037.25h-.65a1.58,1.58,0,0,1,0-3.15h.65a1.58,1.58,0,0,1,0,3.15"/><path class="cls-3" d="M1014,1042.31h-.65a1.58,1.58,0,0,1,0-3.15h.65a1.58,1.58,0,0,1,0,3.15"/><path class="cls-3" d="M1014,1047.36h-.65a1.58,1.58,0,0,1,0-3.15h.65a1.58,1.58,0,0,1,0,3.15"/><path class="cls-3" d="M1020,1037.25h-.65a1.58,1.58,0,1,1,0-3.15h.65a1.58,1.58,0,0,1,0,3.15"/><path class="cls-3" d="M1020,1042.31h-.65a1.58,1.58,0,1,1,0-3.15h.65a1.58,1.58,0,0,1,0,3.15"/><path class="cls-3" d="M1020,1047.36h-.65a1.58,1.58,0,1,1,0-3.15h.65a1.58,1.58,0,0,1,0,3.15"/><path class="cls-3" d="M1025.89,1037.25h-.65a1.58,1.58,0,0,1,0-3.15h.65a1.58,1.58,0,0,1,0,3.15"/><path class="cls-3" d="M1025.89,1042.31h-.65a1.58,1.58,0,0,1,0-3.15h.65a1.58,1.58,0,0,1,0,3.15"/><path class="cls-3" d="M1025.89,1047.36h-.65a1.58,1.58,0,0,1,0-3.15h.65a1.58,1.58,0,0,1,0,3.15"/><path class="cls-4" d="M814.21,1121.44h-3.82a5.82,5.82,0,0,1-5.81-5.81v-41.14a5.82,5.82,0,0,1,5.81-5.81h3.82a2.33,2.33,0,0,1,0,4.66h-3.82a1.16,1.16,0,0,0-1.16,1.15v41.14a1.16,1.16,0,0,0,1.16,1.15h3.82a2.33,2.33,0,0,1,0,4.66"/><path class="cls-4" d="M811.81,1068.4V1066a1,1,0,0,1,1-1h6.27a1,1,0,0,1,1,1v57.73a1,1,0,0,1-1,1h-6.27a1,1,0,0,1-1-1v-2.25"/><path class="cls-2" d="M814.21,1121.44h-3.82a5.82,5.82,0,0,1-5.81-5.81v-41.14a5.82,5.82,0,0,1,5.81-5.81h3.82a2.33,2.33,0,0,1,0,4.66h-3.82a1.16,1.16,0,0,0-1.16,1.15v41.14a1.16,1.16,0,0,0,1.16,1.15h3.82a2.33,2.33,0,0,1,0,4.66Z"/><path class="cls-2" d="M811.81,1068.4V1066a1,1,0,0,1,1-1h6.27a1,1,0,0,1,1,1v57.73a1,1,0,0,1-1,1h-6.27a1,1,0,0,1-1-1v-2.25"/><line class="cls-2" x1="811.81" y1="1116.2" x2="811.81" y2="1073.36"/><path class="cls-2" d="M1068.62,1144.57h-.15a1.51,1.51,0,0,1-1.4-1.51,1.5,1.5,0,0,1,.06-.44c.28-1.61,2.36-16.81,5.63-41a8.38,8.38,0,0,0-15.89-4.67l-2.5,5.33a1.5,1.5,0,1,1-2.72-1.27l2.5-5.33a11.38,11.38,0,0,1,21.58,6.34c-1,7.45-2.4,17.76-3.56,26.2-.58,4.23-1.1,8-1.48,10.69-.19,1.36-.35,2.45-.46,3.2C1070,1143.43,1069.88,1144.57,1068.62,1144.57Zm1.45-1.52h0Z"/><polygon class="cls-3" points="1072.07 1185.85 1084.37 1128 1076.84 1132.27 1073.58 1126.25 1067.31 1131.52 1065.05 1124.99 1060.29 1131.77 1056.02 1126.5 1055.21 1185.85 1072.07 1185.85"/><path class="cls-3" d="M1065.43,1092.2a8.37,8.37,0,0,1,7.32,9.43c-.82,6.09-1.57,11.61-2.23,16.49h3c.78-5.71,1.55-11.45,2.18-16.09a11.38,11.38,0,0,0-21.58-6.34l-2.5,5.33a1.5,1.5,0,1,0,2.72,1.27l2.5-5.33a8.39,8.39,0,0,1,8.57-4.77"/><rect class="cls-4" x="1038.8" y="1185.71" width="36.99" height="93.37"/><rect class="cls-2" x="1038.8" y="1185.71" width="36.99" height="93.37"/><line class="cls-2" x1="1053.27" y1="1190.71" x2="1075.59" y2="1190.71"/><line class="cls-2" x1="1053.27" y1="1274.23" x2="1075.59" y2="1274.23"/><line class="cls-2" x1="1045.99" y1="1190.71" x2="1043.48" y2="1190.71"/><line class="cls-2" x1="1045.99" y1="1274.23" x2="1043.48" y2="1274.23"/><rect class="cls-2" x="503.75" y="1279.81" width="766.56" height="6.47"/><rect class="cls-2" x="430.85" y="1315.01" width="786.56" height="6.47"/><rect class="cls-2" x="357.95" y="1350.2" width="786.56" height="6.47"/><polygon class="cls-3" points="1103.31 1286.02 524.71 1279.55 1103.31 1279.55 1103.31 1286.02"/><polygon class="cls-3" points="1101.73 1321.22 430.85 1314.75 1101.73 1314.75 1101.73 1321.22"/><polygon class="cls-3" points="1101.83 1356.41 357.95 1349.94 1101.83 1349.94 1101.83 1356.41"/><path class="cls-4" d="M890.13,866.89a5.75,5.75,0,0,0,11.43,0"/><polyline class="cls-2" points="901 840.11 901 830.61 893.88 830.61 893.88 840.11"/><rect class="cls-2" x="896.3" y="798.1" width="2.61" height="32.38"/><polygon class="cls-3" points="728.98 453.3 728.98 449.52 647.27 449.52 647.27 389.68 643.57 389.68 643.57 449.52 561.86 449.52 561.86 453.3 643.57 453.3 643.57 512.95 561.86 512.95 561.86 516.73 643.57 516.73 643.57 576.38 561.86 576.38 561.86 580.15 643.57 580.15 643.57 639.8 561.86 639.8 561.86 643.58 643.57 643.58 643.57 704.99 647.27 704.99 647.27 643.58 728.98 643.58 728.98 639.8 647.27 639.8 647.27 580.15 728.98 580.15 728.98 576.38 647.27 576.38 647.27 516.73 728.98 516.73 728.98 512.95 647.27 512.95 647.27 453.3 728.98 453.3"/><line class="cls-2" x1="364.65" y1="1389.81" x2="364.65" y2="1356.62"/><line class="cls-2" x1="511.13" y1="1313.59" x2="511.13" y2="1286.26"/><line class="cls-2" x1="436.45" y1="1349.74" x2="436.45" y2="1322.41"/><path class="cls-2" d="M898,840.11h0Z"/><path class="cls-3" d="M396.22,759.91l1.54-1.14a.9.9,0,0,1,1.2.12l.8.87h0c.29-.61.85-1.8,1.42-3,.48-1,.88-1.78,1.18-2.35.55-1.05.81-1.54,1.44-1.54a.9.9,0,0,1,.59,1.57c-.33.5-1.5,2.86-2.65,5.29h.7a.9.9,0,0,1,0,1.8h-3.19a.9.9,0,0,1-.84-.59l-.24-.27-.89.66a.9.9,0,1,1-1.07-1.44"/><path class="cls-3" d="M402,759.91l1.54-1.14a.9.9,0,0,1,1.2.12l.8.87h0c.29-.61.85-1.8,1.42-3,.48-1,.88-1.78,1.18-2.35.56-1.05.81-1.54,1.44-1.54a.9.9,0,0,1,.59,1.57c-.33.5-1.5,2.86-2.65,5.29h.7a.9.9,0,1,1,0,1.8h-3.19a.89.89,0,0,1-.84-.59l-.24-.27-.89.66a.9.9,0,0,1-1.26-.18.9.9,0,0,1,.19-1.26"/><path class="cls-3" d="M397,750.26c0,2.52,2.79,4.56,6.24,4.56s6.24-2,6.24-4.56-2.79-4.56-6.24-4.56-6.24,2-6.24,4.56"/><path class="cls-3" d="M401.29,750.26c0,2.52,2.79,4.56,6.24,4.56s6.24-2,6.24-4.56-2.79-4.56-6.24-4.56-6.24,2-6.24,4.56"/><path class="cls-3" d="M387.22,729.75a50.76,50.76,0,0,1,9-11,7.13,7.13,0,1,1,10.38-6.35v15.16l12.78,12.78,13.94,1.55a2.33,2.33,0,0,1-.05,4.65l3.42,1.35a2.33,2.33,0,1,1-1.71,4.34l-3.62-1.42a2.33,2.33,0,0,1-3.17,3.42l-8.93-7.5A23.24,23.24,0,0,1,404,752.24c-12.58,0-21.2-15.06-16.74-22.49"/><polygon class="cls-3" points="393.95 714.69 388.41 712.51 393.76 710.63 393.95 714.69"/><path class="cls-4" d="M391.52,723.73a51.38,51.38,0,0,1,4.74-5,7.13,7.13,0,1,1,10.38-6.35v11.32Z"/><path class="cls-3" d="M396.26,712.44a.85.85,0,1,0,.85-.85.86.86,0,0,0-.85.85"/><path class="cls-4" d="M420.51,745.24c-8.32,3.47-17.26,1.05-19.95-5.4-1.43-3.43-.81-7.31,1.34-10.71a4.28,4.28,0,0,1,7-.29c4.38,5.75,11.55,9.28,19.78,10.13a19.47,19.47,0,0,1-8.19,6.27"/><path class="cls-2" d="M391.52,723.73a51.38,51.38,0,0,1,4.74-5,7.13,7.13,0,1,1,10.38-6.35v11.32Z"/><path class="cls-2" d="M420.51,745.24c-8.32,3.47-17.26,1.05-19.95-5.4-1.43-3.43-.81-7.31,1.34-10.71a4.28,4.28,0,0,1,7-.29c4.38,5.75,11.55,9.28,19.78,10.13A19.47,19.47,0,0,1,420.51,745.24Z"/><path class="cls-2" d="M394,1044.13H358.72V797.52a69,69,0,1,0-138.07,0v246.61H190.82V797.52a69,69,0,1,0-138.07,0v246.61H4.66"/><path class="cls-3" d="M190.88,809.93a69,69,0,0,0-138.07,0V797.52a69,69,0,0,1,138.07,0v12.41"/><path class="cls-3" d="M358.78,809.93a69,69,0,0,0-138.07,0V797.52a69,69,0,0,1,138.07,0v12.41"/><line class="cls-2" x1="0.66" y1="679.3" x2="465.17" y2="679.3"/><line class="cls-2" x1="0.66" y1="665.98" x2="465.17" y2="665.98"/><rect class="cls-2" x="185.76" y="1044.13" width="39.77" height="42.71"/><polyline class="cls-2" points="395.2 1086.84 351.46 1086.84 351.46 1044.13 395.2 1044.13"/><polyline class="cls-2" points="3.13 1044.13 56.88 1044.13 56.88 1086.84 3.13 1086.84"/><polyline class="cls-2" points="16.21 679.3 17.39 688.5 21.88 688.5 24 679.3"/><polyline class="cls-2" points="48.58 679.3 49.76 688.5 54.24 688.5 56.37 679.3"/><polyline class="cls-2" points="80.94 679.3 82.12 688.5 86.6 688.5 88.73 679.3"/><polyline class="cls-2" points="113.3 679.3 114.48 688.5 118.96 688.5 121.09 679.3"/><polyline class="cls-2" points="145.66 679.3 146.84 688.5 151.32 688.5 153.45 679.3"/><polyline class="cls-2" points="178.02 679.3 179.2 688.5 183.68 688.5 185.81 679.3"/><polyline class="cls-2" points="210.38 679.3 211.56 688.5 216.05 688.5 218.17 679.3"/><polyline class="cls-2" points="242.74 679.3 243.92 688.5 248.41 688.5 250.53 679.3"/><polyline class="cls-2" points="275.1 679.3 276.28 688.5 280.77 688.5 282.89 679.3"/><polyline class="cls-2" points="307.46 679.3 308.64 688.5 313.13 688.5 315.25 679.3"/><polyline class="cls-2" points="339.82 679.3 341 688.5 345.49 688.5 347.62 679.3"/><polyline class="cls-2" points="372.19 679.3 373.37 688.5 377.85 688.5 379.98 679.3"/><polyline class="cls-2" points="404.55 679.3 405.73 688.5 410.21 688.5 412.34 679.3"/><polyline class="cls-2" points="436.91 679.3 438.09 688.5 442.57 688.5 444.7 679.3"/><path class="cls-3" d="M467.54,667.2a2.38,2.38,0,0,1-1.28-.77,2.46,2.46,0,0,1-.43-.61,1.56,1.56,0,0,1-.16-.67H1.48v4.61H468v-2.55a1.74,1.74,0,0,1-.41,0"/><line class="cls-2" x1="1.67" y1="1087.13" x2="394.32" y2="1087.13"/><line class="cls-2" x1="1.67" y1="1166.58" x2="394.32" y2="1166.58"/><line class="cls-2" x1="1.67" y1="1176.27" x2="394.32" y2="1176.27"/><line class="cls-2" x1="419.88" y1="1166.58" x2="464.07" y2="1166.58"/><line class="cls-2" x1="419.88" y1="1176.27" x2="464.05" y2="1176.27"/><polyline class="cls-2" points="1.65 455.72 269.14 455.72 269.14 472.86 1.17 472.86"/><line class="cls-2" x1="263.12" y1="665.01" x2="263.12" y2="472.24"/><line class="cls-2" x1="263.08" y1="1023.12" x2="263.12" y2="739.87"/><polyline class="cls-2" points="220.86 1024.24 274.31 1024.24 274.31 1086.87"/><line class="cls-2" x1="190.59" y1="1023.07" x2="53.17" y2="1023.07"/><line class="cls-2" x1="288.34" y1="665.06" x2="464.62" y2="532.65"/><line class="cls-2" x1="304.07" y1="665.67" x2="464.62" y2="545.06"/><line class="cls-2" x1="333.03" y1="629.48" x2="333.03" y2="556.65"/><polyline class="cls-2" points="431.83 555.82 326.41 555.82 326.41 517.75 464.1 517.75"/><path class="cls-3" d="M422.49,608.38a20.9,20.9,0,1,0,20.89,20.9,20.89,20.89,0,0,0-20.89-20.9m-1.32,37.94a17.1,17.1,0,0,1,0-34.09Zm2.56-34.1a17.11,17.11,0,0,1,14.77,11H423.73Zm0,34.11v-20.5h15.51a17.1,17.1,0,0,1-15.51,20.5"/><polygon class="cls-3" points="329.91 1127.14 389.1 1127.14 394.1 1122.62 334.91 1122.62 329.91 1127.14"/><polygon class="cls-3" points="465.42 1122.62 453.81 1122.62 448.81 1127.14 465.42 1127.14 465.42 1122.62"/><polygon class="cls-3" points="222.39 1127.14 281.58 1127.14 286.58 1122.62 227.38 1122.62 222.39 1127.14"/><polygon class="cls-3" points="114.86 1127.14 174.06 1127.14 179.05 1122.62 119.86 1122.62 114.86 1127.14"/><polygon class="cls-3" points="7.34 1127.14 66.53 1127.14 71.53 1122.62 12.34 1122.62 7.34 1127.14"/><rect class="cls-3" x="372.13" y="762.35" width="983.5" height="17.97"/><polyline class="cls-6" points="992.67 1084.75 992.67 1279.08 775.24 1279.08 775.24 1116.39"/></g><g class="cls-7"><path class="cls-4" d="M499.77,705.27h9.43s25.51-97.18,25.51-204.71V389.61H499.77Z"/><path class="cls-4" d="M728,705.27h-9.43S693,608.08,693,500.56V389.61H728Z"/></g><g class="cls-8"><path class="cls-6" d="M724.48,697.75s-18.62-121.24-18.21-197.38"/><line class="cls-6" x1="717.86" y1="545.48" x2="717.86" y2="432.51"/><path class="cls-9" d="M568.48,675.41s13.24-67,15.31-122.07"/><line class="cls-9" x1="584.62" y1="479.69" x2="584.62" y2="421.34"/><path class="cls-9" d="M572.21,488.38s5.79,61.24-3.73,110.9"/><path class="cls-3" d="M991.54,705.27h-72.3s-25.51-97.18-25.51-204.71V389.61h97.81Z"/><rect class="cls-2" x="789.23" y="705.67" width="225.19" height="17.94"/><polygon class="cls-3" points="1014.42 723.61 789.23 723.61 1014.42 734.57 1014.42 723.61"/><rect class="cls-2" x="815.4" y="389.08" width="175.98" height="316.42"/><rect class="cls-2" x="805.89" y="379.81" width="194.55" height="325.7"/><path class="cls-3" d="M990.91,453.3v-3.78H909.2V389.68h-3.7v59.84H825.68a1.89,1.89,0,0,0,0,3.78H905.5V513H825.68a1.89,1.89,0,0,0,0,3.78H905.5v59.65H825.68a1.89,1.89,0,0,0,0,3.78H905.5V639.8H825.68a1.89,1.89,0,0,0,0,3.78H905.5V705h3.7V643.58h81.7V639.8H909.2V580.15h81.7v-3.78H909.2V516.73h81.7V513H909.2V453.3Z"/></g><g class="cls-10"><path class="cls-4" d="M989.88,705.27H919.37s-25.51-97.18-25.51-204.71V389.61h96Z"/></g><g class="cls-8"><path class="cls-6" d="M975.78,697.75s-18.62-121.24-18.21-197.38"/><line class="cls-6" x1="979.79" y1="545.48" x2="979.79" y2="432.51"/><path class="cls-3" d="M1085.29,705.27h9.43s25.51-97.18,25.51-204.71V389.61h-34.94Z"/><rect class="cls-2" x="1051.16" y="705.67" width="225.19" height="17.94"/><polygon class="cls-3" points="1276.36 723.61 1051.16 723.61 1276.36 734.57 1276.36 723.61"/><rect class="cls-4" x="1077.33" y="389.08" width="7.78" height="316.42"/><rect class="cls-2" x="1077.33" y="389.08" width="175.98" height="316.42"/><rect class="cls-2" x="1067.82" y="379.81" width="194.55" height="325.7"/><polygon class="cls-3" points="1252.84 453.3 1252.84 449.52 1171.13 449.52 1171.13 389.68 1167.43 389.68 1167.43 449.52 1085.72 449.52 1085.72 453.3 1167.43 453.3 1167.43 512.95 1085.72 512.95 1085.72 516.73 1167.43 516.73 1167.43 576.38 1085.72 576.38 1085.72 580.15 1167.43 580.15 1167.43 639.8 1085.72 639.8 1085.72 643.58 1167.43 643.58 1167.43 704.99 1171.13 704.99 1171.13 643.58 1252.84 643.58 1252.84 639.8 1171.13 639.8 1171.13 580.15 1252.84 580.15 1252.84 576.38 1171.13 576.38 1171.13 516.73 1252.84 516.73 1252.84 512.95 1171.13 512.95 1171.13 453.3 1252.84 453.3"/></g><g class="cls-11"><path class="cls-4" d="M1085.29,705.27h9.43s25.51-97.18,25.51-204.71V389.61h-34.94Z"/></g><path class="cls-6" d="M1092.34,675.41s13.24-67,15.31-122.07"/><path class="cls-6" d="M1096.07,488.38s5.79,61.24-3.73,110.9"/><line class="cls-6" x1="971.68" y1="1269.87" x2="803.74" y2="1269.87"/><line class="cls-6" x1="971.68" y1="935.7" x2="803.74" y2="935.7"/><path class="cls-6" d="M933.49,415.94s-3.94,99.82,3.44,132.77"/><line class="cls-6" x1="952.17" y1="671.64" x2="953.65" y2="682.95"/><rect class="cls-3" x="833.53" y="682.78" width="19.91" height="22.75"/><path class="cls-2" d="M853.69,702.55a11.37,11.37,0,0,1-1.92-.17l.61-3.6c3.91.66,6.41-1.72,7.43-7.07a2.93,2.93,0,0,0-4.87-2.64l-3.33,3.08-2.48-2.69,3.33-3.08a6.58,6.58,0,0,1,10.94,6C862.16,698.94,858.67,702.55,853.69,702.55Z"/><path class="cls-3" d="M16.27,1086.39H15c-.85-4.23-3.16-14.48-6.72-21l-.27.15-.27.15c3.49,6.41,5.77,16.47,6.63,20.74h-.84a4.7,4.7,0,0,0-1.58-2.23c-1.59-1-3.67-2.09-2.75-3.93s2.34-2.25.41-4-5.84-3.09-4.34-5.18,2.67-2.5,2-3.92-4.59-4.85-2.42-7.26,5.34,1.59,5.84,5.76.92,2.17,3.17,4.76.33,4.59.84,7.1,2.58,1.17,2.92,4.34c.28,2.63-1.33,2.63-1.38,4.57"/><path class="cls-3" d="M26,1079.15c.16,3.43-1.34,3.17-3.17,4.59a3.2,3.2,0,0,0-1.23,2.65h-.69c.47-5.2,3.65-15.09,3.69-15.2l-.09,0-.21-.08L24,1071c-.14.45-3.27,10.14-3.72,15.39H19.5a3.69,3.69,0,0,0,.15-2.57c-.5-1.75-1.59-2.92-.84-4.76s3.51-1.84,2.59-4.35-1.75-4.51,1.42-5.92.83-3.34,2.84-4.34,1.67,2.75.25,7-.08,4.26.09,7.68"/><path class="cls-3" d="M8.7,1086.39H7.84l-.19-.59a1,1,0,0,0,0-.13c0-.12-.08-.24-.12-.37a38.06,38.06,0,0,0-2.36-5.44v0c-.3-.62-.52-1-.55-1.1l-.07,0,0-.05-.15.15L4,1079a57,57,0,0,1,3.17,7.36H6.36l-.48-.56c-2.17-2.5-3.92-3.59-2.42-4s.5-1.59-1.83-5.26-.92-5.76.5-4.35,0,2.92,1.42,4.09,2-.25,3.42,3.34a31.8,31.8,0,0,1,1.74,6.74"/><path class="cls-3" d="M30.59,1084.24a12.32,12.32,0,0,0-2.37,2.15h-.74c.54-2.28,1.62-5.49,1.64-5.53l-.29-.1-.29-.1c-.06.18-1.16,3.42-1.68,5.73h-.48a59.87,59.87,0,0,1,1.56-7.33c1-3.26,3-5.1,3.51-2.93s-2.92,3.26-1.17,4.59,2.5,1.75.34,3.51"/><rect class="cls-3" x="87.65" y="1066.3" width="10.38" height="5.78"/><rect class="cls-3" x="99.24" y="1066.3" width="10.38" height="5.78"/><rect class="cls-3" x="87.65" y="1059.63" width="10.38" height="5.47"/><rect class="cls-3" x="76.23" y="1059.63" width="10.21" height="5.47"/><rect class="cls-3" x="76.23" y="1066.3" width="10.21" height="5.78"/><rect class="cls-3" x="68.13" y="1066.3" width="6.89" height="5.78"/><path class="cls-3" d="M126.87,1059.63H122.5v5.47h6.58v-3.26a2.2,2.2,0,0,0-2.2-2.2"/><rect class="cls-3" x="110.91" y="1066.3" width="10.22" height="5.78"/><rect class="cls-3" x="99.24" y="1059.63" width="10.38" height="5.47"/><path class="cls-3" d="M75,1073.36H68.13v3.37a2.2,2.2,0,0,0,2.2,2.2H75Z"/><path class="cls-3" d="M75,1059.63H70.34a2.2,2.2,0,0,0-2.2,2.2v3.26H75Z"/><rect class="cls-3" x="122.5" y="1066.3" width="6.58" height="5.78"/><path class="cls-3" d="M122.5,1073.36v5.57h4.38a2.2,2.2,0,0,0,2.2-2.2v-3.37Z"/><rect class="cls-3" x="110.91" y="1059.63" width="10.22" height="5.47"/><rect class="cls-3" x="87.65" y="1073.36" width="10.38" height="5.57"/><rect class="cls-3" x="110.91" y="1073.36" width="10.22" height="5.57"/><rect class="cls-3" x="76.23" y="1073.36" width="10.21" height="5.57"/><rect class="cls-3" x="99.24" y="1073.36" width="10.38" height="5.57"/><rect class="cls-3" x="225.23" y="1066.3" width="7.7" height="5.78"/><rect class="cls-3" x="234.14" y="1066.3" width="10.38" height="5.78"/><rect class="cls-3" x="225.23" y="1059.63" width="7.7" height="5.47"/><path class="cls-3" d="M261.77,1059.63h-4.38v5.47H264v-3.26a2.2,2.2,0,0,0-2.2-2.2"/><rect class="cls-3" x="245.81" y="1066.3" width="10.22" height="5.78"/><rect class="cls-3" x="234.14" y="1059.63" width="10.38" height="5.47"/><rect class="cls-3" x="257.39" y="1066.3" width="6.58" height="5.78"/><path class="cls-3" d="M257.39,1073.36v5.57h4.38a2.2,2.2,0,0,0,2.2-2.2v-3.37Z"/><rect class="cls-3" x="245.81" y="1059.63" width="10.22" height="5.47"/><rect class="cls-3" x="225.23" y="1073.36" width="7.7" height="5.57"/><rect class="cls-3" x="245.81" y="1073.36" width="10.22" height="5.57"/><rect class="cls-3" x="234.14" y="1073.36" width="10.38" height="5.57"/><rect class="cls-2" x="13.28" y="516.39" width="26.74" height="39.02"/><rect class="cls-2" x="11.1" y="555.43" width="31.7" height="3.13"/><line class="cls-2" x1="16.16" y1="527.12" x2="39.75" y2="527.12"/><line class="cls-2" x1="26.76" y1="555.2" x2="26.76" y2="517.98"/><polygon class="cls-3" points="43.09 560.3 43.09 558.56 11.1 558.56 43.09 560.3"/><rect class="cls-2" x="49.24" y="516.39" width="26.74" height="39.02"/><rect class="cls-2" x="47.06" y="555.43" width="31.7" height="3.13"/><line class="cls-2" x1="52.11" y1="527.12" x2="75.71" y2="527.12"/><line class="cls-2" x1="62.72" y1="555.2" x2="62.72" y2="517.98"/><polygon class="cls-3" points="79.05 560.3 79.05 558.56 47.06 558.56 79.05 560.3"/><rect class="cls-2" x="117.92" y="516.39" width="26.74" height="39.02"/><rect class="cls-2" x="115.74" y="555.43" width="31.7" height="3.13"/><line class="cls-2" x1="120.79" y1="527.12" x2="144.38" y2="527.12"/><line class="cls-2" x1="131.4" y1="555.2" x2="131.4" y2="517.98"/><polygon class="cls-3" points="147.72 560.3 147.72 558.56 115.74 558.56 147.72 560.3"/><rect class="cls-2" x="153.87" y="516.39" width="26.74" height="39.02"/><rect class="cls-2" x="151.69" y="555.43" width="31.7" height="3.13"/><line class="cls-2" x1="156.74" y1="527.12" x2="180.34" y2="527.12"/><line class="cls-2" x1="167.35" y1="555.2" x2="167.35" y2="517.98"/><polygon class="cls-3" points="183.68 560.3 183.68 558.56 151.69 558.56 183.68 560.3"/><rect class="cls-2" x="219.64" y="516.39" width="26.74" height="39.02"/><rect class="cls-2" x="217.46" y="555.43" width="31.7" height="3.13"/><line class="cls-2" x1="222.51" y1="527.12" x2="246.11" y2="527.12"/><line class="cls-2" x1="233.12" y1="555.2" x2="233.12" y2="517.98"/><polygon class="cls-3" points="249.45 560.3 249.45 558.56 217.46 558.56 249.45 560.3"/><rect class="cls-2" x="13.28" y="596.66" width="26.74" height="39.02"/><rect class="cls-2" x="11.1" y="635.7" width="31.7" height="3.13"/><line class="cls-2" x1="16.16" y1="607.4" x2="39.75" y2="607.4"/><line class="cls-2" x1="26.76" y1="635.48" x2="26.76" y2="598.25"/><polygon class="cls-3" points="43.09 640.58 43.09 638.84 11.1 638.84 43.09 640.58"/><rect class="cls-2" x="49.24" y="596.66" width="26.74" height="39.02"/><rect class="cls-2" x="47.06" y="635.7" width="31.7" height="3.13"/><line class="cls-2" x1="52.11" y1="607.4" x2="75.71" y2="607.4"/><line class="cls-2" x1="62.72" y1="635.48" x2="62.72" y2="598.25"/><polygon class="cls-3" points="79.05 640.58 79.05 638.84 47.06 638.84 79.05 640.58"/><rect class="cls-2" x="117.92" y="596.66" width="26.74" height="39.02"/><rect class="cls-2" x="115.74" y="635.7" width="31.7" height="3.13"/><line class="cls-2" x1="120.79" y1="607.4" x2="144.38" y2="607.4"/><line class="cls-2" x1="131.4" y1="635.48" x2="131.4" y2="598.25"/><polygon class="cls-3" points="147.72 640.58 147.72 638.84 115.74 638.84 147.72 640.58"/><rect class="cls-2" x="153.87" y="596.66" width="26.74" height="39.02"/><rect class="cls-2" x="151.69" y="635.7" width="31.7" height="3.13"/><line class="cls-2" x1="156.74" y1="607.4" x2="180.34" y2="607.4"/><line class="cls-2" x1="167.35" y1="635.48" x2="167.35" y2="598.25"/><polygon class="cls-3" points="183.68 640.58 183.68 638.84 151.69 638.84 183.68 640.58"/><rect class="cls-2" x="219.64" y="596.66" width="26.74" height="39.02"/><rect class="cls-2" x="217.46" y="635.7" width="31.7" height="3.13"/><line class="cls-2" x1="222.51" y1="607.4" x2="246.11" y2="607.4"/><line class="cls-2" x1="233.12" y1="635.48" x2="233.12" y2="598.25"/><polygon class="cls-3" points="249.45 640.58 249.45 638.84 217.46 638.84 249.45 640.58"/><path class="cls-2" d="M287.52,1085.22v-21.39a2.82,2.82,0,1,1,5.65,0V1086"/><path class="cls-2" d="M309.35,949.69h0A19.31,19.31,0,0,0,290,969v91"/><path class="cls-2" d="M333,951.6H309a3.79,3.79,0,0,1,3.8-3.79H329.2A3.8,3.8,0,0,1,333,951.6Z"/><polygon class="cls-3" points="1.73 478.58 263.07 472.95 1.73 472.95 1.73 478.58"/><polygon class="cls-3" points="332.76 562.28 432.45 556.26 332.76 556.26 332.76 562.28"/><line class="cls-2" x1="420.48" y1="1087.75" x2="465.45" y2="1087.75"/><path class="cls-3" d="M562.62,938v-5.9H552.55V930.2l9.67-13.84h3.17v13.48h3v2.3h-3V938Zm0-8.21V922.6q0-1.7.1-3.4h-.1c-.67,1.27-1.2,2.2-1.8,3.2l-5.3,7.37v.07Z"/><polygon class="cls-3" points="584.73 916.36 584.73 918.29 575.29 938.04 572.26 938.04 581.66 918.86 581.66 918.79 571.06 918.79 571.06 916.36 584.73 916.36"/><rect class="cls-4" x="499.66" y="1256.12" width="178.63" height="2.47"/><line class="cls-2" x1="465.26" y1="772.65" x2="465.26" y2="7.27"/><line class="cls-2" x1="465.26" y1="1233.89" x2="465.26" y2="797.48"/><line class="cls-2" x1="465.26" y1="1314.44" x2="465.26" y2="1230.58"/><rect class="cls-2" x="540.31" y="900.06" width="54.69" height="54.69" rx="13.07" ry="13.07"/><rect class="cls-2" x="545.31" y="905.06" width="44.69" height="44.69" rx="8.07" ry="8.07"/><path class="cls-9" d="M596.36,389.61V550c0,37.65-16.39,139.75-25.51,155.29"/><g class="cls-8"><rect class="cls-6" x="467.37" y="1223.1" width="30.85" height="15.55" rx="2.07" ry="2.07"/><rect class="cls-6" x="467.37" y="1204.7" width="18.41" height="15.55" rx="2.07" ry="2.07"/><line class="cls-6" x1="470.29" y1="1220.39" x2="470.29" y2="1222.71"/><line class="cls-6" x1="470.29" y1="1238.84" x2="470.29" y2="1241.16"/><rect class="cls-6" x="467.37" y="1186.43" width="30.85" height="15.56" rx="2.07" ry="2.07"/><rect class="cls-6" x="467.37" y="1168.03" width="18.41" height="15.55" rx="2.07" ry="2.07"/><line class="cls-6" x1="470.29" y1="1183.72" x2="470.29" y2="1186.04"/><line class="cls-6" x1="470.29" y1="1202.17" x2="470.29" y2="1204.5"/><path class="cls-6" d="M469.45,1149.77h26.7a2.07,2.07,0,0,1,2.07,2.07v11.41a2.08,2.08,0,0,1-2.08,2.08h-26.7a2.07,2.07,0,0,1-2.07-2.07v-11.41A2.07,2.07,0,0,1,469.45,1149.77Z"/><rect class="cls-6" x="467.37" y="1131.36" width="18.41" height="15.56" rx="2.07" ry="2.07"/><line class="cls-6" x1="470.29" y1="1147.05" x2="470.29" y2="1149.37"/><line class="cls-6" x1="470.29" y1="1165.51" x2="470.29" y2="1167.83"/><rect class="cls-6" x="467.37" y="1113.1" width="30.85" height="15.55" rx="2.07" ry="2.07"/><path class="cls-6" d="M469.45,1094.7h14.26a2.07,2.07,0,0,1,2.07,2.07v11.41a2.08,2.08,0,0,1-2.08,2.08H469.45a2.07,2.07,0,0,1-2.07-2.07v-11.41A2.07,2.07,0,0,1,469.45,1094.7Z"/><line class="cls-6" x1="470.29" y1="1110.39" x2="470.29" y2="1112.71"/><line class="cls-6" x1="470.29" y1="1128.84" x2="470.29" y2="1131.16"/><path class="cls-6" d="M469.45,1076.44h26.7a2.07,2.07,0,0,1,2.07,2.07v11.41a2.08,2.08,0,0,1-2.08,2.08h-26.7a2.07,2.07,0,0,1-2.07-2.07v-11.41A2.07,2.07,0,0,1,469.45,1076.44Z"/><path class="cls-6" d="M485.78,1056.85v14.66a2.07,2.07,0,0,1-2.07,2.07H469.45a2.07,2.07,0,0,1-2.07-2.07v-7.35"/><line class="cls-6" x1="470.29" y1="1073.72" x2="470.29" y2="1076.04"/><line class="cls-6" x1="470.29" y1="1092.17" x2="470.29" y2="1094.5"/></g><g class="cls-8"><path class="cls-3" d="M338.88,1041.72c-.13.13,1.63,6.48,2.19,6.77a3.34,3.34,0,0,0,3.4-.34c1-1,1.53-4.77,1.53-4.77s-.08-5.49-.21-5.23-3.26,5.53-3.26,5.53l-1-3Z"/><path class="cls-3" d="M341.24,1041.85l.13-1.33-.26-1.71-1.54-1.12-1.24.73a4.56,4.56,0,0,0,0,1.07s.86.13.81.3a1.55,1.55,0,0,0,.3,1.67,1.75,1.75,0,0,0,1.84.39"/><path class="cls-3" d="M336.69,1086.4a.15.15,0,0,0,.1.23c.54.06,1.92.2,2.82.2h5.18a11,11,0,0,0-.15-1.48,3.24,3.24,0,0,0-.57-1.05,6.58,6.58,0,0,0-2.78-.3c-.84.3-2.93,1.61-3.66,1.75a1.52,1.52,0,0,0-.94.65"/><path class="cls-3" d="M348.52,1086.92s2-1.32,2.28-2.43,1.26-4.14,1.46-4.79a.15.15,0,0,0-.07-.17,4.39,4.39,0,0,0-1.44-.54,3.26,3.26,0,0,0-1.16.3s-1.37,1.3-1.28,2.18.74,3.47.33,4.08a1.64,1.64,0,0,0-.12,1.36"/><path class="cls-3" d="M343.47,1053l-.17.69a8.16,8.16,0,0,0-1.67,3.22c-.51,2-.17,20.45-.17,20.75s-.69,2.74-.69,2.74l.64,1.29-.86,2.14a7.56,7.56,0,0,0,2.57,1.37c1.07.17,2-1.67,1.72-2.19s-.47-1.5-.21-1.63,0-1.37.13-2.66,2-14.92,2.23-16.08,1.76-7.67,1.63-7.8-5.15-1.84-5.15-1.84"/><path class="cls-3" d="M346.81,1055.1s-3.22,4.42-5,7.63a68.05,68.05,0,0,0-3.34,6.39c-.17.6.86,1.76,1.46,2.4s4.46,5.27,5.32,6,1.37,1.46,1.33,1.93,1,1.71,1,1.71a21.27,21.27,0,0,1,2.49-1.37,1,1,0,0,0,.69-.77l-.17-1.54a6.92,6.92,0,0,1-1-.6c-.09-.13,0-1.16-.34-1.54a9.6,9.6,0,0,1-1.71-1.67,44.58,44.58,0,0,0-2.79-3.56c-.69-.69-1.33-1.24-1.33-1.24s4.89-6.95,6.13-8.06a9.68,9.68,0,0,0,2.19-3.73,3.54,3.54,0,0,0-.17-2l-7.63-1.8Z"/><polygon class="cls-4" points="348.82 1057.37 347.11 1059.09 346.47 1056.17 346.85 1055.4 348.82 1057.37"/><polygon class="cls-3" points="349.51 1057.16 349.04 1057.72 346.6 1055.44 346.81 1055.1 349.51 1057.16"/><path class="cls-3" d="M351.91,1037.43a4,4,0,0,0-2.1,3.77c.3,2.23,1.37,6.9,1.37,6.9l-4.37,7,2.91,2.23s4.76-6,5.19-7.55.39-8.53-.17-10.16-1.2-2.45-2.83-2.19"/><path class="cls-3" d="M349.81,1059.39a27.75,27.75,0,0,0,3.26-.13c0-.13.69-7.5.64-9.56s.09-12-.73-12.26a13.17,13.17,0,0,1-2.32-1.46l.21-1.59-4.46,3.47-.81-.73.13,1.93s-1.76,9.26-2.32,11.06a23.35,23.35,0,0,0-.73,4.37,2.18,2.18,0,0,0,.6-.82,1.35,1.35,0,0,0,.17-.69l5.15,1.84Z"/><path class="cls-3" d="M347.13,1037.7s0,0,0,0,0,0,0,0"/><path class="cls-3" d="M350.41,1035.08s-3,2.33-3.29,2.63a7.42,7.42,0,0,0-.57-1.13s-.77.39-1.16-.21-.77-1.33-.77-1.33a1.33,1.33,0,0,1-.6-.13c-.11-.08-.06-.71-.12-1.26a1.41,1.41,0,0,0-.22-.71l0,0c-.35-.5,0-1.83,0-2,.81-1.93,4.84-1.37,5-1.2s.86,4.16.94,4.63.77.73.77.73"/><path class="cls-3" d="M341.36,1032.8s2.06,0,5-.13,4.59-.94,4.93-1.33-2.06-.56-2.06-.56-.69-1.46-.9-1.93a1.2,1.2,0,0,0-1.67-.3c-.47.43-.81.81-1.37.64s-1.11-.51-1.33,0-.43,3-.6,3-2.06.3-2,.6"/><path class="cls-4" d="M347.88,1032.63a18.94,18.94,0,0,1-4,1,1.39,1.39,0,0,0-.23-.71l-.11-.18Z"/><path class="cls-12" d="M350.51,1059.55c-.16,0-2.2-.24-2.2-.24l-.08-1.79"/><path class="cls-4" d="M345.22,1077.48s-4.07-4.59-4.15-4.51a2.79,2.79,0,0,0,.41,1.3c.24.41,3.5,6.27,3.5,6.27Z"/><path class="cls-3" d="M336.32,1036.16s2.93-12.39-5.56-13c-5-.34-10.1-2.25-10.76-7.18-1-7.5,4.13-10.62,4.13-10.62s-5.2,10.74,5.27,12.18c12.23,1.69,6.93,18.58,6.93,18.58"/><polygon class="cls-3" points="337.47 1037.78 337.59 1037.43 340.44 1038.31 340.32 1038.66 337.47 1037.78"/><path class="cls-13" d="M337.69,1037.48a.24.24,0,1,1-.32-.14.24.24,0,0,1,.32.14"/></g><g class="cls-8"><path class="cls-3" d="M896.48,1018.85a4.06,4.06,0,1,1,4.06-4.06,4.07,4.07,0,0,1-4.06,4.06m0-8a3.95,3.95,0,1,0,3.95,3.95,4,4,0,0,0-3.95-3.95"/></g><g class="cls-8"><path class="cls-3" d="M861.84,554.18s-3.15,3.74-7,3.74-7-3.74-7-3.74,3.15-3.74,7-3.74,7,3.74,7,3.74"/><path class="cls-4" d="M857,554.71a3.27,3.27,0,1,1-3.27-3.27,3.27,3.27,0,0,1,3.27,3.27"/><path class="cls-3" d="M856.86,553.71a1.15,1.15,0,1,1-1.15-1.15,1.15,1.15,0,0,1,1.15,1.15"/><path class="cls-3" d="M887.12,554.18s-3.15,3.74-7,3.74-7-3.74-7-3.74,3.15-3.74,7-3.74,7,3.74,7,3.74"/><path class="cls-4" d="M882.32,554.71a3.27,3.27,0,1,1-3.27-3.27,3.27,3.27,0,0,1,3.27,3.27"/><path class="cls-3" d="M882.13,553.71a1.15,1.15,0,1,1-1.15-1.15,1.15,1.15,0,0,1,1.15,1.15"/></g></svg>