<?xml version="1.0" encoding="UTF-8" standalone="no"?><!DOCTYPE svg PUBLIC "-//W3C//DTD SVG 1.1//EN" "http://www.w3.org/Graphics/SVG/1.1/DTD/svg11.dtd"><svg width="100%" height="100%" viewBox="0 0 300 500" version="1.1" xmlns="http://www.w3.org/2000/svg" xmlns:xlink="http://www.w3.org/1999/xlink" xml:space="preserve" xmlns:serif="http://www.serif.com/" style="fill-rule:evenodd;clip-rule:evenodd;stroke-linejoin:round;stroke-miterlimit:2;"><path d="M8.853,383.776c0,1 0.79,20.95 2.15,31.13c0.778,5.963 2.374,11.79 4.743,17.315c0.032,0.075 0.064,0.15 0.097,0.225c0.01,0.023 0.23,0.84 1.78,0.65c1.29,-0.209 2.556,-0.544 3.78,-1c0.17,-0.12 4.35,-3 5,-7.28c0.57,-4 4.87,-23.84 4.91,-24c0.031,-0.138 0.002,-0.284 -0.08,-0.4c-0.087,-0.118 -0.223,-0.191 -0.37,-0.2c-0.239,-0.029 -0.476,-0.072 -0.71,-0.13c0.097,-0.08 0.158,-0.195 0.17,-0.32c0,-0.15 0.54,-3.53 5.68,-4.24c0.043,0.01 0.088,0.01 0.13,0c1.289,1.8 2.883,3.361 4.71,4.61c0.082,0.051 0.175,0.078 0.27,0.08l0.13,0c4.84,-1.29 64.77,-18.35 79.46,-25.47c5.95,-2.89 12.76,-12.66 14.44,-20.32c0.51,6.28 0.81,12.44 0.81,18.24c0,30.36 1.36,83.06 1.37,83.59c0.01,0.258 0.213,0.47 0.47,0.49c0.22,0 1.92,0.12 4.36,0.13c0.338,2.05 0.519,4.123 0.54,6.2c-0.776,-0.088 -1.532,0.31 -1.9,1c-1.76,2.73 -2,8.66 -2,9.18l-0.67,3.33c-0.125,0.658 0.028,1.338 0.42,1.88l-46.37,0c0.005,-0.033 0.005,-0.067 0,-0.1c-2.8,-17.59 -13.34,-29.52 -19.74,-33.24c-2.3,-1.34 -4.21,-1.78 -5.55,-1.28c-0.59,0.22 -1.38,0.6 -1.51,1.36c-0.17,1.1 1.12,2.14 3.27,3.87c2.81,2.25 7.05,5.66 9.34,10.75c2.618,5.923 4.327,12.207 5.07,18.64l-2.13,0c-0.267,-16.159 -13.634,-29.306 -29.796,-29.306c-6.586,0 -12.989,2.183 -18.204,6.206c-1.104,0.849 -1.752,2.166 -1.752,3.559c0,2.463 2.027,4.49 4.49,4.49c0.613,0 1.22,-0.125 1.782,-0.369c-4.658,3.988 -7.344,9.822 -7.344,15.954c0,11.52 9.48,21 21,21c9.562,0 17.974,-6.531 20.344,-15.794c0.067,2.069 1.554,3.838 3.58,4.26c0.3,0.06 0.605,0.09 0.91,0.09l170.37,0c0.145,-0.001 0.283,-0.063 0.38,-0.17c1.897,-0.524 3.24,-2.233 3.3,-4.2c2.371,9.263 10.783,15.794 20.345,15.794c11.52,0 21,-9.48 21,-21c0,-6.132 -2.686,-11.966 -7.345,-15.954c0.56,0.252 1.167,0.384 1.78,0.39c0.01,0 0.019,0 0.028,0c2.458,0 4.48,-2.022 4.48,-4.48c0,-0.194 -0.012,-0.388 -0.038,-0.58c-0.141,-1.189 -0.759,-2.272 -1.71,-3c-3.844,-2.977 -8.365,-4.959 -13.16,-5.77l-1.28,-16.81c-0.294,-3.691 -3.407,-6.576 -7.11,-6.59c-0.284,-0.003 -0.568,0.014 -0.85,0.05l-0.17,0l-9.94,-162.22c0.172,0.836 0.434,1.651 0.78,2.43c2.097,5.268 7.045,8.887 12.7,9.29l0,0.11c0.001,0.528 0.24,1.028 0.65,1.36c0.311,0.261 0.705,0.403 1.11,0.4c0.117,0.01 0.234,0.01 0.35,0l4.6,-0.92c0.818,-0.17 1.409,-0.895 1.41,-1.73l0,-27.71c0.003,-0.836 -0.59,-1.564 -1.41,-1.73l-4.6,-0.92c-0.115,-0.023 -0.232,-0.035 -0.35,-0.035c-0.963,0 -1.757,0.791 -1.76,1.755l0,0.11c-7.41,0.538 -13.322,6.58 -13.7,14l-0.09,-1.35c0.163,-0.082 0.267,-0.248 0.27,-0.43c-0.006,-0.205 -0.131,-0.389 -0.32,-0.47l-1.22,-19.88c0.479,-0.275 0.919,-0.611 1.31,-1c0.013,1.25 0.582,2.431 1.55,3.22c0.232,0.143 0.498,0.223 0.77,0.23c0.395,-0.012 0.764,-0.204 1,-0.52c0.12,-0.16 2,-2.5 3.49,-4.59c0.665,0.767 1.658,1.173 2.67,1.09l0.38,0c0.149,-0.011 0.285,-0.088 0.37,-0.21c0.61,-0.86 6,-8.48 6.09,-10.67c0.12,-2.49 -6.16,-7.71 -7.5,-8.28c-0.707,-0.269 -1.441,-0.461 -2.19,-0.57c-2.245,-2.054 -5.131,-3.273 -8.17,-3.45c-4.37,-0.35 -10.62,-0.6 -12.54,-0.67l0.42,-1.45c0.08,-0.249 -0.053,-0.521 -0.3,-0.61c-7.653,-2.983 -15.042,-6.602 -22.09,-10.82c-6.809,-4.046 -14.244,-6.932 -22,-8.54c0.05,-4.81 0.31,-44.5 -4.22,-58.2c-0.74,-8.33 -3.05,-11.49 -4.05,-12.48c0.74,-0.76 2.48,-2.59 4.29,-4.87c2.46,-3.08 3.25,-10.29 3.28,-10.6c0.027,-0.252 -0.142,-0.486 -0.39,-0.54c-0.247,-0.054 -0.95,-0.22 -2.49,-0.74c1.448,-3.196 4.291,-5.552 7.7,-6.38c1.414,0.537 2.909,0.827 4.42,0.86c1.478,0.054 2.932,-0.378 4.14,-1.23c1.18,-0.88 7.29,-10.49 8.12,-16.05c4.35,0.53 6.34,-1.64 6.43,-1.74c0.11,-0.122 0.151,-0.291 0.11,-0.45c0,-0.14 -3.48,-14.45 -3.48,-17.1c0,-2.65 1.69,-6.5 1.71,-6.54c0.077,-0.174 0.046,-0.377 -0.08,-0.52c1.163,-0.192 2.224,-0.783 3,-1.67c3.514,0.885 7.245,0.15 10.16,-2c2,-1.575 2.968,-4.136 2.51,-6.64c-0.073,-1.537 -0.968,-2.922 -2.34,-3.62c-2,-0.93 -4.87,0 -6.87,0.92c0.25,-4.64 -0.53,-17.55 -15.14,-26.5c-12.71,-7.79 -34.59,-3.78 -40.39,-1.21c-2.61,1.16 -7.56,1.48 -12.2,1.46c-0.8,0.031 -1.441,0.698 -1.441,1.499c0,0.472 0.223,0.918 0.601,1.201c-0.069,0.142 -0.069,0.308 0,0.45c2.88,5.47 0.07,7.82 0,7.92c-0.07,0.1 0,0 0,0l-1.3,-0.18c-0.037,-0.003 -0.074,-0.005 -0.112,-0.005c-0.685,0 -1.25,0.564 -1.25,1.25c0,0.505 0.306,0.962 0.772,1.155l0.11,0c-0.03,0.168 0.031,0.339 0.16,0.45c0.805,0.551 1.262,1.487 1.2,2.46c-0.286,1.14 -1.003,2.127 -2,2.75c-0.298,0.097 -0.564,0.273 -0.77,0.51c-0.2,0.12 -0.4,0.22 -0.59,0.32c-0.137,0.061 -0.238,0.183 -0.27,0.33c-0.036,0.15 -0.003,0.308 0.09,0.43c0.11,0.137 0.21,0.28 0.3,0.43c0.063,0.382 0.249,0.734 0.53,1c0.697,2.051 0.896,4.238 0.58,6.38c-0.025,0.085 -0.025,0.175 0,0.26c-0.394,0.275 -0.63,0.726 -0.63,1.207c0,0.547 0.305,1.05 0.79,1.303l7.17,3.7c-1.48,1.36 -4.15,4.18 -4.33,7c-0.22,3.28 2.79,5.06 4,5.65c-0.66,1.58 -2.28,6.67 2.13,10.24c3.51,2.84 7.74,1.64 10.17,0.52c-2.297,3.203 -4.852,6.213 -7.64,9c-0.075,-0.146 -0.217,-0.246 -0.38,-0.27l-5.58,-0.62c-0.059,-0.014 -0.12,-0.014 -0.18,0c-0.05,0.01 -0.098,0.03 -0.14,0.06c-2.684,1.917 -5.146,4.127 -7.34,6.59c-1.926,2.451 -2.855,5.543 -2.6,8.65c0.014,0.177 0.126,0.333 0.29,0.4l-0.2,0c-0.091,-0.147 -0.252,-0.236 -0.424,-0.236c-0.094,0 -0.186,0.026 -0.266,0.076c-2.679,1.788 -4.971,4.097 -6.74,6.79c-0.77,-0.39 -2.11,-1 -2.42,-1.11l-68.18,-26.4c-1.581,-0.686 -3.42,-0.427 -4.75,0.67l-11.71,9.68c-0.276,0.359 -0.276,0.862 0,1.22c0.284,0.406 0.828,0.543 1.27,0.32l12.94,-6.25l-27.57,70.52l-14.92,38c-1.417,3.581 0.287,7.698 3.82,9.23l68.08,29.88c0.901,0.388 1.87,0.588 2.85,0.59c2.936,-0.007 5.579,-1.829 6.63,-4.57l1.1,0.06l-3.68,21.37c-0.041,0.192 0.038,0.39 0.2,0.5c0.163,0.11 0.94,0.64 2.63,1.58c-0.27,0.77 -4,11.43 -4.54,18.11c-0.31,3.72 -0.2,8.93 -0.08,14.43c0.1,4.8 0.21,9.75 0.08,14.55c-0.27,9.89 -11.67,43.52 -12.68,46.46c-27.66,12.56 -67.44,35.28 -67.84,35.51c-0.209,0.124 -0.301,0.381 -0.22,0.61l0.48,1.22c-1.12,0.35 -1.91,0.57 -2.43,0.7c0.198,-0.381 0.049,-0.858 -0.33,-1.06c-4.295,-1.464 -8.862,-1.952 -13.37,-1.43c-0.859,-0.158 -1.748,-0.021 -2.52,0.39c-1.37,1 -0.59,2.92 -0.59,4.68m149.39,70.17l3.31,-0.83c0,0 12.48,-84.83 13.31,-93.93c0.83,-9.1 2.74,-100.38 2.74,-100.38l3.86,0.56c0,0 3.31,-1.94 3.86,-4.69c0.55,-2.75 -2.21,-7.18 -1.38,-13c0.83,-5.82 1.8,-18.33 1.8,-18.33l41,8.12l6.22,0.69l0.06,-0.12c0.43,-0.83 0.65,-1.74 1.14,-2.55c0.141,-0.231 0.418,-0.345 0.68,-0.28c0.073,0.019 0.141,0.053 0.2,0.1l0.25,-0.89c0,0 4,6.45 8,6.89c1.873,0.073 3.601,1.041 4.64,2.6l11.09,188.31c0,0 -6.63,0.28 -5.52,8.55c0.722,6.599 1.089,13.232 1.1,19.87c0.012,6.638 -12.14,4.41 -13.52,24l-47.48,0c-0.59,-3.896 -2.896,-7.33 -6.28,-9.35c-5.79,-3.58 -23.79,-10 -23.79,-10l-0.83,1.65c0,0 -3.38,-0.41 -4.21,-3.17c-0.83,-2.76 -0.27,-3.86 -0.27,-3.86" style="fill:#00023d;fill-rule:nonzero;stroke:#fff;stroke-width:1px;"/><path d="M241.809,210.856c-7.657,-2.995 -15.05,-6.628 -22.1,-10.86c-6.809,-4.046 -14.244,-6.933 -22,-8.54c0,-4.81 0.31,-44.5 -4.22,-58.2c-0.74,-8.33 -3.05,-11.49 -4.05,-12.48c0.74,-0.76 2.48,-2.59 4.29,-4.87c2.46,-3.08 3.25,-10.29 3.28,-10.6c0.031,-0.253 -0.14,-0.49 -0.39,-0.54c-0.249,-0.05 -1,-0.22 -2.49,-0.74c0,-0.1 0.09,-0.19 0.14,-0.29c-1.833,-0.515 -3.628,-1.16 -5.37,-1.93c-4.547,-2.095 -8.858,-4.67 -12.86,-7.68c-1.5,-1.09 -3.07,-2.08 -4.57,-3.17c-1.24,-0.9 -2.7,-2 -3.24,-3.52c-0.161,-0.011 -0.308,-0.096 -0.4,-0.23c-0.054,-0.059 -0.091,-0.132 -0.11,-0.21c0,-0.09 0,-0.18 -0.06,-0.27c-0.029,-0.135 -0.049,-0.272 -0.06,-0.41c-0.003,-0.04 -0.003,-0.08 0,-0.12c-0.011,-0.086 -0.011,-0.174 0,-0.26c0.041,-0.127 0.109,-0.243 0.2,-0.34c0.096,-0.093 0.213,-0.161 0.34,-0.2l0.06,0c0.331,-0.678 0.857,-1.243 1.51,-1.62c0.506,-0.271 0.973,-0.607 1.39,-1c0.246,-0.271 0.36,-0.637 0.31,-1c-0.4,0.42 -0.81,0.83 -1.2,1.2c-0.075,-0.146 -0.217,-0.246 -0.38,-0.27l-5.58,-0.62c-0.059,-0.015 -0.12,-0.015 -0.18,0c-0.05,0.01 -0.098,0.03 -0.14,0.06c-2.684,1.916 -5.146,4.127 -7.34,6.59c-1.926,2.451 -2.855,5.543 -2.6,8.65c0.014,0.177 0.126,0.333 0.29,0.4l-0.2,0c-0.088,-0.149 -0.248,-0.24 -0.421,-0.24c-0.095,0 -0.189,0.028 -0.269,0.08c-2.679,1.788 -4.971,4.097 -6.74,6.79c-0.77,-0.39 -2.11,-1 -2.42,-1.11l-68.19,-26.53c-1.581,-0.686 -3.42,-0.427 -4.75,0.67l-11.71,9.68c-0.275,0.359 -0.275,0.862 0,1.22c0.284,0.406 0.828,0.543 1.27,0.32l12.94,-6.25l-27.57,70.52l-14.92,38c-1.417,3.581 0.287,7.698 3.82,9.23l68.08,29.88c0.901,0.387 1.87,0.588 2.85,0.59c2.936,-0.007 5.579,-1.829 6.63,-4.57l0.32,0c0.35,-0.52 1.3,-0.21 1.08,0.47c-0.44,1.34 -0.47,2.78 -0.83,4.15c-0.36,1.37 -0.68,2.76 -1,4.14c-0.32,1.38 -0.67,2.52 -1,3.78c-0.192,0.978 -0.625,1.892 -1.26,2.66l-0.18,0.73c0.07,2.008 0.244,4.01 0.52,6c0.277,1.99 0.94,0.64 2.63,1.58c0,0.14 -0.21,0.61 -0.45,1.31c3.577,1.859 7.249,3.528 11,5c5.549,1.849 11.267,3.142 17.07,3.86c5.89,0.86 11.78,1.84 17.71,2.36c5.93,0.52 11.78,0.7 17.69,0.75l1.59,0c0.06,-2.63 0.09,-4.14 0.09,-4.14l3.86,0.56c0,0 3.31,-1.94 3.86,-4.69c0.55,-2.75 -2.21,-7.18 -1.38,-13c0.83,-5.82 2,-18.33 2,-18.33l40.78,8.12l6.15,0.68l0.12,-0.17c0.25,-0.67 0.51,-1.35 0.74,-2c0.271,-1.22 0.744,-2.386 1.4,-3.45l0,-0.21c0.12,-0.61 0.34,-1.2 0.41,-1.82c0.27,-2.17 0,-4.37 0.25,-6.53c0.043,-0.843 0.351,-1.652 0.88,-2.31c0.62,-0.67 0.74,0.17 1.6,0c0.86,-0.17 1.41,0.1 2.21,-0.55c0.07,-0.06 0.35,-0.36 0.66,-0.72l0.52,-1.47l0.4,-1.39c0.08,-0.249 -0.053,-0.521 -0.3,-0.61" style="fill:#ff486f;fill-rule:nonzero;stroke:#00023d;stroke-width:1px;"/><path d="M191.139,472.376c-1.941,-1.709 -4.048,-3.22 -6.29,-4.51c-3.52,-2 -22.2,-8.22 -22.2,-8.22c0,0 -2.08,5.65 -10.46,5.45c-8.38,-0.2 -8.32,-2.38 -10,-1.88c-1.68,0.5 -2.08,3.87 -2.38,5.3c-0.3,1.43 -0.89,6.59 -0.89,6.59c0,0 50.59,2.48 52.18,-2.73" style="fill:#00023d;fill-rule:nonzero;"/><path d="M30.649,400.776c0,0 -3.72,23.84 -5.4,26c-1.68,2.16 -3.17,5 -4.46,5c-1.29,0 -3.87,-3.86 -3.91,-4.16c-0.04,-0.3 -1.09,-6.1 -4,-24.38c-2.91,-18.28 0.94,-24.33 0.94,-24.33c0,0 6.79,0.4 9,1.19c2.21,0.79 2.43,1.14 2.43,1.14c0,0 -1.49,0.79 -1.64,4.11c-0.15,3.32 1.93,11.89 3.22,13.18c1.14,0.965 2.43,1.735 3.82,2.28" style="fill:#00023d;fill-rule:nonzero;"/><path d="M111.979,214.086l-2.55,11.35c0,0 19.52,1.9 30.27,-3.62c7.051,-3.777 13.551,-8.5 19.32,-14.04l-2.9,-6.21c0,0 -8.55,13.24 -44.14,12.55" style="fill:#00023d;fill-rule:nonzero;"/><path d="M134.879,111.046c0.32,0.21 0,9.79 0,9.79c0,0 9.65,-0.55 14.9,-2.62c5.25,-2.07 9.66,-1.93 15,-0.55c5.34,1.38 11.45,10.62 13,16.83c1.55,6.21 4,24.28 4,24.28c0,0 2.21,-12 1,-22.76c-1.21,-10.76 -7.45,-20.55 -12.83,-23c-5.38,-2.45 -14.59,-3.86 -21.35,-3c-6.76,0.86 -13.68,1.1 -13.68,1.1" style="fill:#00023d;fill-rule:nonzero;"/><path d="M155.429,197.526c0,0 6.62,-2.62 18.62,1.79c12,4.41 7.72,22.21 7.72,22.21c0,0 -21.63,-3.17 -26.34,-24Z" style="fill:none;fill-rule:nonzero;stroke:#00023d;stroke-width:1px;"/><path d="M113.399,249.776c0,0 -4,11.22 -4.53,18c-0.53,6.78 0.28,18.45 0,28.94c-0.28,10.49 -12.77,46.82 -12.77,46.82c-28,12.68 -68,35.57 -68,35.57c0,0 6,16.07 13,20.42c6.54,-1.74 65.11,-18.52 79.37,-25.44c6.25,-3 13.63,-14.1 14.48,-21.76c0,0 -2.7,-31.71 -6.79,-46.53c-4.09,-14.82 -7,-25.34 -7,-34.12c0.04,-5.567 0.626,-11.117 1.75,-16.57l-9.51,-5.33Z" style="fill:#fff;fill-rule:nonzero;"/><path d="M227.619,43.566c0,0 9.76,-6.31 10.83,1.07c1.07,7.38 -8.09,9.52 -12.38,8c-0.59,1.07 -3.45,3.1 -7.73,0.83c-2.386,-1.169 -4.465,-2.882 -6.07,-5l-9.4,-2.14c0.01,4.24 -2.029,8.233 -5.47,10.71c-5.83,4.16 -9.4,-0.71 -10.83,-1.67" style="fill:#00023d;fill-rule:nonzero;stroke:#fff;stroke-width:1px;"/><path d="M166.528,50.016c0,0 -4.88,3.81 -5.12,7.5c-0.24,3.69 4.17,5.36 4.17,5.36c0,0 -3.21,6.07 1.78,10.11c4.99,4.04 11.54,-0.6 11.54,-0.6c0,0 -7.19,10.48 -11.77,13" style="fill:none;fill-rule:nonzero;stroke:#fff;stroke-width:1px;"/><path d="M140.499,478.776l51.38,0c0.001,0 0.001,0 0.001,0c0.746,0 1.36,-0.614 1.36,-1.36c0,-0.111 -0.014,-0.222 -0.041,-0.33l-1,-4c0,0 -25.51,0.47 -35.43,0.95c-5.843,0.297 -11.702,-0.022 -17.48,-0.95l-0.68,3.37c-0.028,0.132 -0.042,0.266 -0.042,0.4c0,1.053 0.867,1.92 1.92,1.92c0.004,0 0.008,0 0.012,0Z" style="fill-rule:nonzero;"/><path d="M144.909,447.096c0,0 17,-16.74 20.43,-45.12" style="fill:none;fill-rule:nonzero;stroke:#fff;stroke-width:1px;"/><path d="M151.429,411.346c0,0 7.94,-15.89 9.65,-25.54" style="fill:none;fill-rule:nonzero;stroke:#fff;stroke-width:1px;"/><path d="M161.649,460.146c0,0 -3.69,0 -3.69,-5.67" style="fill:none;fill-rule:nonzero;stroke:#fff;stroke-width:1px;"/><path d="M143.199,462.916c-0.017,-2.161 -0.205,-4.318 -0.56,-6.45" style="fill-rule:nonzero;"/><path d="M11.159,379.326c4.677,-0.673 9.446,-0.249 13.93,1.24c0.9,0.55 -1.8,1.53 -1.52,4.41c0.38,3.85 1,8.83 1.8,11.18c0.828,2.392 2.957,4.109 5.47,4.41c2.514,0.301 -4.34,20 -4.92,24.07c-0.58,4.07 -4.75,6.94 -4.75,6.94" style="fill:#00023d;fill-rule:nonzero;stroke:#fff;stroke-width:1px;"/><path d="M29.839,399.556c0,0 0.48,-3.9 6.1,-4.67" style="fill-rule:nonzero;"/><path d="M24.949,381.876c1.421,-0.301 2.821,-0.695 4.19,-1.18" style="fill-rule:nonzero;"/><path d="M51.159,499.776c-11.517,-0.003 -20.993,-9.482 -20.993,-21c0,-6.501 3.019,-12.646 8.163,-16.62c3.667,-2.851 8.186,-4.394 12.83,-4.38c11.521,0 21,9.48 21,21c0,11.52 -9.479,21 -21,21m0,-30.57c-2.118,-0.006 -4.178,0.699 -5.85,2c-2.345,1.813 -3.721,4.616 -3.721,7.58c0,5.256 4.324,9.58 9.58,9.58c5.255,0 9.58,-4.324 9.58,-9.58c0,-5.255 -4.325,-9.58 -9.58,-9.58c-0.003,0 -0.006,0 -0.009,0" style="fill:#fff;fill-rule:nonzero;"/><path d="M75.949,487.826c0,0 0,0 0,0c-2.195,0 -4,-1.806 -4,-4c0,-0.269 0.027,-0.537 0.08,-0.8c0.289,-1.408 0.434,-2.842 0.434,-4.28c0,-11.69 -9.614,-21.311 -21.304,-21.32c-4.705,-0.014 -9.282,1.546 -13,4.43c-0.723,0.617 -1.644,0.957 -2.595,0.957c-2.195,0 -4,-1.806 -4,-4c0,-1.304 0.637,-2.529 1.705,-3.277c5.117,-3.975 11.421,-6.124 17.9,-6.1c16.075,0.007 29.298,13.236 29.298,29.31c0,1.979 -0.2,3.952 -0.598,5.89c-0.382,1.852 -2.029,3.191 -3.92,3.19Z" style="fill:#00023d;fill-rule:nonzero;stroke:#fff;stroke-width:1px;"/><path d="M289.179,469.466c-1.416,-2.873 -3.468,-5.386 -6,-7.35c-2.249,-1.745 -4.832,-3.011 -7.59,-3.72l1,13.08c2.129,1.808 3.353,4.468 3.34,7.26c0,0.003 0,0.007 0,0.01c0,5.255 -4.324,9.58 -9.58,9.58c-5.255,0 -9.58,-4.325 -9.58,-9.58c0,-2.423 0.919,-4.757 2.57,-6.53l-1,-12.89c-7.846,3.237 -12.991,10.926 -12.991,19.413c0,11.52 9.479,21 21,21c11.52,0 21,-9.48 21,-21c0,-3.215 -0.739,-6.388 -2.159,-9.273" style="fill:#fff;fill-rule:nonzero;"/><path d="M261.709,450.776l0.63,8.24c-8.013,3.263 -13.286,11.088 -13.3,19.74c0,1.441 0.144,2.878 0.43,4.29c0.056,0.267 0.084,0.539 0.084,0.812c0,1.891 -1.341,3.537 -3.194,3.918c-0.267,0.048 -0.538,0.075 -0.81,0.08c-1.89,-0.004 -3.532,-1.348 -3.91,-3.2c-3.031,-14.703 5.719,-29.474 20.07,-33.88Z" style="fill:#00023d;fill-rule:nonzero;stroke:#fff;stroke-width:1px;"/><path d="M288.939,461.136c-1.341,1.736 -3.873,2.061 -5.61,0.72c-2.31,-1.793 -4.971,-3.084 -7.81,-3.79l-0.63,-8.28c4.854,0.758 9.437,2.733 13.32,5.74c0.984,0.757 1.561,1.929 1.561,3.17c0,0.883 -0.292,1.741 -0.831,2.44Z" style="fill:#00023d;fill-rule:nonzero;stroke:#fff;stroke-width:1px;"/><path d="M75.949,487.826l170.38,0" style="fill:none;fill-rule:nonzero;"/><path d="M241.019,478.736l-160.56,0" style="fill:none;fill-rule:nonzero;"/><path d="M270.989,482.036c-0.259,0.031 -0.519,0.046 -0.78,0.046c-3.446,0 -6.348,-2.681 -6.62,-6.116l-0.29,-3.75l-1,-12.89l0,-0.33l-0.59,-8.22l-1.29,-16.91c-0.264,-3.518 2.318,-6.664 5.82,-7.09c0.263,-0.017 0.527,-0.017 0.79,0c3.451,-0.004 6.355,2.689 6.61,6.13l1.29,17l0.63,8.28l0,0.32l1,13.08l0.26,3.48c0.209,3.481 -2.367,6.56 -5.83,6.97Z" style="fill:#00023d;fill-rule:nonzero;stroke:#fff;stroke-width:1px;"/><path d="M248.049,238.376l11.11,188.4" style="fill:none;fill-rule:nonzero;"/><path d="M253.939,238.066l11.56,188.71" style="fill:none;fill-rule:nonzero;"/><circle cx="251.349" cy="232.806" r="5.84"/><path d="M270.259,246.896c-7.8,0 -14.22,6.419 -14.22,14.22c0,7.801 6.42,14.22 14.22,14.22l0,-28.44Z" style="fill:#00023d;fill-rule:nonzero;"/><path d="M276.119,276.216l-4.59,0.92c-0.082,0.017 -0.166,0.025 -0.25,0.025c-0.691,0 -1.26,-0.569 -1.26,-1.26c0,-0.001 0,-0.003 0,-0.005l0,-29.56c0,-0.002 0,-0.003 0,-0.005c0,-0.691 0.569,-1.26 1.26,-1.26c0.084,0 0.168,0.008 0.25,0.025l4.59,0.92c0.584,0.123 1.004,0.644 1,1.24l0,27.71c0.009,0.6 -0.413,1.126 -1,1.25Z" style="fill:#00023d;fill-rule:nonzero;stroke:#fff;stroke-width:1px;"/><path d="M249.869,258.676l5.62,0" style="fill:none;fill-rule:nonzero;"/><path d="M179.709,70.458c0,0 -0.25,8 2,12.23c2.25,4.23 15.47,12.48 20.22,14.23c4.75,1.75 7.24,0.5 8.24,-0.25c1,-0.75 7.49,-10.73 8,-16.22c4.49,0.75 6.49,-1.5 6.49,-1.5c0,0 -3.49,-14.48 -3.49,-17.22c0,-2.74 1.75,-6.74 1.75,-6.74" style="fill:#00023d;fill-rule:nonzero;stroke:#fff;stroke-width:1px;"/><path d="M213.709,83.016c-2.296,-0.646 -4.635,-1.131 -7,-1.45" style="fill:none;fill-rule:nonzero;stroke:#fff;stroke-width:1px;"/><path d="M203.129,62.186c0,0 5,-4 9.73,-3.74" style="fill:none;fill-rule:nonzero;stroke:#fff;stroke-width:1px;"/><path d="M209.369,68.156c-0.888,0 -1.62,-0.731 -1.62,-1.62l0,-2c0,-0.889 0.732,-1.62 1.62,-1.62c0.889,0 1.62,0.731 1.62,1.62l0,2c0,0.889 -0.731,1.62 -1.62,1.62" style="fill:#fff;fill-rule:nonzero;"/><path d="M154.469,97.396c-0.221,-2.967 0.663,-5.914 2.48,-8.27c2.173,-2.425 4.604,-4.604 7.25,-6.5l4.701,-0.045" style="fill:none;fill-rule:nonzero;stroke:#00023d;stroke-width:1px;stroke-linecap:round;"/><path d="M189.109,121.126c-0.116,-0.119 -0.243,-0.226 -0.38,-0.32c-0.136,-0.094 -6.18,-0.56 -15.51,-10c-5.438,-5.504 -11.784,-10.031 -18.76,-13.38" style="fill:none;fill-rule:nonzero;stroke:#00023d;stroke-width:1px;"/><path d="M188.819,195.066c0,0 5.12,-51.29 4.2,-61.71c-0.73,-8.27 -3,-11.32 -3.91,-12.23" style="fill:none;fill-rule:nonzero;stroke:#00023d;stroke-width:1px;"/><path d="M201.879,97.126c0,0 -5.19,0 -7.64,5.85" style="fill:none;fill-rule:nonzero;stroke:#fff;stroke-width:1px;"/><path d="M187.209,56.466c-1.362,-2.038 -3.484,-3.45 -5.89,-3.92c-3.36,-0.56 -4.48,2.52 -3.64,7c0.84,4.48 1.68,8.41 3.36,9.53c1.68,1.12 4.77,-0.84 4.77,-0.84" style="fill:#00023d;fill-rule:nonzero;stroke:#fff;stroke-width:1px;"/><path d="M177.709,81.846c1.171,3.435 2.919,6.644 5.17,9.49c2.819,3.296 5.98,6.283 9.43,8.91l5.48,-3.94c0,0 -8.65,-4.6 -12.89,-7.18c-2.859,-1.922 -5.303,-4.397 -7.19,-7.28" style="fill:#00023d;fill-rule:nonzero;"/><path d="M198.709,95.866c-0.27,-0.84 -1.86,-5.08 -3.69,-9.12c-1.627,-4.732 -2.691,-9.639 -3.17,-14.62c-0.87,-11.19 3.78,-25.9 3.83,-26.05l-3.6,-1.23c-0.2,0.63 -4.94,15.61 -4,27.59c0.09,1.11 0.21,2.23 0.37,3.33c-1.322,-1.675 -3.04,-2.995 -5,-3.84c-8.15,-3 -13.42,-15.36 -12.34,-23.64l-3.75,-0.52c-1.32,10.12 4.75,24.18 14.83,27.85c3.41,1.24 6.85,7.15 9.35,12.63c0.57,1.69 1.13,3.2 1.62,4.45c0.838,2.276 3.216,3.63 5.6,3.19" style="fill:#fff;fill-rule:nonzero;"/><path d="M157.519,35.926c2.49,-1.2 5.46,-4.12 2.26,-6.87c3.06,-1.15 1.64,-2 1.64,-2c0,0 3.32,-2.6 0.19,-8.55c19,0.17 13.06,-1.62 25,-2.49c11.94,-0.87 23.23,-1 28.38,3.13c5.15,4.13 9.35,12.8 9.3,14.92c-0.05,2.12 0.54,10.4 -7.63,11.24c-0.732,1.606 -2.204,2.757 -3.94,3.08c-2.18,-0.329 -4.386,-0.456 -6.59,-0.38l0.71,-0.16c-6.3,-1.65 -14.09,-4.57 -14.09,-4.57c-4.164,2.585 -8.524,4.842 -13.04,6.75l-12.14,0c-3.048,-1.638 -5.911,-3.599 -8.54,-5.85c-2.628,-2.251 0.87,-5.22 -1.51,-8.25Z" style="fill:#00023d;fill-rule:nonzero;"/><path d="M214.599,15.366c-12.72,-7.8 -34.59,-3.78 -40.39,-1.21c-2.61,1.15 -7.56,1.47 -12.2,1.46c-0.795,0.031 -1.432,0.693 -1.432,1.489c0,0.649 0.424,1.226 1.042,1.421c7.877,2.349 15.892,4.203 24,5.55c13.38,2.11 27.64,9.36 33.9,12.82c0.356,0.205 0.575,0.586 0.575,0.996c0,0.587 -0.45,1.085 -1.035,1.144l-5.64,0.38c-2.41,0.164 -4.827,-0.205 -7.08,-1.08c-7.433,-2.919 -15.025,-5.416 -22.74,-7.48c-6.94,-1.77 -16.59,-3.29 -23.81,-4.3c-0.037,-0.003 -0.074,-0.005 -0.112,-0.005c-0.685,0 -1.25,0.564 -1.25,1.25c0,0.505 0.306,0.962 0.772,1.155l27.37,10.63l-11.12,4.52c-2.755,1.116 -5.757,1.482 -8.7,1.06l-7.19,-1c-0.051,-0.005 -0.102,-0.008 -0.154,-0.008c-0.796,0 -1.45,0.654 -1.45,1.45c0,0.541 0.303,1.04 0.784,1.288l8.23,4.25c4.79,2.476 10.489,2.502 15.3,0.07l11.71,-5.9l12,3.73c3.362,1.05 6.973,0.994 10.3,-0.16l13.35,-5.24c0,0 3.12,-17.16 -15,-28.23m-7.67,9c0,0 -17.17,-5 -22.69,-5.92c22,-1.3 30.7,4.15 30.7,4.15l-8.01,1.77Z" style="fill:#fff;fill-rule:nonzero;"/><path d="M172.629,39.976c-2.841,0.18 -5.694,0.093 -8.52,-0.26c-2.111,-0.073 -4.166,-0.708 -5.95,-1.84c-0.463,-0.343 -0.738,-0.887 -0.738,-1.463c0,-0.999 0.822,-1.82 1.82,-1.82c0.148,0 0.295,0.018 0.438,0.053c4.47,1.425 8.817,3.208 13,5.33" style="fill:#fff;fill-rule:nonzero;"/><path d="M269.709,267.241c0,0 -3.5,0.37 -8.84,-2c-5.34,-2.37 -4.79,-5.89 -4.79,-5.89c0,0 -1.84,6.63 3.31,11.41c5.15,4.78 8.84,5 9.39,5.15c0.55,0.15 1.29,0.18 1.1,-1.47c-0.19,-1.65 -0.18,-7.18 -0.18,-7.18" style="fill:#fff;fill-rule:nonzero;"/><path d="M270.259,262.156l0.19,9.02l6.25,-0.92l0.19,-7.54l-6.63,-0.56Z" style="fill:#fff;fill-rule:nonzero;"/><path d="M257.099,232.876c0,3.182 -2.618,5.8 -5.8,5.8c-3.181,0 -5.8,-2.618 -5.8,-5.8c0,-3.182 2.619,-5.8 5.8,-5.8c3.182,0 5.8,2.618 5.8,5.8" style="fill:#fff;fill-rule:nonzero;"/><path d="M158.059,456.256l-15.1,5.15l-0.18,-5.15c0,0 6.44,-0.55 9.94,-0.74c1.775,-0.01 3.529,-0.388 5.15,-1.11l0.19,1.85Z" style="fill:#fff;fill-rule:nonzero;"/><path d="M28.26,380.874c0,0 2.58,5.71 4.79,9.39c2.21,3.68 2.76,4.79 2.76,4.79c0,0 -5,2 -5,1.47c0,-0.53 -4,-14.91 -4,-14.91l1.45,-0.74Z" style="fill:#fff;fill-rule:nonzero;"/><path d="M192.569,472.776c0,0 2.55,4.79 0.33,5.71l-53.61,0c0,0 -0.59,-0.39 -0.59,-1.95c0.075,-1.203 0.338,-2.388 0.78,-3.51c0.443,-1.122 37.88,0.72 53.08,-0.26" style="fill:#fff;fill-rule:nonzero;"/><path d="M13.939,379.096c0,0 -3.12,-1 -4.48,0c-1.36,1 -0.59,2.93 -0.59,4.68c0,1 0.79,21 2.14,31.13c0.78,5.957 2.378,11.778 4.749,17.297c0.044,0.101 0.321,1.083 1.881,0.883c1.288,-0.227 2.551,-0.579 3.77,-1.05c-2.395,-5.849 -4.149,-11.942 -5.23,-18.17c-1.574,-11.525 -2.326,-23.148 -2.25,-34.78" style="fill:#fff;fill-rule:nonzero;"/><path d="M234.189,228.596c0,0 5.71,5 13.31,-0.13" style="fill:none;fill-rule:nonzero;stroke:#fff;stroke-width:1px;"/><path d="M236.269,214.406c0.038,2.888 -0.216,5.773 -0.76,8.61c-0.76,3 -1.31,5.59 -1.31,5.59" style="fill-rule:nonzero;"/><path d="M259.059,216.722c1.77,0.131 3.519,0.441 5.219,0.925c1.522,0.616 7.937,5.853 7.828,8.009c-0.109,2.157 -6.523,10.68 -6.523,10.68c0,0 -2.827,0.206 -3.044,-1.437" style="fill:#00023d;fill-rule:nonzero;stroke:#fff;stroke-width:1px;"/><path d="M263.789,225.766l1.9,0.8" style="fill:none;fill-rule:nonzero;"/><path d="M234.709,228.896c0,0 4.91,6.77 11.71,7" style="fill:none;fill-rule:nonzero;stroke:#fff;stroke-width:1px;"/><path d="M147.149,104.776c-0.952,-0.529 -1.933,-1.003 -2.94,-1.42l-68.17,-26.58c-1.58,-0.691 -3.422,-0.431 -4.75,0.67l-11.71,9.68c-0.275,0.359 -0.275,0.862 0,1.22c0.284,0.406 0.828,0.543 1.27,0.32l13.11,-6.32c0,0 30.55,12.64 39.54,16.43c8.99,3.79 24,12.14 24,12.14l6.87,-0.56" style="fill:#ff486f;fill-rule:nonzero;"/><path d="M147.149,104.776c-0.952,-0.529 -1.933,-1.003 -2.94,-1.42l-68.17,-26.58c-1.58,-0.691 -3.422,-0.431 -4.75,0.67l-11.71,9.68c-0.275,0.359 -0.275,0.862 0,1.22c0.284,0.406 0.828,0.543 1.27,0.32l13.11,-6.32c0,0 30.55,12.64 39.54,16.43c8.99,3.79 24,12.14 24,12.14l6.87,-0.56" style="fill:none;fill-rule:nonzero;stroke:#00023d;stroke-width:1px;"/><path d="M185.859,222.976c-3.82,-1.13 -7.73,-2.39 -11.65,-3.79c-10.146,-3.591 -17.598,-12.398 -19.46,-23c-2.28,-13.08 -11.31,-25 -13.84,-39.88c-0.128,-1.841 -1.237,-3.478 -2.9,-4.28" style="fill:none;fill-rule:nonzero;stroke:#00023d;stroke-width:1px;"/><path d="M227.849,231.536l-0.24,0.51c-14.126,-1.974 -28.085,-5.003 -41.76,-9.06" style="fill-rule:nonzero;"/><path d="M135.019,120.836c9.24,0.41 18,-3.95 20.45,-4.4c1.472,-0.277 2.979,-0.307 4.46,-0.09c2.467,0.414 4.839,1.272 7,2.53c6.68,3.74 10.5,13.76 12,21.27c0,0 6.51,40.55 9.19,55c8.69,0.68 43.45,16.82 43.45,16.82c0.309,3.367 0.137,6.761 -0.51,10.08c-0.748,3.27 -1.824,6.456 -3.21,9.51" style="fill:none;fill-rule:nonzero;stroke:#00023d;stroke-width:1px;"/><path d="M116.039,214.196c-0.29,-1.43 7.41,-50.31 24.57,-92.92" style="fill:none;fill-rule:nonzero;stroke:#00023d;stroke-width:1px;"/><path d="M154.609,97.276c-5.322,2.745 -9.073,7.817 -10.14,13.71l-7,0.31" style="fill:none;fill-rule:nonzero;stroke:#00023d;stroke-width:1px;"/><path d="M236.239,214.216l-4.02,-0.5" style="fill:none;fill-rule:nonzero;"/><path d="M47.899,197.426c-2.635,-1.099 -4.36,-3.688 -4.36,-6.543c0,-1.025 0.222,-2.037 0.65,-2.967c1.253,-3.135 4.604,-4.94 7.91,-4.26l-1.56,3.59c-1.388,-0.096 -2.69,0.713 -3.22,2c-0.79,1.82 0,3.74 2.09,4.66c0.51,0.282 1.084,0.43 1.666,0.43c1.376,0 2.625,-0.825 3.164,-2.09c0.594,-1.268 0.302,-2.783 -0.72,-3.74l1.56,-3.59c2.755,1.948 3.729,5.624 2.3,8.68c-1.087,2.661 -3.689,4.408 -6.563,4.408c-1.005,0 -2,-0.214 -2.917,-0.628" style="fill:#fff;fill-rule:nonzero;"/><path d="M58.529,172.906c-0.496,-0.259 -1.048,-0.394 -1.608,-0.394c-1.909,0 -3.48,1.571 -3.48,3.48c0,1.475 0.937,2.796 2.328,3.284c0.497,0.259 1.049,0.394 1.608,0.394c1.91,0 3.48,-1.571 3.48,-3.48c0,-1.474 -0.936,-2.796 -2.328,-3.284m-4.27,9.87c-3.56,-1.55 -5.48,-5.44 -4,-8.8c0.587,-1.416 1.794,-2.486 3.27,-2.9l-1.42,-0.61l1.5,-3.46l12.64,5.48l-1.5,3.46l-1.42,-0.61c0.705,1.362 0.746,2.975 0.11,4.37c-1.46,3.36 -5.61,4.62 -9.17,3.08" style="fill:#fff;fill-rule:nonzero;"/><path d="M56.019,161.406l7.05,-1.86l-3.45,-6.45l1.28,-2.93l12.63,5.48l-1.5,3.46l-7.3,-3.17l3,5.6l-6.15,1.66l7.3,3.17l-1.5,3.46l-12.64,-5.48l1.28,-2.94Z" style="fill:#fff;fill-rule:nonzero;"/><path d="M72.369,141.016c-0.373,-0.134 -0.766,-0.202 -1.163,-0.202c-1.887,0 -3.44,1.552 -3.44,3.44c0,1.887 1.553,3.44 3.44,3.44c1.375,0 2.623,-0.824 3.163,-2.088c0.183,-0.427 0.277,-0.887 0.277,-1.352c0,-1.448 -0.914,-2.748 -2.277,-3.238m-4.24,9.76c-2.673,-1.134 -4.417,-3.77 -4.417,-6.674c0,-3.977 3.273,-7.25 7.25,-7.25c3.977,0 7.25,3.273 7.25,7.25c0,0.996 -0.205,1.981 -0.603,2.894c-1.126,2.648 -3.738,4.375 -6.616,4.375c-0.985,0 -1.96,-0.202 -2.864,-0.595" style="fill:#fff;fill-rule:nonzero;"/><path d="M77.579,132.326l5.11,2.21l-1.51,3.47l-12.63,-5.48l1.5,-3.47l5.16,2.24l-3.31,-6.51l1.79,-4.12l3.94,7.96l9.07,-3.33l-1.93,4.44l-7.19,2.59Z" style="fill:#fff;fill-rule:nonzero;"/><path d="M84.529,112.996c-0.365,-0.126 -0.748,-0.19 -1.134,-0.19c-1.909,0 -3.48,1.571 -3.48,3.48c0,1.909 1.571,3.48 3.48,3.48c1.386,0 2.645,-0.828 3.194,-2.1c0.196,-0.44 0.296,-0.916 0.296,-1.398c0,-1.48 -0.952,-2.803 -2.356,-3.272m-4.27,9.86c-3.56,-1.55 -5.48,-5.44 -4,-8.8c0.587,-1.416 1.794,-2.486 3.27,-2.9l-1.42,-0.61l1.5,-3.46l12.64,5.48l-1.5,3.46l-1.42,-0.61c0.705,1.362 0.746,2.975 0.11,4.37c-1.46,3.36 -5.61,4.62 -9.17,3.08" style="fill:#fff;fill-rule:nonzero;"/><path d="M85.069,102.746l-1.52,3.49l-3.03,-1.31l4.64,-10.69l3.03,1.31l-1.62,3.74l9.6,4.17l-1.5,3.46l-9.6,-4.17Z" style="fill:#fff;fill-rule:nonzero;"/><path d="M104.649,117.226l17.74,7.93c0.895,0.398 1.958,-0.007 2.36,-0.9l3.23,-7.23c0.399,-0.894 -0.007,-1.958 -0.9,-2.36l-17.74,-7.93c-0.894,-0.398 -1.957,0.008 -2.36,0.9l-3.27,7.22c-0.398,0.894 0.008,1.958 0.9,2.36" style="fill:#00023d;fill-rule:nonzero;"/><path d="M138.019,160.706l3.86,1.65" style="fill:none;fill-rule:nonzero;"/><path d="M254.599,453.946c0,0 -2.07,-21.1 -0.69,-24.14c0.937,-1.807 2.795,-2.961 4.83,-3c2.036,-0.039 -4.1,3.69 7.47,0" style="fill:none;fill-rule:nonzero;stroke:#fff;stroke-width:1px;"/><path d="M262.283,217.386c-2.174,-2.061 -5.01,-3.284 -8,-3.45c-5.24,-0.41 -12.55,-0.66 -12.55,-0.66" style="fill:#00023d;fill-rule:nonzero;stroke:#fff;stroke-width:1px;"/><path d="M83.639,478.836c-0.673,-6.718 -2.418,-13.284 -5.17,-19.45c-4.55,-10.14 -16.34,-13.45 -11.38,-15.31c4.96,-1.86 21.1,12 24.62,34.14" style="fill:#00023d;fill-rule:nonzero;stroke:#fff;stroke-width:1px;"/><path d="M236.969,214.906c0,0 19.53,2.27 21.23,2.27c2.171,0.161 3.98,1.765 4.4,3.9c0.7,2.6 1.9,10.4 1.6,11.3c-0.3,0.9 -4.4,6.2 -5.5,7.6c-1.1,1.4 -3.3,-1.9 -2.1,-4.4" style="fill:#00023d;fill-rule:nonzero;stroke:#fff;stroke-width:1px;"/><path d="M177.389,265.776c0,0 -21.72,0.37 -40.68,-4.42c-18.96,-4.79 -23.56,-11.78 -23.56,-11.78c0,0 4.23,2 5.15,2.39c10.742,4.916 22.428,7.428 34.24,7.36c19.15,-0.18 25.77,-0.18 25.77,-0.18l-0.92,6.63Z" style="fill:#00023d;fill-rule:nonzero;"/><path d="M26.339,402.776c0,0 2.58,1.69 4.46,1.64" style="fill:none;fill-rule:nonzero;stroke:#fff;stroke-width:1px;"/><path d="M26.039,406.526c1.172,0.782 2.512,1.276 3.91,1.44" style="fill:none;fill-rule:nonzero;stroke:#fff;stroke-width:1px;"/><path d="M25.989,410.296c0.965,0.643 2.069,1.047 3.22,1.18" style="fill-rule:nonzero;"/><path d="M163.369,463.776c0,0 2,-2.32 2.23,-4.19" style="fill:none;fill-rule:nonzero;stroke:#fff;stroke-width:1px;"/><path d="M167.059,464.586c0.95,-1.05 1.635,-2.312 2,-3.68" style="fill:none;fill-rule:nonzero;stroke:#fff;stroke-width:1px;"/><path d="M170.779,465.146c0.765,-0.859 1.317,-1.887 1.61,-3" style="fill:none;fill-rule:nonzero;stroke:#fff;stroke-width:1px;"/></svg>