<svg id="Layer_1" data-name="Layer 1" xmlns="http://www.w3.org/2000/svg" viewBox="0 0 1100 1391.27"><defs><style>.cls-1,.cls-2{fill:none;stroke-linecap:round;stroke-linejoin:round;}.cls-1{stroke:#00023d;}.cls-2{stroke:#fff;}.cls-3{fill:#fff;}</style></defs><title>1Artboard 1 copy</title><rect class="cls-1" x="467.37" y="1090.12" width="30.85" height="15.55" rx="2.07" ry="2.07"/><rect class="cls-1" x="467.37" y="1071.72" width="18.41" height="15.55" rx="2.07" ry="2.07"/><line class="cls-1" x1="470.29" y1="1087.41" x2="470.29" y2="1089.73"/><rect class="cls-1" x="467.37" y="1053.46" width="30.85" height="15.56" rx="2.07" ry="2.07"/><rect class="cls-1" x="467.37" y="1035.05" width="18.41" height="15.55" rx="2.07" ry="2.07"/><line class="cls-1" x1="470.29" y1="1050.74" x2="470.29" y2="1053.06"/><line class="cls-1" x1="470.29" y1="1069.2" x2="470.29" y2="1071.52"/><rect class="cls-1" x="467.37" y="1016.79" width="30.85" height="15.55" rx="2.07" ry="2.07"/><path class="cls-1" d="M469.45,998.38h14.26a2.07,2.07,0,0,1,2.07,2.07v11.41a2.08,2.08,0,0,1-2.08,2.08H469.45a2.07,2.07,0,0,1-2.07-2.07v-11.41A2.07,2.07,0,0,1,469.45,998.38Z"/><line class="cls-1" x1="470.29" y1="1014.07" x2="470.29" y2="1016.4"/><line class="cls-1" x1="470.29" y1="1032.53" x2="470.29" y2="1034.85"/><rect class="cls-1" x="467.37" y="980.12" width="30.85" height="15.55" rx="2.07" ry="2.07"/><rect class="cls-1" x="467.37" y="961.72" width="18.41" height="15.55" rx="2.07" ry="2.07"/><line class="cls-1" x1="470.29" y1="977.41" x2="470.29" y2="979.73"/><line class="cls-1" x1="470.29" y1="995.86" x2="470.29" y2="998.19"/><rect class="cls-1" x="467.37" y="943.46" width="30.85" height="15.55" rx="2.07" ry="2.07"/><line class="cls-1" x1="470.29" y1="940.74" x2="470.29" y2="943.06"/><line class="cls-1" x1="470.29" y1="959.2" x2="470.29" y2="961.52"/><rect class="cls-1" x="467.37" y="1255.79" width="30.85" height="15.55" rx="2.07" ry="2.07"/><rect class="cls-1" x="467.37" y="1237.38" width="18.41" height="15.55" rx="2.07" ry="2.07"/><line class="cls-1" x1="470.29" y1="1253.07" x2="470.29" y2="1255.4"/><rect class="cls-1" x="467.37" y="1219.12" width="30.85" height="15.56" rx="2.07" ry="2.07"/><rect class="cls-1" x="467.37" y="1200.72" width="18.41" height="15.55" rx="2.07" ry="2.07"/><line class="cls-1" x1="470.29" y1="1216.41" x2="470.29" y2="1218.73"/><line class="cls-1" x1="470.29" y1="1234.86" x2="470.29" y2="1237.18"/><rect class="cls-1" x="467.37" y="1182.46" width="30.85" height="15.55" rx="2.07" ry="2.07"/><path class="cls-1" d="M469.45,1164h14.26a2.07,2.07,0,0,1,2.07,2.07v11.41a2.08,2.08,0,0,1-2.08,2.08H469.45a2.07,2.07,0,0,1-2.07-2.07v-11.41A2.07,2.07,0,0,1,469.45,1164Z"/><line class="cls-1" x1="470.29" y1="1179.74" x2="470.29" y2="1182.06"/><line class="cls-1" x1="470.29" y1="1198.2" x2="470.29" y2="1200.52"/><rect class="cls-1" x="467.37" y="1145.79" width="30.85" height="15.55" rx="2.07" ry="2.07"/><rect class="cls-1" x="467.37" y="1127.38" width="18.41" height="15.55" rx="2.07" ry="2.07"/><line class="cls-1" x1="470.29" y1="1143.07" x2="470.29" y2="1145.4"/><line class="cls-1" x1="470.29" y1="1161.53" x2="470.29" y2="1163.85"/><rect class="cls-1" x="467.37" y="1109.12" width="30.85" height="15.55" rx="2.07" ry="2.07"/><line class="cls-1" x1="470.29" y1="1106.41" x2="470.29" y2="1108.73"/><line class="cls-1" x1="470.29" y1="1124.86" x2="470.29" y2="1127.18"/><rect class="cls-2" x="395.27" y="797.89" width="24.55" height="552.17"/><rect class="cls-3" x="395.27" y="797.89" width="10.36" height="552.17"/><line class="cls-1" x1="394.62" y1="1350.06" x2="394.62" y2="797.89"/></svg>