<?xml version="1.0" encoding="utf-8"?>
<!-- Generator: Adobe Illustrator 21.1.0, SVG Export Plug-In . SVG Version: 6.00 Build 0)  -->
<svg version="1.1" id="Layer_1" xmlns="http://www.w3.org/2000/svg" xmlns:xlink="http://www.w3.org/1999/xlink" viewBox="0 0 1100 1391.3" style="enable-background:new 0 0 1100 1391.3;" xml:space="preserve">
<style type="text/css">
	.st0{fill:#00023D;}
	.st1{fill:none;stroke:#00023D;stroke-linecap:round;stroke-linejoin:round;}
	.st2{fill:none;stroke:#FFFFFF;stroke-width:0.57;stroke-linecap:round;stroke-linejoin:round;}
	.st3{fill:#FFFFFF;}
</style>
<title>1Artboard 1 copy 3</title>
<path class="st0" d="M899.5,1014.9c0,1.6-1.3,2.9-2.9,2.9c-1.6,0-2.9-1.3-2.9-2.9c0-1.6,1.3-2.9,2.9-2.9
	C898.2,1012,899.5,1013.3,899.5,1014.9L899.5,1014.9"/>
<path class="st1" d="M896.6,1009.7c-2.9,0-5.2,2.3-5.2,5.2s2.3,5.2,5.2,5.2s5.2-2.3,5.2-5.2v0C901.8,1012,899.5,1009.7,896.6,1009.7
	z M896.6,1017.8c-1.6,0-2.9-1.3-2.9-2.9c0-1.6,1.3-2.9,2.9-2.9c1.6,0,2.9,1.3,2.9,2.9C899.5,1016.5,898.2,1017.8,896.6,1017.8
	L896.6,1017.8z"/>
<g>
	<defs>
		<rect id="SVGID_1_" x="-1095" y="366.3" width="2195" height="1080"/>
	</defs>
	<clipPath id="SVGID_2_">
		<use xlink:href="#SVGID_1_"  style="overflow:visible;"/>
	</clipPath>
</g>
<circle class="st2" cx="896.6" cy="1014.9" r="6.1"/>
<path class="st0" d="M899.4,1014.8c0,1.5-1.2,2.7-2.7,2.7c-1.5,0-2.7-1.2-2.7-2.7c0-1.5,1.2-2.7,2.7-2.7
	C898.2,1012.1,899.4,1013.3,899.4,1014.8"/>
<path class="st3" d="M899.1,1014.9c0,0-1.1,1.3-2.4,1.3c-1.4,0-2.4-1.3-2.4-1.3s1.1-1.3,2.4-1.3
	C898,1013.6,899.1,1014.9,899.1,1014.9"/>
<path class="st0" d="M897.5,1015c0,0.6-0.5,1.1-1.1,1.1s-1.1-0.5-1.1-1.1c0-0.6,0.5-1.1,1.1-1.1S897.5,1014.4,897.5,1015"/>
<path class="st3" d="M897.4,1014.7c0,0.2-0.2,0.4-0.4,0.4c-0.2,0-0.4-0.2-0.4-0.4c0-0.2,0.2-0.4,0.4-0.4
	C897.2,1014.3,897.4,1014.5,897.4,1014.7"/>
<path class="st3" d="M896.7,1018.9c-2.2,0-4.1-1.8-4.1-4.1c0-2.2,1.8-4.1,4.1-4.1c2.2,0,4.1,1.8,4.1,4.1
	C900.7,1017.1,898.9,1018.9,896.7,1018.9 M896.7,1010.9c-2.2,0-3.9,1.8-3.9,3.9c0,2.2,1.8,3.9,3.9,3.9c2.2,0,3.9-1.8,3.9-3.9
	C900.6,1012.6,898.8,1010.9,896.7,1010.9"/>
</svg>
