<?xml version="1.0" encoding="UTF-8" standalone="no"?><!DOCTYPE svg PUBLIC "-//W3C//DTD SVG 1.1//EN" "http://www.w3.org/Graphics/SVG/1.1/DTD/svg11.dtd"><svg width="100%" height="100%" viewBox="0 0 13 13" version="1.1" xmlns="http://www.w3.org/2000/svg" xmlns:xlink="http://www.w3.org/1999/xlink" xml:space="preserve" xmlns:serif="http://www.serif.com/" style="fill-rule:evenodd;clip-rule:evenodd;stroke-linecap:round;stroke-linejoin:round;"><path d="M9.285,6.385c0,1.6 -1.3,2.9 -2.9,2.9c-1.6,0 -2.9,-1.3 -2.9,-2.9c0,-1.6 1.3,-2.9 2.9,-2.9c1.6,0 2.9,1.3 2.9,2.9" style="fill:#00023d;fill-rule:nonzero;"/><path d="M6.385,1.185c-2.9,0 -5.2,2.3 -5.2,5.2c0,2.9 2.3,5.2 5.2,5.2c2.9,0 5.2,-2.3 5.2,-5.2c0,-2.9 -2.3,-5.2 -5.2,-5.2Zm0,8.1c-1.6,0 -2.9,-1.3 -2.9,-2.9c0,-1.6 1.3,-2.9 2.9,-2.9c1.6,0 2.9,1.3 2.9,2.9c0,1.6 -1.3,2.9 -2.9,2.9Z" style="fill:none;fill-rule:nonzero;stroke:#00023d;stroke-width:1px;"/><circle cx="6.385" cy="6.385" r="6.1" style="fill:none;stroke:#fff;stroke-width:0.57px;"/><path d="M9.185,6.285c0,1.5 -1.2,2.7 -2.7,2.7c-1.5,0 -2.7,-1.2 -2.7,-2.7c0,-1.5 1.2,-2.7 2.7,-2.7c1.5,0 2.7,1.2 2.7,2.7" style="fill:#00023d;fill-rule:nonzero;"/><path d="M8.885,6.385c0,0 -1.1,1.3 -2.4,1.3c-1.4,0 -2.4,-1.3 -2.4,-1.3c0,0 1.1,-1.3 2.4,-1.3c1.3,0 2.4,1.3 2.4,1.3" style="fill:#fff;fill-rule:nonzero;"/><path d="M7.285,6.485c0,0.6 -0.5,1.1 -1.1,1.1c-0.6,0 -1.1,-0.5 -1.1,-1.1c0,-0.6 0.5,-1.1 1.1,-1.1c0.6,0 1.1,0.5 1.1,1.1" style="fill:#00023d;fill-rule:nonzero;"/><path d="M7.185,6.185c0,0.2 -0.2,0.4 -0.4,0.4c-0.2,0 -0.4,-0.2 -0.4,-0.4c0,-0.2 0.2,-0.4 0.4,-0.4c0.2,0 0.4,0.2 0.4,0.4" style="fill:#fff;fill-rule:nonzero;"/><path d="M6.485,10.385c-2.2,0 -4.1,-1.8 -4.1,-4.1c0,-2.2 1.8,-4.1 4.1,-4.1c2.2,0 4.1,1.8 4.1,4.1c-0.1,2.3 -1.9,4.1 -4.1,4.1m0,-8c-2.2,0 -3.9,1.8 -3.9,3.9c0,2.2 1.8,3.9 3.9,3.9c2.2,0 3.9,-1.8 3.9,-3.9c0,-2.2 -1.8,-3.9 -3.9,-3.9" style="fill:#fff;fill-rule:nonzero;"/></svg>