<svg id="Layer_1" data-name="Layer 1" xmlns="http://www.w3.org/2000/svg" xmlns:xlink="http://www.w3.org/1999/xlink" viewBox="0 0 1098.52 2851"><defs><style>.cls-1,.cls-11,.cls-3,.cls-6,.cls-8{fill:none;}.cls-2{fill:#00023d;}.cls-3,.cls-8{stroke:#fff;}.cls-3,.cls-6{stroke-linecap:round;stroke-linejoin:round;}.cls-4{fill:#fff;}.cls-5{clip-path:url(#clip-path);}.cls-11,.cls-6{stroke:#00023d;}.cls-7{clip-path:url(#clip-path-2);}.cls-11,.cls-8{stroke-miterlimit:10;}.cls-9{clip-path:url(#clip-path-4);}.cls-10{clip-path:url(#clip-path-6);}.cls-12{fill:#ff486f;}.cls-13{clip-path:url(#clip-path-11);}</style><clipPath id="clip-path"><rect class="cls-1" x="-1096.48" y="1771" width="2195" height="1080"/></clipPath><clipPath id="clip-path-2"><polygon class="cls-1" points="642.08 1794.41 642.08 1854.25 560.38 1854.25 560.38 1858.03 642.08 1858.03 642.08 1917.68 560.38 1917.68 560.38 1921.46 642.08 1921.46 642.08 1981.11 560.38 1981.11 560.38 1984.88 642.08 1984.88 642.08 2044.53 560.38 2044.53 560.38 2048.31 642.08 2048.31 642.08 2109.72 645.79 2109.72 645.79 2048.31 727.49 2048.31 727.49 2044.53 645.79 2044.53 645.79 1984.88 727.49 1984.88 727.49 1981.11 645.79 1981.11 645.79 1921.46 727.49 1921.46 727.49 1917.68 645.79 1917.68 645.79 1858.03 727.49 1858.03 727.49 1854.25 645.79 1854.25 645.79 1794.41 642.08 1794.41"/></clipPath><clipPath id="clip-path-4"><path class="cls-1" d="M904,1794.41v59.85H824.2a1.89,1.89,0,1,0,0,3.78H904v59.65H824.2a1.89,1.89,0,1,0,0,3.78H904v59.65H824.2a1.89,1.89,0,1,0,0,3.78H904v59.65H824.2a1.89,1.89,0,1,0,0,3.78H904v61.41h3.7v-61.41h81.7v-3.78h-81.7v-59.65h81.7v-3.78h-81.7v-59.65h81.7v-3.78h-81.7V1858h81.7v-3.78h-81.7v-59.85Z"/></clipPath><clipPath id="clip-path-6"><path class="cls-1" d="M1084.24,2048.31h14.28v-3.78h-14.28Zm0-63.43h14.28v-3.78h-14.28Zm0-63.43h14.28v-3.78h-14.28Zm0-63.43h14.28v-3.78h-14.28Z"/></clipPath><clipPath id="clip-path-11"><rect class="cls-1" x="-1096.48" y="1172" width="2195" height="1679"/></clipPath></defs><title>1Artboard 1</title><rect class="cls-2" width="1098.52" height="2851"/><rect class="cls-3" x="11.8" y="2188.17" width="26.74" height="39.02"/><rect class="cls-3" x="9.62" y="2227.21" width="31.7" height="3.13"/><line class="cls-3" x1="14.67" y1="2198.91" x2="38.27" y2="2198.91"/><line class="cls-3" x1="25.28" y1="2226.98" x2="25.28" y2="2189.76"/><polygon class="cls-4" points="41.61 2232.08 41.61 2230.34 9.62 2230.34 41.61 2232.08"/><rect class="cls-3" x="47.75" y="2188.17" width="26.74" height="39.02"/><rect class="cls-3" x="45.57" y="2227.21" width="31.7" height="3.13"/><line class="cls-3" x1="50.63" y1="2198.91" x2="74.22" y2="2198.91"/><line class="cls-3" x1="61.23" y1="2226.98" x2="61.23" y2="2189.76"/><polygon class="cls-4" points="77.56 2232.08 77.56 2230.34 45.58 2230.34 77.56 2232.08"/><rect class="cls-3" x="116.43" y="2188.17" width="26.74" height="39.02"/><rect class="cls-3" x="114.25" y="2227.21" width="31.7" height="3.13"/><line class="cls-3" x1="119.3" y1="2198.91" x2="142.9" y2="2198.91"/><line class="cls-3" x1="129.91" y1="2226.98" x2="129.91" y2="2189.76"/><polygon class="cls-4" points="146.24 2232.08 146.24 2230.34 114.25 2230.34 146.24 2232.08"/><rect class="cls-3" x="152.39" y="2188.17" width="26.74" height="39.02"/><rect class="cls-3" x="150.21" y="2227.21" width="31.7" height="3.13"/><line class="cls-3" x1="155.26" y1="2198.91" x2="178.85" y2="2198.91"/><line class="cls-3" x1="165.87" y1="2226.98" x2="165.87" y2="2189.76"/><polygon class="cls-4" points="182.2 2232.08 182.2 2230.34 150.21 2230.34 182.2 2232.08"/><rect class="cls-3" x="218.16" y="2188.17" width="26.74" height="39.02"/><rect class="cls-3" x="215.98" y="2227.21" width="31.7" height="3.13"/><line class="cls-3" x1="221.03" y1="2198.91" x2="244.62" y2="2198.91"/><line class="cls-3" x1="231.64" y1="2226.98" x2="231.64" y2="2189.76"/><polygon class="cls-4" points="247.96 2232.08 247.96 2230.34 215.98 2230.34 247.96 2232.08"/><rect class="cls-3" x="11.8" y="2283.34" width="26.74" height="39.02"/><rect class="cls-3" x="9.62" y="2322.38" width="31.7" height="3.14"/><line class="cls-3" x1="14.67" y1="2294.08" x2="38.27" y2="2294.08"/><line class="cls-3" x1="25.28" y1="2322.15" x2="25.28" y2="2284.93"/><polygon class="cls-4" points="41.61 2327.26 41.61 2325.52 9.62 2325.52 41.61 2327.26"/><rect class="cls-3" x="47.75" y="2283.34" width="26.74" height="39.02"/><rect class="cls-3" x="45.57" y="2322.38" width="31.7" height="3.14"/><line class="cls-3" x1="50.63" y1="2294.08" x2="74.22" y2="2294.08"/><line class="cls-3" x1="61.23" y1="2322.15" x2="61.23" y2="2284.93"/><polygon class="cls-4" points="77.56 2327.26 77.56 2325.52 45.58 2325.52 77.56 2327.26"/><rect class="cls-3" x="116.43" y="2283.34" width="26.74" height="39.02"/><rect class="cls-3" x="114.25" y="2322.38" width="31.7" height="3.14"/><line class="cls-3" x1="119.3" y1="2294.08" x2="142.9" y2="2294.08"/><line class="cls-3" x1="129.91" y1="2322.15" x2="129.91" y2="2284.93"/><polygon class="cls-4" points="146.24 2327.26 146.24 2325.52 114.25 2325.52 146.24 2327.26"/><rect class="cls-3" x="152.39" y="2283.34" width="26.74" height="39.02"/><rect class="cls-3" x="150.21" y="2322.38" width="31.7" height="3.14"/><line class="cls-3" x1="155.26" y1="2294.08" x2="178.85" y2="2294.08"/><line class="cls-3" x1="165.87" y1="2322.15" x2="165.87" y2="2284.93"/><polygon class="cls-4" points="182.2 2327.26 182.2 2325.52 150.21 2325.52 182.2 2327.26"/><rect class="cls-3" x="218.16" y="2283.34" width="26.74" height="39.02"/><rect class="cls-3" x="215.98" y="2322.38" width="31.7" height="3.14"/><line class="cls-3" x1="221.03" y1="2294.08" x2="244.62" y2="2294.08"/><line class="cls-3" x1="231.64" y1="2322.15" x2="231.64" y2="2284.93"/><polygon class="cls-4" points="247.96 2327.26 247.96 2325.52 215.98 2325.52 247.96 2327.26"/><rect class="cls-3" x="11.8" y="2373.37" width="26.74" height="39.02"/><rect class="cls-3" x="9.62" y="2412.41" width="31.7" height="3.13"/><line class="cls-3" x1="14.67" y1="2384.11" x2="38.27" y2="2384.11"/><line class="cls-3" x1="25.28" y1="2412.18" x2="25.28" y2="2374.96"/><polygon class="cls-4" points="41.61 2417.28 41.61 2415.55 9.62 2415.55 41.61 2417.28"/><rect class="cls-3" x="47.75" y="2373.37" width="26.74" height="39.02"/><rect class="cls-3" x="45.57" y="2412.41" width="31.7" height="3.13"/><line class="cls-3" x1="50.63" y1="2384.11" x2="74.22" y2="2384.11"/><line class="cls-3" x1="61.23" y1="2412.18" x2="61.23" y2="2374.96"/><polygon class="cls-4" points="77.56 2417.28 77.56 2415.55 45.58 2415.55 77.56 2417.28"/><rect class="cls-3" x="116.43" y="2373.37" width="26.74" height="39.02"/><rect class="cls-3" x="114.25" y="2412.41" width="31.7" height="3.13"/><line class="cls-3" x1="119.3" y1="2384.11" x2="142.9" y2="2384.11"/><line class="cls-3" x1="129.91" y1="2412.18" x2="129.91" y2="2374.96"/><polygon class="cls-4" points="146.24 2417.28 146.24 2415.55 114.25 2415.55 146.24 2417.28"/><rect class="cls-3" x="152.39" y="2373.37" width="26.74" height="39.02"/><rect class="cls-3" x="150.21" y="2412.41" width="31.7" height="3.13"/><line class="cls-3" x1="155.26" y1="2384.11" x2="178.85" y2="2384.11"/><line class="cls-3" x1="165.87" y1="2412.18" x2="165.87" y2="2374.96"/><polygon class="cls-4" points="182.2 2417.28 182.2 2415.55 150.21 2415.55 182.2 2417.28"/><rect class="cls-3" x="218.16" y="2373.37" width="26.74" height="39.02"/><rect class="cls-3" x="215.98" y="2412.41" width="31.7" height="3.13"/><line class="cls-3" x1="221.03" y1="2384.11" x2="244.62" y2="2384.11"/><line class="cls-3" x1="231.64" y1="2412.18" x2="231.64" y2="2374.96"/><polygon class="cls-4" points="247.96 2417.28 247.96 2415.55 215.98 2415.55 247.96 2417.28"/><rect class="cls-2" x="199.96" y="2182.76" width="19.45" height="237.52"/><rect class="cls-2" x="5.48" y="2182.76" width="45.93" height="237.52"/><g class="cls-5"><path class="cls-2" d="M559.94,2110h9.43s25.51-97.18,25.51-204.71V1794.34H559.94Z"/><polygon class="cls-4" points="991.7 2485.22 924.3 2271.11 869.08 2271.37 710.84 2684.16 991.7 2684.16 991.7 2485.22"/><polygon class="cls-4" points="995.05 2684.16 1052.93 2684.16 995.05 2499.63 995.05 2684.16"/><rect class="cls-2" x="672.8" y="2660.85" width="101.63" height="2.47"/><rect class="cls-2" x="994.73" y="2660.85" width="101.63" height="2.47"/><rect class="cls-2" x="785.36" y="2323.97" width="9.5" height="359.84"/><rect class="cls-2" x="785.36" y="2323.76" width="193.94" height="9.42"/><path class="cls-4" d="M463.94,1914.39S442,1888,409.32,1882.61s-62.68,37.61-93.12,22.39-35.37-52.38-65.81-77.9-71.63,34-130.28,21.94-55.52-50.14-84.17-63.12S.58,1784.11.58,1784.11l-.45,76.08,267.72.48v17h-6.27v192.6h25.07l44.77-35V1960.5l-6.27-.45V1922H465.28Z"/><path class="cls-4" d="M322.92,1845.45c1.41.08,81,0,99.83,0s13.43-23.28-1.34-28.2-11.19,13-37.16,18.8-20.59-3.13-33.58-5.37c-22.06-3.8-51.48,13.43-27.76,14.77"/><path class="cls-2" d="M898,2419.64a2.89,2.89,0,1,1-2.89-2.89,2.89,2.89,0,0,1,2.89,2.89"/><path class="cls-4" d="M728.12,2110H718.7s-25.51-97.18-25.51-204.71V1794.34h34.94Z"/><rect class="cls-3" x="525.82" y="2110.4" width="225.19" height="17.94"/><polygon class="cls-4" points="751.01 2128.34 525.82 2128.34 751.01 2139.3 751.01 2128.34"/><rect class="cls-3" x="370.65" y="2166.74" width="983.5" height="35.88"/><path class="cls-3" d="M925.28,2270.76a29.54,29.54,0,0,0-58.64,0Z"/><polyline class="cls-3" points="785.36 2490.77 785.36 2323.97 979.58 2323.97 979.58 2460.41"/><polyline class="cls-6" points="979.58 2446.74 979.58 2683.81 785.36 2683.81 785.36 2490.77"/><polyline class="cls-3" points="940.38 2313.42 991.19 2313.42 991.19 2489.69"/><line class="cls-6" x1="847.69" y1="2313.42" x2="940.38" y2="2313.42"/><polyline class="cls-3" points="773.76 2519.43 773.76 2313.42 847.69 2313.42"/><rect class="cls-2" x="551.98" y="1793.81" width="7.78" height="316.42"/><rect class="cls-3" x="551.98" y="1793.81" width="175.98" height="316.42"/><rect class="cls-3" x="542.47" y="1784.53" width="194.55" height="325.7"/><rect class="cls-3" x="1007.16" y="2427.62" width="22.08" height="29.57"/><path class="cls-4" d="M1025.25,2436.21H1011a.68.68,0,0,1-.68-.68v-2.88a.68.68,0,0,1,.68-.68h14.25a.68.68,0,0,1,.68.68v2.88a.68.68,0,0,1-.68.68"/><path class="cls-4" d="M1012.55,2442h-.65a1.58,1.58,0,0,1,0-3.15h.65a1.58,1.58,0,0,1,0,3.15"/><path class="cls-4" d="M1012.55,2447h-.65a1.58,1.58,0,0,1,0-3.15h.65a1.58,1.58,0,0,1,0,3.15"/><path class="cls-4" d="M1012.55,2452.09h-.65a1.58,1.58,0,0,1,0-3.15h.65a1.58,1.58,0,0,1,0,3.15"/><path class="cls-4" d="M1018.48,2442h-.65a1.58,1.58,0,1,1,0-3.15h.65a1.58,1.58,0,0,1,0,3.15"/><path class="cls-4" d="M1018.48,2447h-.65a1.58,1.58,0,1,1,0-3.15h.65a1.58,1.58,0,0,1,0,3.15"/><path class="cls-4" d="M1018.48,2452.09h-.65a1.58,1.58,0,1,1,0-3.15h.65a1.58,1.58,0,0,1,0,3.15"/><path class="cls-4" d="M1024.41,2442h-.65a1.58,1.58,0,0,1,0-3.15h.65a1.58,1.58,0,0,1,0,3.15"/><path class="cls-4" d="M1024.41,2447h-.65a1.58,1.58,0,0,1,0-3.15h.65a1.58,1.58,0,0,1,0,3.15"/><path class="cls-4" d="M1024.41,2452.09h-.65a1.58,1.58,0,0,1,0-3.15h.65a1.58,1.58,0,0,1,0,3.15"/><path class="cls-6" d="M895.14,2414.42a5.22,5.22,0,1,0,5.22,5.22A5.22,5.22,0,0,0,895.14,2414.42Zm0,8.11a2.89,2.89,0,1,1,2.89-2.89A2.89,2.89,0,0,1,895.14,2422.53Z"/><path class="cls-2" d="M812.72,2526.17h-3.82a5.82,5.82,0,0,1-5.81-5.81v-41.14a5.82,5.82,0,0,1,5.81-5.81h3.82a2.33,2.33,0,0,1,0,4.66h-3.82a1.16,1.16,0,0,0-1.16,1.15v41.14a1.16,1.16,0,0,0,1.16,1.15h3.82a2.33,2.33,0,0,1,0,4.66"/><path class="cls-2" d="M810.32,2473.13v-2.4a1,1,0,0,1,1-1h6.27a1,1,0,0,1,1,1v57.73a1,1,0,0,1-1,1h-6.27a1,1,0,0,1-1-1v-2.25"/><path class="cls-3" d="M812.72,2526.17h-3.82a5.82,5.82,0,0,1-5.81-5.81v-41.14a5.82,5.82,0,0,1,5.81-5.81h3.82a2.33,2.33,0,0,1,0,4.66h-3.82a1.16,1.16,0,0,0-1.16,1.15v41.14a1.16,1.16,0,0,0,1.16,1.15h3.82a2.33,2.33,0,0,1,0,4.66Z"/><path class="cls-3" d="M810.32,2473.13v-2.4a1,1,0,0,1,1-1h6.27a1,1,0,0,1,1,1v57.73a1,1,0,0,1-1,1h-6.27a1,1,0,0,1-1-1v-2.25"/><line class="cls-3" x1="810.32" y1="2520.93" x2="810.32" y2="2478.09"/><path class="cls-3" d="M1067.14,2549.3H1067a1.51,1.51,0,0,1-1.4-1.51,1.5,1.5,0,0,1,.06-.44c.28-1.61,2.36-16.81,5.63-41a8.38,8.38,0,0,0-15.89-4.67l-2.5,5.33a1.5,1.5,0,1,1-2.72-1.27l2.5-5.33a11.38,11.38,0,0,1,21.58,6.34c-1,7.45-2.4,17.76-3.56,26.2-.58,4.23-1.1,8-1.48,10.69-.19,1.36-.35,2.45-.46,3.2C1068.56,2548.16,1068.39,2549.3,1067.14,2549.3Zm1.45-1.52h0Z"/><polygon class="cls-4" points="1070.59 2590.57 1082.88 2532.73 1075.36 2537 1072.1 2530.98 1065.83 2536.24 1063.57 2529.72 1058.8 2536.49 1054.54 2531.23 1053.72 2590.57 1070.59 2590.57"/><path class="cls-4" d="M1064,2496.93a8.37,8.37,0,0,1,7.32,9.43c-.82,6.09-1.57,11.61-2.23,16.49h3c.78-5.71,1.55-11.45,2.18-16.09a11.38,11.38,0,0,0-21.58-6.34l-2.5,5.33a1.5,1.5,0,1,0,2.72,1.27l2.5-5.33a8.39,8.39,0,0,1,8.57-4.77"/><rect class="cls-2" x="1037.32" y="2590.44" width="36.99" height="93.37"/><rect class="cls-3" x="1037.32" y="2590.44" width="36.99" height="93.37"/><line class="cls-3" x1="1051.78" y1="2595.44" x2="1074.1" y2="2595.44"/><line class="cls-3" x1="1051.78" y1="2678.96" x2="1074.1" y2="2678.96"/><line class="cls-3" x1="1044.51" y1="2595.44" x2="1042" y2="2595.44"/><line class="cls-3" x1="1044.51" y1="2678.96" x2="1042" y2="2678.96"/><rect class="cls-3" x="502.26" y="2684.54" width="766.56" height="6.47"/><rect class="cls-3" x="429.37" y="2719.73" width="786.56" height="6.47"/><rect class="cls-3" x="356.47" y="2754.93" width="786.56" height="6.47"/><polygon class="cls-4" points="1101.83 2690.75 523.23 2684.28 1101.83 2684.28 1101.83 2690.75"/><polygon class="cls-4" points="1100.25 2725.94 429.36 2719.47 1100.25 2719.47 1100.25 2725.94"/><polygon class="cls-4" points="1100.35 2761.14 356.47 2754.67 1100.35 2754.67 1100.35 2761.14"/><path class="cls-2" d="M888.64,2271.62a5.75,5.75,0,0,0,11.43,0"/><polyline class="cls-3" points="899.52 2244.84 899.52 2235.34 892.39 2235.34 892.39 2244.84"/><rect class="cls-3" x="894.81" y="2202.83" width="2.61" height="32.38"/><rect class="cls-3" x="393.79" y="2202.61" width="24.55" height="552.17"/><polygon class="cls-4" points="727.49 1858.03 727.49 1854.25 645.79 1854.25 645.79 1794.41 642.08 1794.41 642.08 1854.25 560.38 1854.25 560.38 1858.03 642.08 1858.03 642.08 1917.68 560.38 1917.68 560.38 1921.46 642.08 1921.46 642.08 1981.11 560.38 1981.11 560.38 1984.88 642.08 1984.88 642.08 2044.53 560.38 2044.53 560.38 2048.31 642.08 2048.31 642.08 2109.72 645.79 2109.72 645.79 2048.31 727.49 2048.31 727.49 2044.53 645.79 2044.53 645.79 1984.88 727.49 1984.88 727.49 1981.11 645.79 1981.11 645.79 1921.46 727.49 1921.46 727.49 1917.68 645.79 1917.68 645.79 1858.03 727.49 1858.03"/><line class="cls-3" x1="363.17" y1="2794.54" x2="363.17" y2="2761.35"/><line class="cls-3" x1="509.65" y1="2718.32" x2="509.65" y2="2690.99"/><line class="cls-3" x1="434.96" y1="2754.47" x2="434.96" y2="2727.14"/><path class="cls-3" d="M896.52,2244.83h0Z"/><line class="cls-3" x1="-3.62" y1="2794.76" x2="1141.34" y2="2794.76"/><path class="cls-4" d="M594.51,2795.3c24,16.17,142.82,28.46,285.76,28.46S1142,2811.48,1166,2795.3Z"/><path class="cls-4" d="M394.73,2164.64l1.54-1.14a.9.9,0,0,1,1.2.12l.8.87h0c.29-.61.85-1.8,1.42-3,.48-1,.88-1.78,1.18-2.35.55-1.05.81-1.54,1.44-1.54a.9.9,0,0,1,.59,1.57c-.33.5-1.5,2.86-2.65,5.29h.7a.9.9,0,0,1,0,1.8h-3.19a.9.9,0,0,1-.84-.59l-.24-.27-.89.66a.9.9,0,1,1-1.07-1.44"/><path class="cls-4" d="M400.55,2164.64l1.54-1.14a.9.9,0,0,1,1.2.12l.8.87h0c.29-.61.85-1.8,1.42-3,.48-1,.88-1.78,1.18-2.35.56-1.05.81-1.54,1.44-1.54a.9.9,0,0,1,.59,1.57c-.33.5-1.5,2.86-2.65,5.29h.7a.9.9,0,1,1,0,1.8h-3.19a.89.89,0,0,1-.84-.59l-.24-.27-.89.66a.9.9,0,0,1-1.26-.18.9.9,0,0,1,.19-1.26"/><path class="cls-4" d="M395.47,2155c0,2.52,2.79,4.56,6.24,4.56s6.24-2,6.24-4.56-2.79-4.56-6.24-4.56-6.24,2-6.24,4.56"/><path class="cls-4" d="M399.8,2155c0,2.52,2.79,4.56,6.24,4.56s6.24-2,6.24-4.56-2.79-4.56-6.24-4.56-6.24,2-6.24,4.56"/><path class="cls-4" d="M385.73,2134.48a50.76,50.76,0,0,1,9-11,7.13,7.13,0,1,1,10.38-6.35v15.16l12.78,12.78,13.94,1.55a2.33,2.33,0,0,1-.05,4.65l3.42,1.35a2.33,2.33,0,1,1-1.71,4.34l-3.62-1.42a2.33,2.33,0,0,1-3.17,3.42l-8.93-7.5a23.24,23.24,0,0,1-15.33,5.52c-12.58,0-21.2-15.06-16.74-22.49"/><polygon class="cls-4" points="392.47 2119.41 386.92 2117.24 392.27 2115.35 392.47 2119.41"/><path class="cls-2" d="M390,2128.46a51.38,51.38,0,0,1,4.74-5,7.13,7.13,0,1,1,10.38-6.35v11.32Z"/><path class="cls-4" d="M394.78,2117.17a.85.85,0,1,0,.85-.85.86.86,0,0,0-.85.85"/><path class="cls-2" d="M419,2150c-8.32,3.47-17.26,1.05-19.95-5.4-1.43-3.43-.81-7.31,1.34-10.71a4.28,4.28,0,0,1,7-.29c4.38,5.75,11.55,9.28,19.78,10.13A19.47,19.47,0,0,1,419,2150"/><path class="cls-3" d="M390,2128.46a51.38,51.38,0,0,1,4.74-5,7.13,7.13,0,1,1,10.38-6.35v11.32Z"/><path class="cls-3" d="M419,2150c-8.32,3.47-17.26,1.05-19.95-5.4-1.43-3.43-.81-7.31,1.34-10.71a4.28,4.28,0,0,1,7-.29c4.38,5.75,11.55,9.28,19.78,10.13A19.47,19.47,0,0,1,419,2150Z"/><path class="cls-3" d="M392.56,2448.86H357.24V2202.25a69,69,0,1,0-138.07,0v246.61H189.33V2202.25a69,69,0,1,0-138.07,0v246.61H3.18"/><path class="cls-4" d="M189.39,2214.66a69,69,0,0,0-138.07,0v-12.41a69,69,0,0,1,138.07,0v12.41"/><path class="cls-4" d="M357.29,2214.66a69,69,0,0,0-138.07,0v-12.41a69,69,0,0,1,138.07,0v12.41"/><line class="cls-3" x1="-0.82" y1="2084.03" x2="463.69" y2="2084.03"/><line class="cls-3" x1="-0.82" y1="2070.71" x2="463.69" y2="2070.71"/><rect class="cls-3" x="184.27" y="2448.86" width="39.77" height="42.71"/><polyline class="cls-3" points="393.72 2491.57 349.97 2491.57 349.97 2448.86 393.72 2448.86"/><polyline class="cls-3" points="1.65 2448.86 55.4 2448.86 55.4 2491.57 1.65 2491.57"/><polyline class="cls-3" points="14.73 2084.03 15.91 2093.23 20.4 2093.23 22.52 2084.03"/><polyline class="cls-3" points="47.09 2084.03 48.27 2093.23 52.76 2093.23 54.88 2084.03"/><polyline class="cls-3" points="79.45 2084.03 80.63 2093.23 85.12 2093.23 87.24 2084.03"/><polyline class="cls-3" points="111.81 2084.03 112.99 2093.23 117.48 2093.23 119.6 2084.03"/><polyline class="cls-3" points="144.17 2084.03 145.35 2093.23 149.84 2093.23 151.96 2084.03"/><polyline class="cls-3" points="176.54 2084.03 177.72 2093.23 182.2 2093.23 184.32 2084.03"/><polyline class="cls-3" points="208.9 2084.03 210.08 2093.23 214.56 2093.23 216.69 2084.03"/><polyline class="cls-3" points="241.26 2084.03 242.44 2093.23 246.92 2093.23 249.05 2084.03"/><polyline class="cls-3" points="273.62 2084.03 274.8 2093.23 279.28 2093.23 281.41 2084.03"/><polyline class="cls-3" points="305.98 2084.03 307.16 2093.23 311.64 2093.23 313.77 2084.03"/><polyline class="cls-3" points="338.34 2084.03 339.52 2093.23 344.01 2093.23 346.13 2084.03"/><polyline class="cls-3" points="370.7 2084.03 371.88 2093.23 376.37 2093.23 378.49 2084.03"/><polyline class="cls-3" points="403.06 2084.03 404.24 2093.23 408.73 2093.23 410.85 2084.03"/><polyline class="cls-3" points="435.42 2084.03 436.61 2093.23 441.09 2093.23 443.21 2084.03"/><path class="cls-4" d="M466.06,2071.93a2.38,2.38,0,0,1-1.28-.77,2.46,2.46,0,0,1-.43-.61,1.56,1.56,0,0,1-.16-.67H0v4.61H466.47v-2.55a1.74,1.74,0,0,1-.41,0"/><line class="cls-3" x1="0.19" y1="2491.86" x2="392.83" y2="2491.86"/><line class="cls-3" x1="0.19" y1="2571.31" x2="392.83" y2="2571.31"/><line class="cls-3" x1="0.19" y1="2581" x2="392.83" y2="2581"/><line class="cls-3" x1="418.39" y1="2571.31" x2="462.58" y2="2571.31"/><line class="cls-3" x1="418.39" y1="2581" x2="462.56" y2="2581"/><polyline class="cls-3" points="0.17 1860.44 267.66 1860.44 267.66 1877.59 -0.31 1877.59"/><line class="cls-3" x1="261.64" y1="2069.73" x2="261.64" y2="1876.97"/><line class="cls-3" x1="261.6" y1="2427.84" x2="261.64" y2="2144.6"/><polyline class="cls-3" points="219.37 2428.97 272.82 2428.97 272.82 2491.6"/><line class="cls-3" x1="189.1" y1="2427.8" x2="51.68" y2="2427.8"/><line class="cls-3" x1="286.86" y1="2069.79" x2="463.14" y2="1937.38"/><line class="cls-3" x1="302.59" y1="2070.4" x2="463.14" y2="1949.79"/><line class="cls-3" x1="331.55" y1="2034.21" x2="331.55" y2="1961.38"/><polyline class="cls-3" points="430.34 1960.55 324.93 1960.55 324.93 1922.48 462.62 1922.48"/><path class="cls-4" d="M421,2013.1A20.9,20.9,0,1,0,441.9,2034,20.89,20.89,0,0,0,421,2013.1M419.69,2051a17.1,17.1,0,0,1,0-34.09Zm2.56-34.1A17.11,17.11,0,0,1,437,2028H422.25Zm0,34.11v-20.5h15.51a17.1,17.1,0,0,1-15.51,20.5"/><polygon class="cls-4" points="328.43 2531.87 387.62 2531.87 392.62 2527.34 333.43 2527.34 328.43 2531.87"/><polygon class="cls-4" points="463.93 2527.35 452.32 2527.35 447.33 2531.87 463.93 2531.87 463.93 2527.35"/><polygon class="cls-4" points="220.9 2531.87 280.1 2531.87 285.09 2527.34 225.9 2527.34 220.9 2531.87"/><polygon class="cls-4" points="113.38 2531.87 172.57 2531.87 177.57 2527.34 118.38 2527.34 113.38 2531.87"/><polygon class="cls-4" points="5.86 2531.87 65.05 2531.87 70.05 2527.34 10.85 2527.34 5.86 2531.87"/><rect class="cls-4" x="370.65" y="2167.08" width="983.5" height="17.97"/><rect class="cls-4" x="393.79" y="2202.61" width="10.36" height="552.17"/><polyline class="cls-6" points="991.19 2489.48 991.19 2683.81 773.76 2683.81 773.76 2521.11"/></g><g class="cls-7"><path class="cls-2" d="M498.28,2110h9.43s25.51-97.18,25.51-204.71V1794.34H498.28Z"/><path class="cls-2" d="M726.47,2110H717s-25.51-97.18-25.51-204.71V1794.34h34.94Z"/></g><g class="cls-5"><path class="cls-6" d="M723,2102.48s-18.62-121.24-18.21-197.38"/><line class="cls-6" x1="716.38" y1="1950.21" x2="716.38" y2="1837.24"/><path class="cls-8" d="M567,2080.14s13.24-67,15.31-122.07"/><line class="cls-8" x1="583.14" y1="1884.41" x2="583.14" y2="1826.07"/><path class="cls-8" d="M570.72,1893.1s5.79,61.24-3.73,110.9"/><path class="cls-4" d="M990.06,2110h-72.3s-25.51-97.18-25.51-204.71V1794.34h97.81Z"/><rect class="cls-3" x="787.75" y="2110.4" width="225.19" height="17.94"/><polygon class="cls-4" points="1012.94 2128.34 787.75 2128.34 1012.94 2139.3 1012.94 2128.34"/><rect class="cls-3" x="813.91" y="1793.81" width="175.98" height="316.42"/><rect class="cls-3" x="804.4" y="1784.53" width="194.55" height="325.7"/><path class="cls-4" d="M989.42,1858v-3.78h-81.7v-59.84H904v59.84H824.2a1.89,1.89,0,0,0,0,3.78H904v59.65H824.2a1.89,1.89,0,0,0,0,3.78H904v59.65H824.2a1.89,1.89,0,0,0,0,3.78H904v59.65H824.2a1.89,1.89,0,0,0,0,3.78H904v61.41h3.7v-61.41h81.7v-3.78h-81.7v-59.65h81.7v-3.78h-81.7v-59.65h81.7v-3.78h-81.7V1858Z"/></g><g class="cls-9"><path class="cls-2" d="M988.4,2110H917.89s-25.51-97.18-25.51-204.71V1794.34h96Z"/></g><g class="cls-5"><path class="cls-6" d="M974.29,2102.48s-18.62-121.24-18.21-197.38"/><line class="cls-6" x1="978.31" y1="1950.21" x2="978.31" y2="1837.24"/><path class="cls-4" d="M1083.8,2110h9.43s25.51-97.18,25.51-204.71V1794.34H1083.8Z"/><rect class="cls-3" x="1049.68" y="2110.4" width="225.19" height="17.94"/><polygon class="cls-4" points="1274.87 2128.34 1049.68 2128.34 1274.87 2139.3 1274.87 2128.34"/><rect class="cls-2" x="1075.84" y="1793.81" width="7.78" height="316.42"/><rect class="cls-3" x="1075.85" y="1793.81" width="175.98" height="316.42"/><rect class="cls-3" x="1066.33" y="1784.53" width="194.55" height="325.7"/><polygon class="cls-4" points="1251.35 1858.03 1251.35 1854.25 1169.65 1854.25 1169.65 1794.41 1165.94 1794.41 1165.94 1854.25 1084.24 1854.25 1084.24 1858.03 1165.94 1858.03 1165.94 1917.68 1084.24 1917.68 1084.24 1921.46 1165.94 1921.46 1165.94 1981.11 1084.24 1981.11 1084.24 1984.88 1165.94 1984.88 1165.94 2044.53 1084.24 2044.53 1084.24 2048.31 1165.94 2048.31 1165.94 2109.72 1169.65 2109.72 1169.65 2048.31 1251.35 2048.31 1251.35 2044.53 1169.65 2044.53 1169.65 1984.88 1251.35 1984.88 1251.35 1981.11 1169.65 1981.11 1169.65 1921.46 1251.35 1921.46 1251.35 1917.68 1169.65 1917.68 1169.65 1858.03 1251.35 1858.03"/></g><g class="cls-10"><path class="cls-2" d="M1083.8,2110h9.43s25.51-97.18,25.51-204.71V1794.34H1083.8Z"/></g><path class="cls-6" d="M1090.86,2080.14s13.24-67,15.31-122.07"/><path class="cls-6" d="M1094.59,1893.1s5.79,61.24-3.73,110.9"/><line class="cls-6" x1="970.2" y1="2674.6" x2="802.26" y2="2674.6"/><line class="cls-6" x1="970.2" y1="2340.43" x2="802.26" y2="2340.43"/><path class="cls-6" d="M932,1820.67s-3.94,99.82,3.44,132.77"/><line class="cls-6" x1="950.69" y1="2076.37" x2="952.16" y2="2087.68"/><rect class="cls-4" x="832.05" y="2087.51" width="19.91" height="22.75"/><path class="cls-3" d="M852.21,2107.27a11.37,11.37,0,0,1-1.92-.17l.61-3.6c3.91.66,6.41-1.72,7.43-7.07a2.93,2.93,0,0,0-4.87-2.64l-3.33,3.08-2.48-2.69,3.33-3.08a6.58,6.58,0,0,1,10.94,6C860.68,2103.67,857.19,2107.27,852.21,2107.27Z"/><path class="cls-4" d="M14.79,2491.12H13.53c-.85-4.23-3.16-14.48-6.72-21l-.27.15-.27.15c3.49,6.41,5.77,16.47,6.63,20.74h-.84a4.7,4.7,0,0,0-1.58-2.23c-1.59-1-3.67-2.09-2.75-3.93s2.34-2.25.41-4-5.84-3.09-4.34-5.18,2.67-2.5,2-3.92-4.59-4.85-2.42-7.26,5.34,1.59,5.84,5.76.92,2.17,3.17,4.76.33,4.59.84,7.1,2.58,1.17,2.92,4.34c.28,2.63-1.33,2.63-1.38,4.57"/><path class="cls-4" d="M24.52,2483.87c.16,3.43-1.34,3.17-3.17,4.59a3.2,3.2,0,0,0-1.23,2.65h-.69c.47-5.2,3.65-15.09,3.69-15.2l-.09,0-.21-.08-.29-.09c-.14.45-3.27,10.14-3.72,15.39H18a3.69,3.69,0,0,0,.15-2.57c-.5-1.75-1.59-2.92-.84-4.76s3.51-1.84,2.59-4.35-1.75-4.51,1.42-5.92.83-3.34,2.84-4.34,1.67,2.75.25,7-.08,4.26.09,7.68"/><path class="cls-4" d="M7.21,2491.12H6.36l-.19-.59a1,1,0,0,0,0-.13c0-.12-.08-.24-.12-.37a38.06,38.06,0,0,0-2.36-5.44v0c-.3-.62-.52-1-.55-1.1l-.07,0,0-.05-.15.15-.27.14a57,57,0,0,1,3.17,7.36H4.88l-.48-.56c-2.17-2.5-3.92-3.59-2.42-4s.5-1.59-1.83-5.26-.92-5.76.5-4.35,0,2.92,1.42,4.09,2-.25,3.42,3.34a31.8,31.8,0,0,1,1.74,6.74"/><path class="cls-4" d="M29.1,2489a12.32,12.32,0,0,0-2.37,2.15H26c.54-2.28,1.62-5.49,1.64-5.53l-.29-.1-.29-.1c-.06.18-1.16,3.42-1.68,5.73h-.48a59.87,59.87,0,0,1,1.56-7.33c1-3.26,3-5.1,3.51-2.93s-2.92,3.26-1.17,4.59,2.5,1.75.34,3.51"/><rect class="cls-4" x="86.17" y="2471.03" width="10.38" height="5.78"/><rect class="cls-4" x="97.76" y="2471.03" width="10.38" height="5.78"/><rect class="cls-4" x="86.17" y="2464.36" width="10.38" height="5.47"/><rect class="cls-4" x="74.75" y="2464.36" width="10.21" height="5.47"/><rect class="cls-4" x="74.75" y="2471.03" width="10.21" height="5.78"/><rect class="cls-4" x="66.65" y="2471.03" width="6.89" height="5.78"/><path class="cls-4" d="M125.39,2464.36H121v5.47h6.58v-3.26a2.2,2.2,0,0,0-2.2-2.2"/><rect class="cls-4" x="109.43" y="2471.03" width="10.22" height="5.78"/><rect class="cls-4" x="97.76" y="2464.36" width="10.38" height="5.47"/><path class="cls-4" d="M73.54,2478.09H66.65v3.37a2.2,2.2,0,0,0,2.2,2.2h4.69Z"/><path class="cls-4" d="M73.54,2464.36H68.85a2.2,2.2,0,0,0-2.2,2.2v3.26h6.89Z"/><rect class="cls-4" x="121.01" y="2471.03" width="6.58" height="5.78"/><path class="cls-4" d="M121,2478.09v5.57h4.38a2.2,2.2,0,0,0,2.2-2.2v-3.37Z"/><rect class="cls-4" x="109.43" y="2464.36" width="10.22" height="5.47"/><rect class="cls-4" x="86.17" y="2478.09" width="10.38" height="5.57"/><rect class="cls-4" x="109.43" y="2478.09" width="10.22" height="5.57"/><rect class="cls-4" x="74.75" y="2478.09" width="10.21" height="5.57"/><rect class="cls-4" x="97.76" y="2478.09" width="10.38" height="5.57"/><rect class="cls-4" x="223.74" y="2471.03" width="7.7" height="5.78"/><rect class="cls-4" x="232.65" y="2471.03" width="10.38" height="5.78"/><rect class="cls-4" x="223.74" y="2464.36" width="7.7" height="5.47"/><path class="cls-4" d="M260.29,2464.36h-4.38v5.47h6.58v-3.26a2.2,2.2,0,0,0-2.2-2.2"/><rect class="cls-4" x="244.32" y="2471.03" width="10.22" height="5.78"/><rect class="cls-4" x="232.65" y="2464.36" width="10.38" height="5.47"/><rect class="cls-4" x="255.91" y="2471.03" width="6.58" height="5.78"/><path class="cls-4" d="M255.91,2478.09v5.57h4.38a2.2,2.2,0,0,0,2.2-2.2v-3.37Z"/><rect class="cls-4" x="244.32" y="2464.36" width="10.22" height="5.47"/><rect class="cls-4" x="223.74" y="2478.09" width="7.7" height="5.57"/><rect class="cls-4" x="244.32" y="2478.09" width="10.22" height="5.57"/><rect class="cls-4" x="232.65" y="2478.09" width="10.38" height="5.57"/><rect class="cls-3" x="11.8" y="1921.12" width="26.74" height="39.02"/><rect class="cls-3" x="9.62" y="1960.16" width="31.7" height="3.13"/><line class="cls-3" x1="14.67" y1="1931.85" x2="38.27" y2="1931.85"/><line class="cls-3" x1="25.28" y1="1959.93" x2="25.28" y2="1922.71"/><polygon class="cls-4" points="41.61 1965.03 41.61 1963.29 9.62 1963.29 41.61 1965.03"/><rect class="cls-3" x="47.75" y="1921.12" width="26.74" height="39.02"/><rect class="cls-3" x="45.57" y="1960.16" width="31.7" height="3.13"/><line class="cls-3" x1="50.63" y1="1931.85" x2="74.22" y2="1931.85"/><line class="cls-3" x1="61.23" y1="1959.93" x2="61.23" y2="1922.71"/><polygon class="cls-4" points="77.56 1965.03 77.56 1963.29 45.58 1963.29 77.56 1965.03"/><rect class="cls-3" x="116.43" y="1921.12" width="26.74" height="39.02"/><rect class="cls-3" x="114.25" y="1960.16" width="31.7" height="3.13"/><line class="cls-3" x1="119.3" y1="1931.85" x2="142.9" y2="1931.85"/><line class="cls-3" x1="129.91" y1="1959.93" x2="129.91" y2="1922.71"/><polygon class="cls-4" points="146.24 1965.03 146.24 1963.29 114.25 1963.29 146.24 1965.03"/><rect class="cls-3" x="152.39" y="1921.12" width="26.74" height="39.02"/><rect class="cls-3" x="150.21" y="1960.16" width="31.7" height="3.13"/><line class="cls-3" x1="155.26" y1="1931.85" x2="178.85" y2="1931.85"/><line class="cls-3" x1="165.87" y1="1959.93" x2="165.87" y2="1922.71"/><polygon class="cls-4" points="182.2 1965.03 182.2 1963.29 150.21 1963.29 182.2 1965.03"/><rect class="cls-3" x="218.16" y="1921.12" width="26.74" height="39.02"/><rect class="cls-3" x="215.98" y="1960.16" width="31.7" height="3.13"/><line class="cls-3" x1="221.03" y1="1931.85" x2="244.62" y2="1931.85"/><line class="cls-3" x1="231.64" y1="1959.93" x2="231.64" y2="1922.71"/><polygon class="cls-4" points="247.96 1965.03 247.96 1963.29 215.98 1963.29 247.96 1965.03"/><rect class="cls-3" x="11.8" y="2001.39" width="26.74" height="39.02"/><rect class="cls-3" x="9.62" y="2040.43" width="31.7" height="3.13"/><line class="cls-3" x1="14.67" y1="2012.13" x2="38.27" y2="2012.13"/><line class="cls-3" x1="25.28" y1="2040.2" x2="25.28" y2="2002.98"/><polygon class="cls-4" points="41.61 2045.31 41.61 2043.57 9.62 2043.57 41.61 2045.31"/><rect class="cls-3" x="47.75" y="2001.39" width="26.74" height="39.02"/><rect class="cls-3" x="45.57" y="2040.43" width="31.7" height="3.13"/><line class="cls-3" x1="50.63" y1="2012.13" x2="74.22" y2="2012.13"/><line class="cls-3" x1="61.23" y1="2040.2" x2="61.23" y2="2002.98"/><polygon class="cls-4" points="77.56 2045.31 77.56 2043.57 45.58 2043.57 77.56 2045.31"/><rect class="cls-3" x="116.43" y="2001.39" width="26.74" height="39.02"/><rect class="cls-3" x="114.25" y="2040.43" width="31.7" height="3.13"/><line class="cls-3" x1="119.3" y1="2012.13" x2="142.9" y2="2012.13"/><line class="cls-3" x1="129.91" y1="2040.2" x2="129.91" y2="2002.98"/><polygon class="cls-4" points="146.24 2045.31 146.24 2043.57 114.25 2043.57 146.24 2045.31"/><rect class="cls-3" x="152.39" y="2001.39" width="26.74" height="39.02"/><rect class="cls-3" x="150.21" y="2040.43" width="31.7" height="3.13"/><line class="cls-3" x1="155.26" y1="2012.13" x2="178.85" y2="2012.13"/><line class="cls-3" x1="165.87" y1="2040.2" x2="165.87" y2="2002.98"/><polygon class="cls-4" points="182.2 2045.31 182.2 2043.57 150.21 2043.57 182.2 2045.31"/><rect class="cls-3" x="218.16" y="2001.39" width="26.74" height="39.02"/><rect class="cls-3" x="215.98" y="2040.43" width="31.7" height="3.13"/><line class="cls-3" x1="221.03" y1="2012.13" x2="244.62" y2="2012.13"/><line class="cls-3" x1="231.64" y1="2040.2" x2="231.64" y2="2002.98"/><polygon class="cls-4" points="247.96 2045.31 247.96 2043.57 215.98 2043.57 247.96 2045.31"/><path class="cls-3" d="M286,2490v-21.39a2.82,2.82,0,1,1,5.65,0v22.2"/><path class="cls-3" d="M307.87,2354.42h0a19.31,19.31,0,0,0-19.31,19.31v91"/><path class="cls-3" d="M331.51,2356.33h-24a3.79,3.79,0,0,1,3.8-3.79h16.43A3.8,3.8,0,0,1,331.51,2356.33Z"/><polygon class="cls-4" points="0.24 1883.31 261.58 1877.68 0.24 1877.68 0.24 1883.31"/><polygon class="cls-4" points="331.27 1967.01 430.96 1960.99 331.27 1960.99 331.27 1967.01"/><line class="cls-3" x1="419" y1="2492.48" x2="463.96" y2="2492.48"/><path class="cls-4" d="M561.14,2342.77v-5.9H551.06v-1.93l9.67-13.84h3.17v13.48h3v2.3h-3v5.9Zm0-8.21v-7.24q0-1.7.1-3.4h-.1c-.67,1.27-1.2,2.2-1.8,3.2l-5.3,7.37v.07Z"/><polygon class="cls-4" points="583.25 2321.09 583.25 2323.02 573.81 2342.77 570.77 2342.77 580.18 2323.59 580.18 2323.52 569.57 2323.52 569.57 2321.09 583.25 2321.09"/><line class="cls-6" x1="393.14" y1="2608.55" x2="393.14" y2="2498.37"/><rect class="cls-2" x="498.18" y="2660.85" width="178.63" height="2.47"/><line class="cls-3" x1="463.78" y1="2177.38" x2="463.78" y2="-4"/><line class="cls-3" x1="463.78" y1="2638.62" x2="463.78" y2="2202.21"/><line class="cls-3" x1="463.78" y1="2719.17" x2="463.78" y2="2635.31"/><rect class="cls-3" x="538.83" y="2304.79" width="54.69" height="54.69" rx="13.07" ry="13.07"/><rect class="cls-3" x="543.83" y="2309.79" width="44.69" height="44.69" rx="8.07" ry="8.07"/><path class="cls-8" d="M594.88,1794.34v160.37c0,37.65-16.39,139.75-25.51,155.29"/><g class="cls-5"><path class="cls-4" d="M691.55,2550.21c0,74.28-39.43,134.49-88.06,134.49s-88.06-60.21-88.06-134.49,39.43-134.49,88.06-134.49,88.06,60.21,88.06,134.49"/><path class="cls-4" d="M584.69,2418.82l-166.05,69v131.74l168.23,63.2,30.4-74.93c22.55-125.3-32.58-189-32.58-189"/><polygon class="cls-4" points="404.19 2493.88 285.55 2540.75 285.55 2568.73 404.19 2614.07 404.19 2493.88"/><path class="cls-6" d="M574.73,2677.37c-34.52-18.2-59.31-68.26-59.31-127.15,0-54.35,21.11-101.16,51.49-122.37"/><rect class="cls-6" x="463.89" y="2627.83" width="30.85" height="15.55" rx="2.07" ry="2.07"/><rect class="cls-6" x="463.89" y="2609.42" width="18.41" height="15.55" rx="2.07" ry="2.07"/><line class="cls-6" x1="466.81" y1="2625.11" x2="466.81" y2="2627.44"/><line class="cls-6" x1="466.81" y1="2643.57" x2="466.81" y2="2645.89"/><rect class="cls-6" x="463.89" y="2591.16" width="30.85" height="15.56" rx="2.07" ry="2.07"/><rect class="cls-6" x="463.89" y="2572.76" width="18.41" height="15.55" rx="2.07" ry="2.07"/><line class="cls-6" x1="466.81" y1="2588.45" x2="466.81" y2="2590.77"/><line class="cls-6" x1="466.81" y1="2606.9" x2="466.81" y2="2609.23"/><rect class="cls-6" x="463.89" y="2554.5" width="30.85" height="15.55" rx="2.07" ry="2.07"/><path class="cls-6" d="M466,2536.09h14.26a2.07,2.07,0,0,1,2.07,2.07v11.41a2.08,2.08,0,0,1-2.08,2.08H466a2.07,2.07,0,0,1-2.07-2.07v-11.41A2.07,2.07,0,0,1,466,2536.09Z"/><line class="cls-6" x1="466.81" y1="2551.78" x2="466.81" y2="2554.1"/><line class="cls-6" x1="466.81" y1="2570.24" x2="466.81" y2="2572.56"/><rect class="cls-6" x="463.89" y="2517.83" width="30.85" height="15.55" rx="2.07" ry="2.07"/><rect class="cls-6" x="463.89" y="2499.42" width="18.41" height="15.55" rx="2.07" ry="2.07"/><line class="cls-6" x1="466.81" y1="2515.11" x2="466.81" y2="2517.44"/><line class="cls-6" x1="466.81" y1="2533.57" x2="466.81" y2="2535.89"/><rect class="cls-6" x="463.89" y="2481.16" width="30.85" height="15.55" rx="2.07" ry="2.07"/><path class="cls-6" d="M482.3,2461.58v14.66a2.07,2.07,0,0,1-2.07,2.07H466a2.07,2.07,0,0,1-2.07-2.07v-7.35"/><line class="cls-6" x1="466.81" y1="2478.45" x2="466.81" y2="2480.77"/><line class="cls-6" x1="466.81" y1="2496.9" x2="466.81" y2="2499.23"/><line class="cls-6" x1="418.39" y1="2571.31" x2="466.74" y2="2571.31"/><line class="cls-6" x1="418.39" y1="2581" x2="463.41" y2="2580.69"/><line class="cls-6" x1="392.81" y1="2571.31" x2="292.11" y2="2571.31"/><line class="cls-6" x1="392.94" y1="2581.3" x2="312.53" y2="2581"/><line class="cls-6" x1="418.72" y1="2492.41" x2="463.96" y2="2492.41"/></g><g class="cls-5"><path class="cls-4" d="M337.39,2446.45c-.13.13,1.63,6.48,2.19,6.77a3.34,3.34,0,0,0,3.4-.34c1-1,1.53-4.77,1.53-4.77s-.08-5.49-.21-5.23-3.26,5.53-3.26,5.53l-1-3Z"/><path class="cls-4" d="M339.75,2446.58l.13-1.33-.26-1.71-1.54-1.12-1.24.73a4.56,4.56,0,0,0,0,1.07s.86.13.81.3a1.55,1.55,0,0,0,.3,1.67,1.75,1.75,0,0,0,1.84.39"/><path class="cls-4" d="M335.2,2491.12a.15.15,0,0,0,.1.23c.54.06,1.92.2,2.82.2h5.18a11,11,0,0,0-.15-1.48,3.24,3.24,0,0,0-.57-1.05,6.58,6.58,0,0,0-2.78-.3c-.84.3-2.93,1.61-3.66,1.75a1.52,1.52,0,0,0-.94.65"/><path class="cls-4" d="M347,2491.64s2-1.32,2.28-2.43,1.26-4.14,1.46-4.79a.15.15,0,0,0-.07-.17,4.39,4.39,0,0,0-1.44-.54,3.26,3.26,0,0,0-1.16.3s-1.37,1.3-1.28,2.18.74,3.47.33,4.08a1.64,1.64,0,0,0-.12,1.36"/><path class="cls-4" d="M342,2457.73l-.17.69a8.16,8.16,0,0,0-1.67,3.22c-.51,2-.17,20.45-.17,20.75s-.69,2.74-.69,2.74l.64,1.29-.86,2.14a7.56,7.56,0,0,0,2.57,1.37c1.07.17,2-1.67,1.72-2.19s-.47-1.5-.21-1.63,0-1.37.13-2.66,2-14.92,2.23-16.08,1.76-7.67,1.63-7.8-5.15-1.84-5.15-1.84"/><path class="cls-4" d="M345.33,2459.83s-3.22,4.42-5,7.63a68.05,68.05,0,0,0-3.34,6.39c-.17.6.86,1.76,1.46,2.4s4.46,5.27,5.32,6,1.37,1.46,1.33,1.93,1,1.71,1,1.71a21.27,21.27,0,0,1,2.49-1.37,1,1,0,0,0,.69-.77l-.17-1.54a6.92,6.92,0,0,1-1-.6c-.09-.13,0-1.16-.34-1.54a9.6,9.6,0,0,1-1.71-1.67,44.58,44.58,0,0,0-2.79-3.56c-.69-.69-1.33-1.24-1.33-1.24s4.89-6.95,6.13-8.06a9.68,9.68,0,0,0,2.19-3.73,3.54,3.54,0,0,0-.17-2l-7.63-1.8Z"/><polygon class="cls-2" points="347.34 2462.1 345.63 2463.82 344.98 2460.9 345.37 2460.13 347.34 2462.1"/><polygon class="cls-4" points="348.03 2461.89 347.56 2462.45 345.11 2460.17 345.33 2459.83 348.03 2461.89"/><path class="cls-4" d="M350.43,2442.16a4,4,0,0,0-2.1,3.77c.3,2.23,1.37,6.9,1.37,6.9l-4.37,7,2.91,2.23s4.76-6,5.19-7.55.39-8.53-.17-10.16-1.2-2.45-2.83-2.19"/><path class="cls-4" d="M348.33,2464.12a27.75,27.75,0,0,0,3.26-.13c0-.13.69-7.5.64-9.56s.09-12-.73-12.26a13.17,13.17,0,0,1-2.32-1.46l.21-1.59-4.46,3.47-.81-.73.13,1.93s-1.76,9.26-2.32,11.06a23.35,23.35,0,0,0-.73,4.37,2.18,2.18,0,0,0,.6-.82,6.51,6.51,0,0,1,.34-.73l5,1.41Z"/><path class="cls-4" d="M345.64,2442.43s0,0,0,0,0,0,0,0"/><path class="cls-4" d="M348.93,2439.8s-3,2.33-3.29,2.63a7.42,7.42,0,0,0-.57-1.13s-.77.39-1.16-.21-.77-1.33-.77-1.33a1.33,1.33,0,0,1-.6-.13c-.11-.08-.06-.71-.12-1.26a1.41,1.41,0,0,0-.22-.71l0,0c-.35-.5,0-1.83,0-2,.81-1.93,4.84-1.37,5-1.2s.86,4.16.94,4.63.77.73.77.73"/><path class="cls-4" d="M339.88,2437.53s2.06,0,5-.13,4.59-.94,4.93-1.33-2.06-.56-2.06-.56-.69-1.46-.9-1.93a1.2,1.2,0,0,0-1.67-.3c-.47.43-.81.81-1.37.64s-1.11-.51-1.33,0-.43,3-.6,3-2.06.3-2,.6"/><path class="cls-2" d="M346.39,2437.36a18.94,18.94,0,0,1-4,1,1.39,1.39,0,0,0-.23-.71l-.11-.18Z"/><polygon class="cls-2" points="345.2 2443.6 343.98 2455.41 342.92 2456.79 343 2454.75 345.2 2443.6"/><path class="cls-11" d="M347.56,2462.45c.17-.29,6.55-7.49,6.55-7.49"/><path class="cls-11" d="M347.1,2467.37c-.08.57-5.41,5.77-5.2,6.18s2.7,2.53,3.5,3.43"/><path class="cls-11" d="M338.29,2469.77c1-1,4.8-6.8,4.8-6.8l-.33-.65"/><path class="cls-11" d="M349,2464.28c-.16,0-2.2-.24-2.2-.24l-.08-1.79"/><polygon class="cls-2" points="346.91 2485.6 349.19 2483.97 346.5 2487.31 346.91 2485.6"/><path class="cls-2" d="M339.42,2488.93a10.45,10.45,0,0,0,3.42.57c1.22-.16.57.9.57.9s-3-.65-4-1.47"/><path class="cls-2" d="M343.74,2482.21s-4.07-4.59-4.15-4.51a2.79,2.79,0,0,0,.41,1.3c.24.41,3.5,6.27,3.5,6.27Z"/><path class="cls-2" d="M345.07,2441.3l.07-.06a13.69,13.69,0,0,0,1.33-1.19,1.32,1.32,0,0,0,.1-.77,2.66,2.66,0,0,1,.26.87c0,.49-1.64,2.18-1.64,2.18"/><path class="cls-2" d="M342.26,2453.45s1.25-6.88,1.21-6.56-2.13,6.6-2.13,6.6Z"/><path class="cls-4" d="M334.84,2440.89s-.6-12.4-5.56-13-7.61-2.17-9.81-6.62S321,2409,321,2409s-2.11,9.84,6.93,13.27,6.93,18.58,6.93,18.58"/><polygon class="cls-4" points="335.99 2442.51 336.11 2442.16 338.96 2443.04 338.83 2443.39 335.99 2442.51"/><path class="cls-12" d="M336.2,2442.21a.24.24,0,1,1-.32-.14.24.24,0,0,1,.32.14"/></g><g class="cls-5"><path class="cls-2" d="M13.68,2676.73c0,1,.79,20.95,2.15,31.13a65.42,65.42,0,0,0,4.87,17.61s.2.77,1.75.58a20,20,0,0,0,3.78-1l0,0,0,0c.17-.12,4.35-3,5-7.28.57-4,4.87-23.84,4.91-24a.51.51,0,0,0-.08-.4.5.5,0,0,0-.37-.2,6,6,0,0,1-.71-.13.48.48,0,0,0,.17-.32c0-.15.54-3.53,5.68-4.24a.3.3,0,0,0,.13,0,18.94,18.94,0,0,0,4.71,4.61.53.53,0,0,0,.27.08l.13,0c4.84-1.29,64.77-18.35,79.46-25.47,5.95-2.89,12.76-12.66,14.44-20.32.51,6.28.81,12.44.81,18.24,0,30.36,1.36,83.06,1.37,83.59a.51.51,0,0,0,.47.49c.22,0,1.92.12,4.36.13a40.67,40.67,0,0,1,.54,6.2,1.91,1.91,0,0,0-1.9,1c-1.76,2.73-2,8.66-2,9.18l-.67,3.33a2.43,2.43,0,0,0,.42,1.88H97a.35.35,0,0,0,0-.1c-2.8-17.59-13.34-29.52-19.74-33.24-2.3-1.34-4.21-1.78-5.55-1.28-.59.22-1.38.6-1.51,1.36-.17,1.1,1.12,2.14,3.27,3.87,2.81,2.25,7.05,5.66,9.34,10.75a64.39,64.39,0,0,1,5.07,18.64H85.75a29.8,29.8,0,0,0-48-23.1,4.49,4.49,0,0,0,4.52,7.68,21,21,0,1,0,34,21.16,4.5,4.5,0,0,0,3.58,4.26,4.69,4.69,0,0,0,.91.09H251.13a.52.52,0,0,0,.38-.17,4.5,4.5,0,0,0,3.3-4.2,21,21,0,1,0,34-21.16,4.45,4.45,0,0,0,1.78.39,4.48,4.48,0,0,0,4.47-5.06,4.44,4.44,0,0,0-1.71-3,29.55,29.55,0,0,0-13.16-5.77l-1.26-16.57a7.16,7.16,0,0,0-7.11-6.59,6.06,6.06,0,0,0-.85.05l-.17,0L260.84,2557a11.84,11.84,0,0,0,.78,2.43,14.8,14.8,0,0,0,12.7,9.29v.11a1.75,1.75,0,0,0,.65,1.36,1.71,1.71,0,0,0,1.11.4,2.09,2.09,0,0,0,.35,0l4.6-.92a1.77,1.77,0,0,0,1.41-1.73v-27.71a1.76,1.76,0,0,0-1.41-1.73l-4.6-.92a1.76,1.76,0,0,0-2.11,1.72v.11a14.79,14.79,0,0,0-13.7,14l-.09-1.35a.49.49,0,0,0,.27-.43.53.53,0,0,0-.32-.47l-1.22-19.88a6.35,6.35,0,0,0,1.31-1,4.21,4.21,0,0,0,1.55,3.22,1.55,1.55,0,0,0,.77.23,1.3,1.3,0,0,0,1-.52c.12-.16,2-2.5,3.49-4.59a3.19,3.19,0,0,0,2.67,1.09h.38a.5.5,0,0,0,.37-.21c.61-.86,6-8.48,6.09-10.67.12-2.49-6.16-7.71-7.5-8.28a10.34,10.34,0,0,0-2.19-.57,13.24,13.24,0,0,0-8.17-3.45c-4.37-.35-10.62-.6-12.54-.67l.42-1.45a.49.49,0,0,0-.3-.61A146.88,146.88,0,0,1,224.5,2493a71.45,71.45,0,0,0-22-8.54c.05-4.81.31-44.5-4.22-58.2-.74-8.33-3.05-11.49-4.05-12.48.74-.76,2.48-2.59,4.29-4.87,2.46-3.08,3.25-10.29,3.28-10.6a.5.5,0,0,0-.39-.54s-.95-.22-2.49-.74a11.41,11.41,0,0,1,7.7-6.38,13.27,13.27,0,0,0,4.42.86,6.76,6.76,0,0,0,4.14-1.23c1.18-.88,7.29-10.49,8.12-16.05,4.35.53,6.34-1.64,6.43-1.74a.49.49,0,0,0,.11-.45c0-.14-3.48-14.45-3.48-17.1s1.69-6.5,1.71-6.54a.49.49,0,0,0-.08-.52,5.09,5.09,0,0,0,3-1.67,12.13,12.13,0,0,0,10.16-2,6.88,6.88,0,0,0,2.51-6.64,4.29,4.29,0,0,0-2.34-3.62c-2-.93-4.87,0-6.87.92.25-4.64-.53-17.55-15.14-26.5-12.71-7.79-34.59-3.78-40.39-1.21-2.61,1.16-7.56,1.48-12.2,1.46a1.5,1.5,0,0,0-.84,2.7.51.51,0,0,0,0,.45c2.88,5.47.07,7.82,0,7.92s0,0,0,0l-1.3-.18a1.25,1.25,0,0,0-.59,2.4l.11,0a.48.48,0,0,0,.16.45,2.77,2.77,0,0,1,1.2,2.46,4.55,4.55,0,0,1-2,2.75,1.72,1.72,0,0,0-.77.51c-.2.12-.4.22-.59.32a.47.47,0,0,0-.27.33.51.51,0,0,0,.09.43,3.9,3.9,0,0,1,.3.43,1.77,1.77,0,0,0,.53,1,13.66,13.66,0,0,1,.58,6.38.45.45,0,0,0,0,.26,1.47,1.47,0,0,0,.16,2.51l7.17,3.7c-1.48,1.36-4.15,4.18-4.33,7-.22,3.28,2.79,5.06,4,5.65-.66,1.58-2.28,6.67,2.13,10.24,3.51,2.84,7.74,1.64,10.17.52a72.34,72.34,0,0,1-7.64,9,.51.51,0,0,0-.38-.27l-5.58-.62a.38.38,0,0,0-.18,0h0a.35.35,0,0,0-.14.06,44.34,44.34,0,0,0-7.34,6.59,12.36,12.36,0,0,0-2.6,8.65.47.47,0,0,0,.29.4c-.1,0-.17,0-.2,0a.5.5,0,0,0-.69-.16,24,24,0,0,0-6.74,6.79c-.77-.39-2.11-1-2.42-1.11l-68.17-26.57a4.59,4.59,0,0,0-4.75.67l-11.71,9.68a1,1,0,0,0,0,1.22h0a1,1,0,0,0,1.27.32l12.94-6.25L51,2445.89l-14.92,38a7.18,7.18,0,0,0,3.82,9.23L108,2523a7.24,7.24,0,0,0,2.85.59,7.12,7.12,0,0,0,6.63-4.57l1.1.06-3.68,21.37a.48.48,0,0,0,.2.5s.94.64,2.63,1.58c-.27.77-4,11.43-4.54,18.11-.31,3.72-.2,8.93-.08,14.43.1,4.8.21,9.75.08,14.55-.27,9.89-11.67,43.52-12.68,46.46-27.66,12.56-67.44,35.28-67.84,35.51a.51.51,0,0,0-.22.61l.48,1.22c-1.12.35-1.91.57-2.43.7a.79.79,0,0,0-.33-1.06,30.55,30.55,0,0,0-13.37-1.43,3.87,3.87,0,0,0-2.52.39c-1.37,1-.59,2.92-.59,4.68m149.39,70.17,3.31-.83s12.48-84.83,13.31-93.93,2.76-100.42,2.76-100.42l3.86.56s3.31-1.94,3.86-4.69-2.21-7.18-1.38-13,1.8-18.33,1.8-18.33l41,8.12,6.22.69.06-.12c.43-.83.65-1.74,1.14-2.55a.62.62,0,0,1,.68-.28.54.54,0,0,1,.2.1l.25-.89s4,6.45,8,6.89a5.85,5.85,0,0,1,4.64,2.6l11.09,188.31s-6.63.28-5.52,8.55a185.92,185.92,0,0,1,1.1,19.87s-12.14,4.41-13.52,24H198.45a13.19,13.19,0,0,0-6.28-9.35c-5.79-3.58-23.79-10-23.79-10l-.83,1.65s-3.38-.41-4.21-3.17-.27-3.86-.27-3.86"/><path class="cls-12" d="M246.62,2503.81A146.92,146.92,0,0,1,224.5,2493a71.44,71.44,0,0,0-22-8.54c0-4.81.31-44.5-4.22-58.2-.74-8.33-3.05-11.49-4.05-12.48.74-.76,2.48-2.59,4.29-4.87,2.46-3.08,3.25-10.29,3.28-10.6a.49.49,0,0,0-.39-.54s-1-.22-2.49-.74c0-.1.09-.19.14-.29a40,40,0,0,1-5.37-1.93,70.39,70.39,0,0,1-12.86-7.68c-1.5-1.09-3.07-2.08-4.57-3.17-1.24-.9-2.7-2-3.24-3.52h0a.53.53,0,0,1-.4-.23.47.47,0,0,1-.11-.21c0-.09,0-.18-.06-.27a3,3,0,0,1-.06-.41.66.66,0,0,1,0-.12,1,1,0,0,1,0-.26.88.88,0,0,1,.2-.34.84.84,0,0,1,.34-.2h.06a3.78,3.78,0,0,1,1.46-1.63,6.52,6.52,0,0,0,1.39-1,1.24,1.24,0,0,0,.31-1c-.4.42-.81.83-1.2,1.2a.51.51,0,0,0-.38-.27l-5.58-.62a.37.37,0,0,0-.18,0h0a.35.35,0,0,0-.14.06,44.26,44.26,0,0,0-7.34,6.59,12.36,12.36,0,0,0-2.6,8.65.47.47,0,0,0,.29.4c-.1,0-.17,0-.2,0a.49.49,0,0,0-.69-.16,24,24,0,0,0-6.74,6.79c-.77-.39-2.11-1-2.42-1.11l-68.17-26.57a4.59,4.59,0,0,0-4.75.67l-11.71,9.68a1,1,0,0,0,0,1.22,0,0,0,0,1,0,0,1,1,0,0,0,1.27.32l12.94-6.25L51,2445.89l-14.92,38a7.18,7.18,0,0,0,3.82,9.23L108,2523a7.26,7.26,0,0,0,2.85.59,7.12,7.12,0,0,0,6.63-4.57l.32,0c.35-.52,1.3-.21,1.08.47-.44,1.34-.47,2.78-.83,4.15s-.68,2.76-1,4.14-.67,2.52-1,3.78a6,6,0,0,1-1.26,2.66l-.18.73a58.29,58.29,0,0,0,.52,6s.94.64,2.63,1.58c0,.14-.21.61-.45,1.31a114.89,114.89,0,0,0,11,5,88.28,88.28,0,0,0,17.07,3.86c5.89.86,11.78,1.84,17.71,2.36s11.78.7,17.69.75h1.59c.06-2.63.09-4.14.09-4.14l3.86.56s3.31-1.94,3.86-4.69-2.21-7.18-1.38-13,2-18.33,2-18.33l40.78,8.12,6.15.68.12-.17c.25-.67.51-1.35.74-2a11.19,11.19,0,0,1,1.4-3.45c0-.07,0-.14,0-.21.12-.61.34-1.2.41-1.82.27-2.17,0-4.37.25-6.53a4,4,0,0,1,.88-2.31c.62-.67.74.17,1.6,0s1.41.1,2.21-.55c.07-.06.35-.36.66-.72l.52-1.47.4-1.39a.49.49,0,0,0-.3-.61"/><path class="cls-2" d="M196,2765.33a38.83,38.83,0,0,0-6.29-4.51c-3.52-2-22.2-8.22-22.2-8.22s-2.08,5.65-10.46,5.45-8.32-2.38-10-1.88-2.08,3.87-2.38,5.3-.89,6.59-.89,6.59,50.59,2.48,52.18-2.73"/><path class="cls-2" d="M35.45,2693.73s-3.72,23.84-5.4,26-3.17,5-4.46,5-3.87-3.86-3.91-4.16-1.09-6.1-4-24.38.94-24.33.94-24.33,6.79.4,9,1.19,2.43,1.14,2.43,1.14-1.49.79-1.64,4.11,1.93,11.89,3.22,13.18a13.57,13.57,0,0,0,3.82,2.28"/><path class="cls-2" d="M116.79,2507l-2.55,11.35s19.52,1.9,30.27-3.62a87.66,87.66,0,0,0,19.31-14.07l-2.9-6.21s-8.55,13.24-44.14,12.55"/><path class="cls-2" d="M139.69,2404c.32.21,0,9.79,0,9.79s9.65-.55,14.9-2.62,9.66-1.93,15-.55,11.45,10.62,13,16.83,4,24.28,4,24.28,2.21-12,1-22.76-7.45-20.55-12.83-23-14.59-3.86-21.35-3-13.68,1.1-13.68,1.1"/><path class="cls-6" d="M160.24,2490.48s6.62-2.62,18.62,1.79,7.72,22.21,7.72,22.21S164.95,2511.31,160.24,2490.48Z"/><path class="cls-4" d="M118.21,2542.68s-4,11.22-4.53,18,.28,18.45,0,28.94-12.77,46.82-12.77,46.82c-28,12.68-68,35.57-68,35.57s6,16.07,13,20.42C52.47,2690.73,111,2674,125.3,2667c6.25-3,13.63-14.1,14.48-21.76,0,0-2.7-31.71-6.79-46.53s-7-25.34-7-34.12a85,85,0,0,1,1.75-16.57Z"/><path class="cls-3" d="M232.42,2336.52s9.76-6.31,10.83,1.07-8.09,9.52-12.38,8c-.59,1.07-3.45,3.1-7.73.83a17,17,0,0,1-6.07-5l-9.4-2.14A13.16,13.16,0,0,1,202.2,2350c-5.83,4.16-9.4-.71-10.83-1.67"/><path class="cls-3" d="M172,2343.07s-4.88,3.81-5.12,7.5,4.17,5.36,4.17,5.36-3.21,6.07,1.78,10.11,11.54-.6,11.54-.6-7.19,10.48-11.77,13"/><path class="cls-3" d="M127.09,2547.78s-3.31,16.53,1.42,32.12,12.76,54.8,12.76,85.51,1.38,83.58,1.38,83.58,17.13,1.14,24-3.43c1.14-6.85,13.39-81.1,12.91-94.33s3.1-98.18,3.1-98.18"/><path class="cls-3" d="M139.78,2645.28c-.85,7.66-8.23,18.73-14.48,21.76-14.26,6.92-72.83,23.7-79.37,25.44-7-4.35-13-20.42-13-20.42s40-22.9,68-35.57c0,0,12.48-36.32,12.77-46.82s-.57-22.13,0-28.94,4.53-18,4.53-18"/><path class="cls-3" d="M145.31,2771.71h51.38A1.36,1.36,0,0,0,198,2770l-1-4s-25.51.47-35.43.95a83.53,83.53,0,0,1-17.48-.95l-.68,3.37A1.92,1.92,0,0,0,145.31,2771.71Z"/><path class="cls-3" d="M144.1,2766s.18-6.25,1.92-9,4.54,2.76,16.46,0a6.62,6.62,0,0,0,5.11-4.82s17.43,7,21.41,8.16,8,5.62,8,5.62"/><path class="cls-3" d="M149.71,2740s17-16.74,20.43-45.12"/><path class="cls-3" d="M156.24,2704.3s7.94-15.89,9.65-25.54"/><path class="cls-3" d="M166.46,2753.1s-3.69,0-3.69-5.67"/><path class="cls-3" d="M148,2755.87a41.34,41.34,0,0,0-.56-6.45"/><path class="cls-3" d="M16,2672.28a30.44,30.44,0,0,1,13.93,1.24c.9.55-1.8,1.53-1.52,4.41.38,3.85,1,8.83,1.8,11.18a6.62,6.62,0,0,0,5.47,4.41s-4.34,20-4.92,24.07-4.75,6.94-4.75,6.94"/><path class="cls-3" d="M34.65,2692.5s.48-3.9,6.1-4.67"/><path class="cls-3" d="M29.76,2674.83a33.13,33.13,0,0,0,4.19-1.18"/><path class="cls-11" d="M119.11,2518.88l-1.19,6.89s-1.82,7.33-2.93,9,.38,5.81.38,5.81,9.36,6.53,25.82,9.65,45.68,1.7,45.68,1.7a5.68,5.68,0,0,0,2.87-6.54,43.6,43.6,0,0,1-.69-13.38c.55-4.55,1.42-15.53,1.42-15.53"/><path class="cls-4" d="M56,2792.68a21,21,0,0,1-12.83-37.62h0A20.8,20.8,0,0,1,56,2750.69a21,21,0,0,1,0,42m0-30.57a9.48,9.48,0,0,0-5.85,2h0a9.58,9.58,0,1,0,5.85-2"/><path class="cls-3" d="M80.76,2780.78a4,4,0,0,1-3.92-4.8A21.32,21.32,0,0,0,56,2750.38a21.1,21.1,0,0,0-13,4.43,4,4,0,1,1-4.89-6.32,29,29,0,0,1,17.9-6.1,29.31,29.31,0,0,1,28.7,35.2A4,4,0,0,1,80.76,2780.78Z"/><path class="cls-4" d="M294,2762.42a21.13,21.13,0,0,0-6-7.35,20.87,20.87,0,0,0-7.59-3.72l1,13.08a9.47,9.47,0,0,1,3.34,7.26,9.58,9.58,0,1,1-16.59-6.52l-1-12.89A21,21,0,1,0,294,2762.42"/><path class="cls-3" d="M266.48,2743.7l.63,8.24a21.35,21.35,0,0,0-13.3,19.74,21.58,21.58,0,0,0,.43,4.29,4,4,0,0,1-3.11,4.73,5.07,5.07,0,0,1-.81.08,4,4,0,0,1-3.91-3.2,29.26,29.26,0,0,1,20.06-33.89Z"/><path class="cls-3" d="M293.74,2754.09a4,4,0,0,1-5.61.72,21,21,0,0,0-7.81-3.79l-.63-8.28a29.09,29.09,0,0,1,13.32,5.74A4,4,0,0,1,293.74,2754.09Z"/><line class="cls-3" x1="80.76" y1="2780.78" x2="251.13" y2="2780.78"/><line class="cls-3" x1="245.82" y1="2771.69" x2="85.26" y2="2771.69"/><path class="cls-3" d="M275.8,2775a6.64,6.64,0,0,1-7.4-6.07l-.29-3.75-1-12.89,0-.33-.63-8.24-1.29-16.91a6.64,6.64,0,0,1,5.82-7.09,6.11,6.11,0,0,1,.79,0,6.62,6.62,0,0,1,6.61,6.13l1.29,17,.63,8.28,0,.32,1,13.08.26,3.48A6.62,6.62,0,0,1,275.8,2775Z"/><line class="cls-3" x1="252.86" y1="2531.33" x2="263.96" y2="2719.73"/><line class="cls-3" x1="258.74" y1="2531.02" x2="270.31" y2="2719.72"/><circle class="cls-3" cx="256.16" cy="2525.76" r="5.84"/><path class="cls-3" d="M275.07,2539.85a14.22,14.22,0,0,0,0,28.44Z"/><path class="cls-3" d="M280.93,2569.17l-4.59.92a1.26,1.26,0,0,1-1.51-1.24v-29.56a1.26,1.26,0,0,1,1.51-1.24l4.59.92a1.26,1.26,0,0,1,1,1.24v27.71A1.26,1.26,0,0,1,280.93,2569.17Z"/><line class="cls-3" x1="254.68" y1="2551.63" x2="260.3" y2="2551.63"/><path class="cls-3" d="M184.47,2363.62s-.25,8,2,12.23,15.47,12.48,20.22,14.23,7.24.5,8.24-.25,7.49-10.73,8-16.22c4.49.75,6.49-1.5,6.49-1.5s-3.49-14.48-3.49-17.22,1.75-6.74,1.75-6.74"/><path class="cls-3" d="M218.54,2376a51,51,0,0,0-7-1.45"/><path class="cls-3" d="M207.93,2355.14s5-4,9.73-3.74"/><path class="cls-4" d="M214.17,2361.11h0a1.62,1.62,0,0,1-1.62-1.62v-2a1.62,1.62,0,0,1,3.24,0v2a1.62,1.62,0,0,1-1.62,1.62"/><path class="cls-6" d="M159.27,2390.34a12.07,12.07,0,0,1,2.48-8.27,44.62,44.62,0,0,1,7.25-6.5l5.15.54"/><path class="cls-6" d="M193.92,2414.08a2.55,2.55,0,0,0-.38-.32s-6.18-.56-15.51-10a67.34,67.34,0,0,0-18.76-13.38"/><path class="cls-6" d="M193.63,2488s5.12-51.29,4.2-61.71c-.73-8.27-3-11.32-3.91-12.23"/><path class="cls-6" d="M193.54,2413.75a65.23,65.23,0,0,0,4.63-5.2c2.39-3,3.86-10.83,3.86-10.83s-18.64-3.47-33-22.15"/><path class="cls-3" d="M206.68,2390.08s-5.19,0-7.64,5.85"/><path class="cls-3" d="M192,2349.41a9.21,9.21,0,0,0-5.89-3.92c-3.36-.56-4.48,2.52-3.64,7s1.68,8.41,3.36,9.53,4.77-.84,4.77-.84"/><path class="cls-2" d="M182.53,2374.8a31.87,31.87,0,0,0,5.17,9.49,61.15,61.15,0,0,0,9.43,8.91l5.48-3.94s-8.65-4.6-12.89-7.18a25.78,25.78,0,0,1-7.19-7.28"/><path class="cls-4" d="M203.53,2388.82h0c-.27-.84-1.86-5.08-3.69-9.12a63.73,63.73,0,0,1-3.17-14.62c-.87-11.19,3.78-25.9,3.83-26.05l-3.6-1.23c-.2.63-4.94,15.61-4,27.59.09,1.11.21,2.23.37,3.33a12.86,12.86,0,0,0-5-3.84c-8.15-3-13.42-15.36-12.34-23.64l-3.75-.52c-1.32,10.12,4.75,24.18,14.83,27.85,3.41,1.24,6.85,7.15,9.35,12.63.57,1.69,1.13,3.2,1.62,4.45a5,5,0,0,0,5.6,3.19"/><path class="cls-3" d="M162.32,2328.88c2.49-1.2,5.46-4.12,2.26-6.87,3.06-1.15,1.64-2,1.64-2s3.32-2.6.19-8.55c19,.17,13.06-1.62,25-2.49s23.23-1,28.38,3.13,9.35,12.8,9.3,14.92.54,10.4-7.63,11.24a5.42,5.42,0,0,1-3.94,3.08,35.9,35.9,0,0,0-6.59-.38l.71-.16c-6.3-1.65-14.09-4.57-14.09-4.57A94.44,94.44,0,0,1,184.5,2343H172.38a48.24,48.24,0,0,1-8.54-5.85S164.71,2331.91,162.32,2328.88Z"/><path class="cls-4" d="M219.4,2308.32c-12.72-7.8-34.59-3.78-40.39-1.21-2.61,1.15-7.56,1.47-12.2,1.46a1.49,1.49,0,0,0-.39,2.91,196.81,196.81,0,0,0,24,5.55c13.38,2.11,27.64,9.36,33.9,12.82a1.15,1.15,0,0,1-.46,2.14l-5.64.38a16.47,16.47,0,0,1-7.08-1.08,212.45,212.45,0,0,0-22.74-7.48c-6.94-1.77-16.59-3.29-23.81-4.3a1.25,1.25,0,0,0-.59,2.4l27.37,10.63L180.23,2337a16.81,16.81,0,0,1-8.7,1.06l-7.19-1a1.45,1.45,0,0,0-.82,2.73l8.23,4.25a16.81,16.81,0,0,0,15.3.07l11.71-5.9,12,3.73a16.46,16.46,0,0,0,10.3-.16l13.35-5.24s3.12-17.16-15-28.23m-7.67,9s-17.17-5-22.69-5.92c22-1.3,30.7,4.15,30.7,4.15Z"/><path class="cls-4" d="M177.43,2332.93a45.58,45.58,0,0,1-8.52-.26,11.87,11.87,0,0,1-5.95-1.84,1.82,1.82,0,0,1,1.52-3.23,87.5,87.5,0,0,1,13,5.33"/><path class="cls-4" d="M274.51,2559.53s-3.5.37-8.84-2-4.79-5.89-4.79-5.89-1.84,6.63,3.31,11.41,8.84,5,9.39,5.15,1.29.18,1.1-1.47-.18-7.18-.18-7.18"/><polygon class="cls-4" points="275.07 2555.11 275.25 2564.13 281.51 2563.21 281.69 2555.66 275.07 2555.11"/><path class="cls-4" d="M261.9,2525.82a5.8,5.8,0,1,1-5.8-5.8,5.8,5.8,0,0,1,5.8,5.8"/><path class="cls-4" d="M162.86,2749.21l-15.1,5.15-.18-5.15s6.44-.55,9.94-.74a12.86,12.86,0,0,0,5.15-1.11Z"/><path class="cls-4" d="M33.45,2673.74s2.58,5.71,4.79,9.39,2.76,4.79,2.76,4.79-5,2-5,1.47-4-14.91-4-14.91Z"/><path class="cls-4" d="M197.38,2765.76s2.55,4.79.33,5.71c-1.4,0-53.61,0-53.61,0s-.59-.39-.59-1.95a11.52,11.52,0,0,1,.78-3.51s37.88.72,53.08-.26"/><path class="cls-4" d="M18.75,2672s-3.12-1-4.48,0-.59,2.93-.59,4.68c0,1,.79,21,2.14,31.13a65.24,65.24,0,0,0,4.88,17.6s.19.78,1.75.58a20.2,20.2,0,0,0,3.77-1.05A87.37,87.37,0,0,1,21,2706.83,244.94,244.94,0,0,1,18.75,2672"/><path class="cls-3" d="M239,2521.55s5.71,5,13.31-.13"/><path class="cls-6" d="M241.07,2507.35a42.82,42.82,0,0,1-.76,8.61c-.76,3-1.31,5.59-1.31,5.59"/><path class="cls-3" d="M264.4,2510.12a22.86,22.86,0,0,1,4.8.9c1.4.6,7.3,5.7,7.2,7.8s-6,10.4-6,10.4-2.6.2-2.8-1.4"/><line class="cls-3" x1="268.6" y1="2518.72" x2="270.5" y2="2519.52"/><path class="cls-3" d="M239.49,2521.85s4.91,6.77,11.71,7"/><path class="cls-12" d="M152,2397.7a28.46,28.46,0,0,0-2.94-1.42l-68.17-26.56a4.57,4.57,0,0,0-4.75.67l-11.71,9.68a1,1,0,0,0,0,1.22h0a1,1,0,0,0,1.27.32l13.11-6.32s30.57,12.65,39.56,16.43,24,12.14,24,12.14l6.87-.56"/><path class="cls-11" d="M152,2397.7a28.46,28.46,0,0,0-2.94-1.42l-68.17-26.56a4.57,4.57,0,0,0-4.75.67l-11.71,9.68a1,1,0,0,0,0,1.22h0a1,1,0,0,0,1.27.32l13.11-6.32s30.57,12.65,39.56,16.43,24,12.14,24,12.14l6.87-.56"/><path class="cls-6" d="M117.2,2507.19c9,.4,36.16-.82,43.72-13.34"/><path class="cls-6" d="M114.72,2518.34c10.64,1,32.84,1,48.71-17.47"/><path class="cls-6" d="M186.88,2451.69c.29-1.43,6.93-36.28-13.73-46.61-10.29-5.15-33.15-.87-33.15-.87"/><path class="cls-6" d="M190.66,2515.93c-3.82-1.13-7.73-2.39-11.65-3.79a29.88,29.88,0,0,1-19.46-23c-2.28-13.08-11.31-25-13.84-39.88a5.15,5.15,0,0,0-2.9-4.28"/><path class="cls-11" d="M232.66,2524.48l-.24.51a286,286,0,0,1-41.76-9.06"/><path class="cls-6" d="M139.82,2413.79c9.24.41,18-3.95,20.45-4.4a13.52,13.52,0,0,1,4.46-.09,20.74,20.74,0,0,1,7,2.53c6.68,3.74,10.5,13.76,12,21.27,0,0,6.51,40.55,9.19,55,8.69.68,43.45,16.82,43.45,16.82a35.68,35.68,0,0,1-.51,10.08,50.07,50.07,0,0,1-3.21,9.51"/><path class="cls-6" d="M120.85,2507.15c-.29-1.43,7.41-50.31,24.57-92.92"/><path class="cls-6" d="M159.41,2390.22a19.29,19.29,0,0,0-10.14,13.71l-7,.31"/><path class="cls-11" d="M79.09,2375.45l-13.69,35-13.92,35.59-14.93,38a6.69,6.69,0,0,0,3.56,8.58l68.08,29.88c3.56,1.55,7.89.43,9.12-3.26"/><line class="cls-6" x1="241.05" y1="2507.17" x2="237.02" y2="2506.67"/><path class="cls-3" d="M232.66,2524.43c-.17-.06,4.94.78,4.94.78l1.39-3.66"/><path class="cls-4" d="M52.7,2490.38a7.09,7.09,0,0,1-3.71-9.51,7,7,0,0,1,7.91-4.26l-1.56,3.59a3.24,3.24,0,0,0-3.22,2c-.79,1.82,0,3.74,2.09,4.66a3.44,3.44,0,0,0,4.83-1.66,3.24,3.24,0,0,0-.72-3.74l1.56-3.59a7,7,0,0,1,2.3,8.68,7.09,7.09,0,0,1-9.48,3.78"/><path class="cls-4" d="M63.34,2465.86a3.48,3.48,0,1,0,2.06,4.67,3.45,3.45,0,0,0-2.06-4.67m-4.28,9.86c-3.56-1.55-5.48-5.44-4-8.8a5,5,0,0,1,3.27-2.9l-1.42-.61,1.5-3.46L71,2465.42l-1.5,3.46-1.42-.61a5,5,0,0,1,.11,4.37c-1.46,3.36-5.61,4.62-9.17,3.08"/><polygon class="cls-4" points="60.82 2454.36 67.88 2452.5 64.43 2446.05 65.7 2443.11 78.34 2448.6 76.84 2452.06 69.53 2448.89 72.54 2454.49 66.38 2456.14 73.69 2459.31 72.19 2462.78 59.55 2457.29 60.82 2454.36"/><path class="cls-4" d="M77.18,2434a3.44,3.44,0,1,0,2,4.59,3.44,3.44,0,0,0-2-4.59m-4.24,9.78a7.25,7.25,0,1,1,9.48-3.78,7.19,7.19,0,0,1-9.48,3.78"/><polygon class="cls-4" points="82.39 2425.28 87.49 2427.49 85.99 2430.96 73.36 2425.47 74.86 2422.01 80.01 2424.25 76.71 2417.74 78.5 2413.62 82.43 2421.57 91.51 2418.24 89.58 2422.69 82.39 2425.28"/><path class="cls-4" d="M89.33,2405.95a3.48,3.48,0,1,0,2.06,4.67,3.45,3.45,0,0,0-2.06-4.67m-4.27,9.86c-3.56-1.55-5.48-5.44-4-8.8a5,5,0,0,1,3.27-2.9l-1.42-.61,1.5-3.46L97,2405.51l-1.5,3.46-1.42-.61a5,5,0,0,1,.11,4.37c-1.46,3.36-5.61,4.62-9.17,3.08"/><polygon class="cls-4" points="89.87 2395.7 88.36 2399.19 85.33 2397.87 89.97 2387.18 93 2388.5 91.38 2392.24 100.98 2396.41 99.48 2399.87 89.87 2395.7"/><path class="cls-2" d="M109.46,2410.17l17.74,7.93a1.79,1.79,0,0,0,2.36-.9l3.23-7.23a1.79,1.79,0,0,0-.9-2.36l-17.74-7.93a1.79,1.79,0,0,0-2.36.9l-3.23,7.23a1.79,1.79,0,0,0,.9,2.36"/><line class="cls-6" x1="142.82" y1="2453.66" x2="146.69" y2="2455.31"/><path class="cls-3" d="M259.41,2746.9s-2.07-21.1-.69-24.14a5.56,5.56,0,0,1,4.83-3s-4.1,3.69,7.47,0"/><path class="cls-6" d="M245.89,2506.34l-.55,1.66,1.1-3.72a145,145,0,0,1-22.21-10.9,69.75,69.75,0,0,0-22.21-8.55s.56-44.21-4.2-58.52"/><path class="cls-3" d="M267,2510.48a12.65,12.65,0,0,0-8-3.45c-5.24-.41-12.55-.66-12.55-.66"/><path class="cls-3" d="M88.44,2771.79a63.18,63.18,0,0,0-5.17-19.45c-4.55-10.14-16.34-13.45-11.38-15.31s21.1,12,24.62,34.14"/><path class="cls-3" d="M241.77,2507.85s19.53,2.27,21.23,2.27a4.85,4.85,0,0,1,4.4,3.9c.7,2.6,1.9,10.4,1.6,11.3s-4.4,6.2-5.5,7.6-3.3-1.9-2.1-4.4"/><path class="cls-2" d="M182.19,2558.68s-21.72.37-40.68-4.42-23.56-11.78-23.56-11.78,4.23,2,5.15,2.39a81.16,81.16,0,0,0,34.24,7.36c19.15-.18,25.77-.18,25.77-.18Z"/><path class="cls-3" d="M31.14,2695.71s2.58,1.69,4.46,1.64"/><path class="cls-3" d="M30.84,2699.48a8.91,8.91,0,0,0,3.91,1.44"/><path class="cls-3" d="M30.79,2703.24a7.33,7.33,0,0,0,3.22,1.18"/><path class="cls-3" d="M168.17,2756.73s2-2.32,2.23-4.2"/><path class="cls-3" d="M171.86,2757.54a8.92,8.92,0,0,0,2-3.68"/><path class="cls-3" d="M175.59,2758.1a7.32,7.32,0,0,0,1.61-3"/></g><g class="cls-5"><path class="cls-2" d="M897.71,2419.52a2.71,2.71,0,1,1-2.71-2.71,2.71,2.71,0,0,1,2.71,2.71"/><path class="cls-4" d="M897.46,2419.54a3,3,0,1,1-2.45-1.3,3.76,3.76,0,0,1,2.45,1.3"/><path class="cls-2" d="M895.8,2419.73a1.14,1.14,0,1,1-1.14-1.14,1.14,1.14,0,0,1,1.14,1.14"/><path class="cls-4" d="M895.73,2419.38a.4.4,0,1,1-.4-.4.4.4,0,0,1,.4.4"/><path class="cls-4" d="M895,2423.58a4.06,4.06,0,1,1,4.06-4.06,4.07,4.07,0,0,1-4.06,4.06m0-8a3.95,3.95,0,1,0,3.95,3.95,4,4,0,0,0-3.95-3.95"/></g><g class="cls-13"><path class="cls-4" d="M860.36,1958.91s-3.15,3.74-7,3.74-7-3.74-7-3.74,3.15-3.74,7-3.74,7,3.74,7,3.74"/><path class="cls-2" d="M855.56,1959.44a3.27,3.27,0,1,1-3.27-3.27,3.27,3.27,0,0,1,3.27,3.27"/><path class="cls-4" d="M855.37,1958.44a1.15,1.15,0,1,1-1.15-1.15,1.15,1.15,0,0,1,1.15,1.15"/><path class="cls-4" d="M885.63,1958.91s-3.15,3.74-7,3.74-7-3.74-7-3.74,3.15-3.74,7-3.74,7,3.74,7,3.74"/><path class="cls-2" d="M880.83,1959.44a3.27,3.27,0,1,1-3.27-3.27,3.27,3.27,0,0,1,3.27,3.27"/><path class="cls-4" d="M880.64,1958.44a1.15,1.15,0,1,1-1.15-1.15,1.15,1.15,0,0,1,1.15,1.15"/></g></svg>