<svg id="Layer_1" data-name="Layer 1" xmlns="http://www.w3.org/2000/svg" viewBox="0 0 487.36 559.31"><defs><style>.cls-1,.cls-4{fill:none;stroke-miterlimit:10;}.cls-1{stroke:#00023d;stroke-width:1.33px;}.cls-2{fill:#fff;}.cls-3{fill:#00023d;}.cls-4{stroke:#7499bc;}</style></defs><title>1Artboard 2</title><path class="cls-1" d="M328,531.29H129.5s6.2,8.86,10.93,13.29a28.58,28.58,0,0,0,8.86,5.91h161S322.94,547.82,328,531.29Z"/><path class="cls-2" d="M271.51,419s28-24.92,27-35.65c-2.09-4.17-40.35-54.42-44.1-58.36s-4.13-7.51-4.13-7.51l4.69-1.12s-1.88-3.75-3.38-5.07a8,8,0,0,0-3-1.69s-21.2,3-26.27,2.44-12.76-4.88-16.51-4.32-4.69,5.25-4.69,5.25l-.19,1.69,5.25,1.5s-25,37.53-29.27,44.47S161.53,385,160,391.82c-.9,4.07,22.49,33,29.81,39.92S226.66,459,227.22,459s6-9,4.13-16.89-1.31-17.45-.19-19.33,4.69-3.94,4.69-3.94,6-7.13,15.57-6.19a18.88,18.88,0,0,1,13.89,8.26s4.13-.56,6.19-1.88"/><path class="cls-2" d="M203.95,250.44s34.63-1,47.89-12.24c-1.7,13.23-16.32,18.92-26.68,19.14s-21.21-6.9-21.21-6.9"/><path class="cls-2" d="M170,129.59s-1.91-3.36.95,52.84,9.11,73.37,17.43,82.22S204,276.89,204,276.89s9.11,9.37,16.13,11.45c-12.49-1-15.87-7.81-16.39-9.11-8.59-3.38-23.94-11.71-28.88-30.7s-11.71-90.81-11.71-90.81L169.36,114Z"/><path class="cls-2" d="M163,226.15s1.69-4.5-2.81-11.67-9.42-19.68-11-26,2.25-9.84,4.5-10.83c-7,.56-8.86,6-8,10.4s4.22,11.25,6.75,18.56,3.52,14.06,5.91,17.29,4.64,2.25,4.64,2.25"/><path class="cls-2" d="M221.79,191.42s3.23,30.37,1.69,35.15-5.62,7.17-8.15,6.61-3.23-2-2.25-3.52,6.19-9.7,5.62-17.29,3.09-20.95,3.09-20.95"/><path class="cls-2" d="M187.4,307.28s8.4-11.24,8.4-20.72-.27-12.32-.27-12.32-4.74-3-4.87-2.57,1.22,14.22.68,19.9-3.93,15.71-3.93,15.71"/><path class="cls-2" d="M184.78,196.88c-.57-7.51,9.66-9.09,9.66-9.09v4.94Z"/><path class="cls-2" d="M78.11,243.8A24.41,24.41,0,1,0,64,265.92l3.68,1.84v-4a24.38,24.38,0,0,0,10.4-20"/><path class="cls-3" d="M412.84,101.59A3.89,3.89,0,0,1,414.12,99a5.5,5.5,0,0,1,3.27-.9,17.29,17.29,0,0,1,3.68.3,5,5,0,0,1,2.63,1.13c1.5,1.39.91,3.73.92,5.66,0,.52,0,1-.06,1.57,22.45-1.12,52.27-4.89,52.27-4.89s-33.39-7.66-64.59-7.66S358,104.39,358,104.39s32.58,2.63,55,2.73h.17a18.48,18.48,0,0,1-.38-5.53"/><path class="cls-1" d="M358,104.39c7.11-14.23,16.15-98.25,16.15-98.25S397.46.67,418.53.67a170.45,170.45,0,0,1,39.41,4.93s7.94,77.45,18.88,96.34"/><polyline class="cls-1" points="412.56 118.35 391.71 118.35 391.71 175.55 446.72 175.55 446.72 118.62 425.12 118.62"/><line class="cls-1" x1="436.05" y1="96.73" x2="436.05" y2="129.02"/><path class="cls-3" d="M438.24,130.67a2.19,2.19,0,1,1-2.19-2.19,2.19,2.19,0,0,1,2.19,2.19"/><path class="cls-1" d="M452.47,18.18s4.1,53.64,11.49,71.71"/><line class="cls-1" x1="417.43" y1="61.42" x2="417.98" y2="83.87"/><line class="cls-1" x1="381.03" y1="14.08" x2="378.3" y2="40.9"/><line class="cls-1" x1="389.52" y1="88.52" x2="391.98" y2="76.2"/><path class="cls-3" d="M208.68,123.49s-8-3.52-8-15c0-8.42,4.62-16.33,7.1-20a4.14,4.14,0,0,1,5.55-1.25c3.9,2.36,7.43,8.12,15.18,6.18,10.23-2.56,16-7.35,17.27-4.48s9.91,8,24.3,6.72c13-1.16,20.83,9.24,20.51,16.2a4.19,4.19,0,0,0,1.61,3.59c5.21,3.9,9.33,5.86,7.62,16.67s-4.15,38.85-4.69,45.12a4.15,4.15,0,0,1-.9,2.24l-1,1.23c-1,1.28-4.52,4.12-6.9,8.68-1.77-.27-.34-8.81-.52-10.93-1.09-13.08-6.47-19.49-11-27.4-5.48-9.52,2-12.91,2.82-22.76.75-9.4-9-12.16-16.95-8.56s-17.28,12.38-34.2,13.87a30.85,30.85,0,0,1-25.94-10.52,4.1,4.1,0,0,0-1.15-.95c-3.17-1.74-16.07-8.19-23.44-2.27a3.89,3.89,0,0,0-1,1.16c-1.07,1.93-3.68,7.49-1.88,13.2,2.31,7.32,5.26,9.82,2.42,16.52-2.41,5.69-7.92,12.27-10.14,25.72a4.17,4.17,0,0,1-8.24-.14c-.71-5.35-3.68-27.4-5.92-39.42-1.93-10.39,3.07-16.21,6-18.44A4.25,4.25,0,0,0,159,115a12,12,0,0,1,5.89-11c7.67-4.48,12.15,2.88,18.55-4.16s13.43-11.51,21.43-8.63"/><path class="cls-3" d="M219,289.53s48.36,9.55,48.36,8.54-.81-29.87-.81-29.87a64.22,64.22,0,0,1-10.77,9.35,43.56,43.56,0,0,1-8.13,4.67s-9.75,11-28.65,7.31"/><path class="cls-3" d="M147.22,367.86c0,.3,1.58,4.64.69,7.11s-2.17,3-2.17,3,4.84,0,4.84-4.74-.89-6.22-.89-6.22"/><polyline class="cls-3" points="144.76 351.67 144.85 353.15 148.51 351.97 148.31 350.39"/><path class="cls-3" d="M143.67,337.26c-.15-.06-6-47.77-6.61-50.33s-2.07-3.75-5.92-4.15-48.66-.2-48.66-.2-.1-1.09,4.15-1.48,48.06.3,48.06.3,4.54-.1,5.43,6.42,6.32,48.75,6.32,48.75"/><path class="cls-2" d="M137.53,292.45H77.25s0-5.28-.06-6,1.89-3.44,6.45-3.83,47.89.28,50.12.61,3.39,3.33,3.72,4.83a19.18,19.18,0,0,1,.06,4.39"/><path class="cls-1" d="M282.53,223.32s6.62,6,10.84,1.34,7.21-20,10.78-27.85,5.09-15.14-1.43-18.62-14.17,4.56-17.2,14.11a5.81,5.81,0,0,1,0,.79"/><path class="cls-1" d="M284,214.11s6.82-5.3,5.81-9-2.22-3.58-1.17-7.9,10.79-21,16-11"/><path class="cls-1" d="M292.82,190.64s3.47,9.22-3,14.5"/><path class="cls-1" d="M297.28,194.77a16.74,16.74,0,0,0,2.7-11.15"/><path class="cls-1" d="M169.14,223.1s-5.37,6.25-9.6,1.56-7.21-20-10.78-27.85-5.09-15.14,1.43-18.62,14.17,4.56,17.2,14.11a5.94,5.94,0,0,0,0,.79"/><path class="cls-1" d="M167.91,213.11s-5.79-4.31-4.78-8,2.22-3.58,1.18-7.9-10.79-21-16-11"/><path class="cls-1" d="M160.09,190.64s-3.47,9.22,3,14.5"/><path class="cls-1" d="M155.62,194.77a16.74,16.74,0,0,1-2.7-11.15"/><path class="cls-3" d="M178.54,160.56s-1.29,6.18,2.14,5.87,17.58-1.85,23.58-.93,6.86,0,8.58-1.85,4.72-6.18-2.15-8.34-31.73.93-32.16,5.25"/><path class="cls-3" d="M273.78,166s1.59,6.11-1.85,6-17.65-1-23.6.24-6.85.34-8.66-1.43-5-5.94,1.73-8.44,31.74-.64,32.38,3.66"/><path class="cls-3" d="M289,179c0-.1,0-.2,0-.31s-.12-.19-.32-.3a1.82,1.82,0,0,0-1-.39l-.18,0A124.58,124.58,0,0,0,264,175.68a90.75,90.75,0,0,0-13,.65,63.45,63.45,0,0,0-14.81,3.38,32.58,32.58,0,0,1-10.2,2.14,32.59,32.59,0,0,1-10.2-2.14,63.42,63.42,0,0,0-14.81-3.38,90.76,90.76,0,0,0-13-.65,124.56,124.56,0,0,0-23.57,2.26l-.18,0a1.83,1.83,0,0,0-1,.39c-.19.11-.32.21-.31.3s0,.2,0,.31a2.44,2.44,0,0,0,0,.8c.11,1.89.31,3.77.52,5.65,0,.19.39.39.63.5l.42.22a6.6,6.6,0,0,0,.68.65,8.9,8.9,0,0,1,2.43,4.62c.07.3.14.61.2.91.46,3.14.91,6.29,1.41,9.42a18.32,18.32,0,0,0,3.64,8.36c3.3,5,8.46,7.66,15.45,7.84a41.38,41.38,0,0,0,12.08-1,25.08,25.08,0,0,0,8.67-3.73c4.31-2.93,7.29-7.38,9.35-12.77.93-2.43,1.75-4.91,2.6-7.37q.26-.69.53-1.37a4.78,4.78,0,0,1,8.85,0q.27.68.53,1.37c.85,2.46,1.67,4.94,2.6,7.37,2.06,5.39,5,9.84,9.35,12.77a25.07,25.07,0,0,0,8.67,3.73,41.38,41.38,0,0,0,12.08,1c7-.19,12.14-2.85,15.45-7.84a18.31,18.31,0,0,0,3.64-8.36c.5-3.14.95-6.28,1.41-9.42.07-.3.13-.61.2-.91a8.91,8.91,0,0,1,2.43-4.62,6.61,6.61,0,0,0,.68-.65l.42-.22c.24-.12.61-.31.63-.5.21-1.88.41-3.76.52-5.65a2.47,2.47,0,0,0,0-.8m-29.64,36.48a33.38,33.38,0,0,1-7.81-1.25,28.08,28.08,0,0,1-4.47-1.94c-.39-.21-.77-.44-1.13-.67a18.69,18.69,0,0,1-6.17-7.14,33.44,33.44,0,0,1-3.39-12.39,10.89,10.89,0,0,1,.53-4,11.22,11.22,0,0,1,1-2.07,11.6,11.6,0,0,1,3.08-3.3,10.71,10.71,0,0,1,2.28-1.13c.55-.2,1.11-.37,1.67-.53l.24,0c3.45-.58,6.91-1,10.38-1.45,1.71-.08,3.52-.13,5.44-.18l1.55.08c1.71.13,4.16.3,6.67.65a19.18,19.18,0,0,1,4.92,1.5,11.2,11.2,0,0,1,1.57.92,11.75,11.75,0,0,1,4.36,9.56,31,31,0,0,1-2,11.49c-2.62,6.88-7.59,10.85-14.68,11.79-.42.06-.83.1-1.25.14a25.51,25.51,0,0,1-2.81,0m-54.61-3.19a28,28,0,0,1-4.47,1.94,33.37,33.37,0,0,1-7.81,1.25,25.53,25.53,0,0,1-2.81,0c-.42,0-.83-.08-1.25-.14-7.09-.95-12.06-4.92-14.68-11.79a31,31,0,0,1-2-11.49,11.75,11.75,0,0,1,4.36-9.56,11.15,11.15,0,0,1,1.57-.92,19.17,19.17,0,0,1,4.92-1.5c2.51-.35,5-.52,6.66-.65l1.55-.08c1.92,0,3.73.1,5.44.18,3.47.44,6.94.87,10.38,1.45l.24,0c.56.16,1.12.34,1.67.53a10.72,10.72,0,0,1,2.28,1.13,11.61,11.61,0,0,1,3.08,3.3,11.23,11.23,0,0,1,1,2.07,10.89,10.89,0,0,1,.53,4,33.4,33.4,0,0,1-3.39,12.39,18.7,18.7,0,0,1-6.17,7.14c-.36.23-.74.46-1.13.67"/><path class="cls-1" d="M247.43,197l1.68-1.44c3.34-2.86,11.24-2.92,14.73-.11l1,.8"/><path class="cls-3" d="M250.14,194.85v1.88a3.33,3.33,0,1,0,6.66,0v-3.31Z"/><path class="cls-1" d="M186,197l1.68-1.44c3.34-2.86,11.24-2.92,14.73-.11l1,.8"/><path class="cls-3" d="M188.73,194.85v1.88a3.33,3.33,0,1,0,6.66,0v-3.31Z"/><path class="cls-1" d="M203.95,250.44s34.63-1,47.89-12.24c-1.7,13.23-16.32,18.92-26.68,19.14S203.95,250.44,203.95,250.44Z"/><path class="cls-3" d="M209.33,250.12c-3.32.26-5.39.32-5.39.32a47.91,47.91,0,0,0,5.1,2.79Z"/><path class="cls-3" d="M249.27,245.46a18,18,0,0,0,2.56-7.25,28,28,0,0,1-5,3.3c.76,1.35,1.58,2.66,2.44,4"/><path class="cls-1" d="M221.7,189.59s-3.61,15.09-3.46,19c.56,15.2-6,20.68-5.95,22.57,0,2.43,10.69,7.81,12.86,7.81s13-6.52,13-8.69-.72-2.41-.72-2.41"/><path class="cls-1" d="M286,181s-.63,33.89-6.9,62.13a55.19,55.19,0,0,1-30.44,38c-14.75,15.69-39.22,8.47-45.5-1.88-7.26-4.43-25-10.43-30.12-35.46-5.36-26.18-6.9-56.8-6.9-56.8"/><path class="cls-1" d="M251.32,317c14.9-2.59,27.54-12.64,27.54-12.64,2.17-2.45-2.88-3.46-2.88-3.46"/><path class="cls-1" d="M179.07,303.35s12,10,26.24,12.64"/><path class="cls-1" d="M247.86,475.82c-1.81,1.59-3.47,3-4.94,4.3"/><path class="cls-1" d="M254.89,316s-2.92-5.83-5.18-6.48-13.61,1.94-23,2.27-17.82-4.54-21.06-4.21-4.86,6.48-4.86,6.48"/><path class="cls-1" d="M266.54,267.62v14.43c0,11.61,3.86,27.31,3.86,27.31"/><path class="cls-1" d="M191.27,272.27s-.31,5.21-.31,16.07-5.28,20.19-5.28,20.19"/><path class="cls-1" d="M263,335.11s21.06-13,26.24-22.68"/><path class="cls-1" d="M345.37,428.49s-8.9-4.94-13.45-5.14-35-4.15-39.17-4.95-3.76-8.7-.4-9.89,33-1.58,39.57-.59a136.22,136.22,0,0,1,16.42,4.15"/><line class="cls-1" x1="339.44" y1="406.93" x2="344.19" y2="410.69"/><path class="cls-1" d="M315.3,407.12s-3.76-2-3.56-4.95,1.78-5.54,5.34-5.93,34.23-3.56,36.8-1.58,5.14,9.69,5.54,12.46-1,9.1-1,9.1,4.55,6.13,3.36,10.49a19.09,19.09,0,0,1-4.75,7.72s1,6.33-3.56,9.1a18.43,18.43,0,0,1-8.7,2.77s-4,6.53-7.52,8.31"/><path class="cls-1" d="M321,456s-2.18-6.92-1.39-7.91c-3.76-1-12.27-6.53-17-10.29s-12.86-7.71-16.62-10.68.4-7.12.4-7.12,22,8.11,30.86,12.66a64.32,64.32,0,0,0,19.19,5.74"/><path class="cls-1" d="M311.74,402.18c-1.19.4-27.3,6.53-33.43,10.88s-7.32,9.89-18.6,7.71"/><path class="cls-1" d="M261.39,429.33a39.1,39.1,0,0,0,10.19-1.24c7.12-2,7.91-5.34,6.73-6.33s-.4-5.14,2.77-6.92a72.63,72.63,0,0,1,8.7-3.76"/><path class="cls-1" d="M286.42,420s-2-6.53,3.16-7.32"/><path class="cls-1" d="M308.77,402.18c.2-.59,4.15-6.53,4.15-6.53s-.59-3.76,1.19-6.33,5.54-7.12,8.7-7.12,12.07,4.35,9.1,12.27"/><path class="cls-1" d="M318.86,389.32s-6.13,6.92,0,6.53"/><path class="cls-1" d="M319.85,390.9s6.73-2.37,10.29-.59"/><path class="cls-1" d="M342.21,449.26s2.61,13.06-6.1,21.37-24.53,7.32-29.48-2.77-1-10.09-1-10.09-5.14-4.35-5.14-7.71S304,438.58,304,438.58"/><path class="cls-1" d="M310.75,460.14s-7.72-4.55,0-16.22"/><path class="cls-1" d="M315.5,446.29s-2.37,5.15-.59,7.32"/><path class="cls-1" d="M82.69,325.17,77,289.24a5.92,5.92,0,0,1,5.9-6.47h48.65a5.93,5.93,0,0,1,5.87,5.11l6.11,49.33"/><line class="cls-1" x1="77.57" y1="292.39" x2="137.49" y2="292.39"/><path class="cls-3" d="M85.23,288.07a2.36,2.36,0,1,1-2.36-2.36,2.36,2.36,0,0,1,2.36,2.36"/><path class="cls-3" d="M88.77,288.07a.79.79,0,1,0,.79-.79.79.79,0,0,0-.79.79"/><path class="cls-1" d="M146.24,336.56l-6.37-49.92a6.57,6.57,0,0,0-6.51-5.64H86a9.56,9.56,0,0,0-6.5,2.55"/><path class="cls-1" d="M74.74,367.93s-3.15-2.28-4.21-5.08-.75-7.66-.75-7.66a22.58,22.58,0,0,1,0-9.16c1.05-5.26,6.88-19.72,10.69-20.5,6-1.23,20.33-4.21,24-4s15.42.35,19.28,2.28,2.1,10.16-4.91,11.22a56.16,56.16,0,0,1-13.14.35s-14.55,4.73-15.42,6.13-4.56,8.24-4.56,8.24"/><path class="cls-1" d="M93.14,349s-3.33-5.43-3.15-6"/><path class="cls-1" d="M87.88,351.63s14-5.78,18-6.66,23.13-6,25.41-6,14.54-2.28,19.63-2.63,5.78,4.73,5.43,7.36-1.05,3.68-6,5.78-34,9.46-38,10.86-18.22,6.13-18.22,6.13,18.75-3.68,22.43-4.73,28.57-8.41,34.7-10.51,9.11.88,10,3.15,1.75,6.83-6.13,10-21.91,9.11-29.09,11l-20.85,5.61,41.33-3.15a4.35,4.35,0,0,0,4-4.91l-.8-6.13"/><path class="cls-1" d="M147.11,367.75l.79,5.64a4.14,4.14,0,0,1-3.77,4.7"/><path class="cls-1" d="M81.57,372.66s-4.38,4.21-2.45,9.29"/><path class="cls-1" d="M88.23,385.8s-2.1,5.26-.35,8.94"/><path class="cls-1" d="M102.07,402.8c.53-.17,7.53-4.38,9.64-7s29.09-9.81,36.27-13,10.69-4.38,8.76-8.94c-1.16-2.74-3.15-2.8-5.78-1.93"/><path class="cls-1" d="M94,414.54s13.84-6.13,16.3-10.34a12.22,12.22,0,0,0,1.4-8.41"/><path class="cls-1" d="M69.78,355.19s-4.7,18.34-5.28,26.08c-.37,3.2.6,6.28-2.73,9.61s-10.79,24.79,3,34C80.61,435.49,96.64,423,96.64,423a24.57,24.57,0,0,0,2.12-10.56"/><path class="cls-1" d="M285.54,178.41c-.79-13.17-5-17.29-10.74-27.24-5.48-9.52,2-12.91,2.82-22.75.75-9.4-9-12.16-16.95-8.56s-17.28,12.38-34.2,13.87a30.81,30.81,0,0,1-26.37-11.06s-16.38-9.87-24.69-2.23c0,0-4.53,6.84-2.3,13.91,2.31,7.32,5.26,9.82,2.42,16.52-2.93,6.91-10.64,18.17-10,29"/><path class="cls-1" d="M157.29,177.64s-3.52-26.86-6.08-40.61,7-19.51,8-19.51c0,0-2-9,5.64-13.43S177,107,183.4,99.93s13.43-11.51,21.43-8.63"/><path class="cls-4" d="M192.35,99.61a14.21,14.21,0,0,0,2.24,10.55"/><path class="cls-4" d="M233.93,112.72s8.63-5.76,9.27-13.11"/><path class="cls-4" d="M250.55,107.93a8.27,8.27,0,0,0,5.44-6.4"/><path class="cls-1" d="M255.31,419.06c1.59.26,5,0,5.9,5s.88,19.19-16.83,52.57c-6.28,13.29,1.47,25.38,4.49,29.35"/><path class="cls-1" d="M250.79,418.39c1.35-.11,5.15.67,6,5.69s.88,19.19-16.83,52.57c-6.23,13.18,1.34,25.18,4.42,29.25"/><path class="cls-1" d="M246.22,419.06c.64-.36,5,0,5.9,5s.89,19.19-16.83,52.57c-6.41,13.55,1.78,25.87,4.67,29.58"/><path class="cls-1" d="M240.33,419.33s13.38-9.08,21.65,1.55"/><path class="cls-1" d="M265.05,420.83c0-1.18-11.88-16.88-29.6-1.82"/><path class="cls-1" d="M249.44,444s-6.83-10.45-6.83-18.72,8.56-8,18-5.61"/><path class="cls-1" d="M245.67,426.49a24.45,24.45,0,0,1-.68-2.79"/><path class="cls-1" d="M250.58,437.67a51.6,51.6,0,0,1-4.25-8.7"/><path class="cls-1" d="M248.53,421.19a7.12,7.12,0,0,1,.58-2.72"/><path class="cls-1" d="M249.41,426a11,11,0,0,1-.69-2.19"/><path class="cls-1" d="M252.21,431.51a23.19,23.19,0,0,1-1.45-2.44"/><path class="cls-1" d="M328,550.48H127.73s11.81,7.09,24.22,7.09H304C320.58,557.57,328,550.48,328,550.48Z"/><line class="cls-1" x1="317.62" y1="536.01" x2="217.8" y2="536.01"/><path class="cls-1" d="M320.71,531.11c.05-.35.1-.69.16-1,0,0,5.91-20.67-23.63-24.22s-50.8,20.67-80.33,21.86S190,524.49,177,523.9s-15.95,6.79-15.95,6.79l-.37.76"/><path class="cls-1" d="M225.87,531.27c10.81-1.95,20.53-6.4,30-10.72,11.82-5.4,23-10.51,35.46-10.51a45.26,45.26,0,0,1,5.38.32c8.95,1.07,15,3.86,18,8.28a13.44,13.44,0,0,1,1.82,10.26l0,.16,0,.21q-.18,1-.31,2.05"/><path class="cls-1" d="M166.2,531.28c1.27-1.22,4-2.9,9.4-2.9q.61,0,1.25,0a37.29,37.29,0,0,1,9.23,1.54c1.4.38,2.86.77,4.61,1.13"/><path class="cls-1" d="M242.76,531.1c5.15-2,10.1-4.22,15-6.45,11.36-5.2,22.09-10.1,33.59-10.1a41,41,0,0,1,4.85.29c7.49.9,12.61,3.09,14.81,6.34a10.92,10.92,0,0,1,1.68,6.6l-.07.27-.07.34c-.18,1-.33,2-.45,3.11"/><path class="cls-1" d="M254.41,531.11c1.74-.78,3.47-1.57,5.19-2.36,10.91-5,21.21-9.7,31.72-9.7a36.1,36.1,0,0,1,4.31.26c7.09.85,11.32,3.34,11.48,11.82"/><path class="cls-1" d="M265.42,531.06c9-4.06,17.58-7.5,25.9-7.5a31.6,31.6,0,0,1,3.77.23c.49.06,1,.13,1.41.2a7.34,7.34,0,0,1,6.12,7.35"/><path class="cls-1" d="M276.7,531.23c5.1-1.89,10-3.16,14.63-3.16a27.15,27.15,0,0,1,3.23.19h0a3.8,3.8,0,0,1,3.28,3.17"/><path class="cls-1" d="M137.93,531.06c0-.6,13.15-19.73,29.89-18.33s22.91,13.55,22.91,13.55a54.65,54.65,0,0,1,23.91-6.38"/><path class="cls-1" d="M143.31,531.46s19.73-26.9,42.24-6.57"/><path class="cls-1" d="M150.08,531.26s13.95-15.74,28.29-7.17"/><path class="cls-1" d="M156.86,531.06s7-5.78,9-5.18"/><path class="cls-1" d="M261.26,509.34s6.18-3.59,9.56-13l2.79.8c-1,7.57-9.56,14.55-9.56,14.55s-8-9.37-30.68-4.38S214,527.07,214,527.07s-1.59-5.58-6-6.38"/><path class="cls-1" d="M219.22,527.47s-2.75-12.73,16.34-15.94c21.32-3.59,23.11,2.39,23.11,2.39"/><path class="cls-1" d="M253.49,515.92a49.64,49.64,0,0,0-18.13-.6c-9.36,1.6-11,8-10.36,11.16"/><path class="cls-1" d="M228.78,526.08s-.6-10.36,20.12-7.37"/><path class="cls-1" d="M233.28,524.57s-.13-3.43,9.63-3.62"/><path class="cls-1" d="M237.34,472.24c-3.85,6.69-9.06,13.73-14.13,16.18-12,5.78-26.9,10.16-25.7,23.31"/><path class="cls-1" d="M202.52,512.56s-.63-9.79,8.73-13.18,18.21-7.52,21.79-14.7"/><path class="cls-1" d="M208.86,511.73s-1.79-6,6.57-8.77,15.34-7,17.73-11.56"/><path class="cls-1" d="M214.64,512.73s-3.19-3,3.79-5.38,13.95-7.77,15.74-11.56"/><path class="cls-1" d="M244,478s9.34-15,17.11-25.4,5.38-23.11,5.38-23.11"/><path class="cls-1" d="M255.28,453.55a45.59,45.59,0,0,0,8.37-24.31"/><path class="cls-1" d="M241.14,420.88c-8,0-6.77,6.38-5.78,20.32a31.21,31.21,0,0,1-7.57,22.71l-3.19-1s9.17-9.36,6.77-22.52-1-18.33,3.39-20.72,9.17,0,7.77,10-2.35,27.95-.16,31.93"/><path class="cls-1" d="M242.33,422.87c-4.18.8-5,5.58-4,16.94a74,74,0,0,1-1.79,22.12s-3.79.8-3.79.2,2.49-11,2.69-16"/><path class="cls-1" d="M252.14,465.42c-3.19,13.75,2.15,23.8,2.15,23.8l3.79-.4c-7.17-10.56-1.79-29.69-1.79-29.69"/><path class="cls-1" d="M249.34,469.67a27.21,27.21,0,0,0-.23,15.16l2.59-.6"/><path class="cls-1" d="M269.43,509.54s6.57-7,13-7.37l1.4-3.19s-7.72.22-13.3,5.6"/><path class="cls-1" d="M186.54,520.5s14.15-12.35,31.88-6.38"/><path class="cls-1" d="M188.54,522.49s13.95-8,28.09-6"/><path class="cls-1" d="M205.47,527.67s-1.59-4.18-9.76-3.78"/><path class="cls-1" d="M210.65,528.07a10.73,10.73,0,0,0-9-6.38"/><path class="cls-1" d="M321.83,527.27A11.55,11.55,0,0,1,328,521.7l1.2,3.39c-4.78,1.79-5.58,5.58-5.58,5.58"/><path class="cls-1" d="M299.32,506.15c8.57-.4,18.73,4.38,18.73,4.38l-1.59,3"/><path class="cls-1" d="M150.88,517.11s-5.78,3.19-9.76,4.78a10,10,0,0,1-7,.4l-.4,2.79s4.78,3,10.76-2"/><path class="cls-1" d="M173.19,513.33s-.4-13.55,11.36-18.93,21.32,5.58,42-8.17"/><path class="cls-1" d="M177,514.72c.4-1.19,1.59-15.14,11-17.13s15.14-.6,20.12-2"/><path class="cls-1" d="M180.57,515.92s.61-8.54,6.18-12.75c7.14-5.4,12.15-1.79,15.74-3.79"/><path class="cls-1" d="M199.1,502.92s-16.37,2.49-14.75,15.19l4.58.2"/><path class="cls-1" d="M200.69,512.93s-9.36-2.79-15.34-1.59"/><path class="cls-1" d="M184.35,514.72s7.77,0,9.36.6"/><path class="cls-1" d="M252.34,429s-15.85-.41-16.37-.72-.1-1.55,3.31-1.66,12.74-.52,12.74-.52"/><line class="cls-1" x1="251.93" y1="423.57" x2="242.5" y2="423.68"/><line class="cls-1" x1="243.74" y1="421.4" x2="250.58" y2="421.19"/><path class="cls-1" d="M480.56,550.48l2-32.38c0-37.45-32.07-67.8-69.17-67.8h0c-37.09,0-69.17,30.36-69.17,67.8l2,32.38Z"/><path class="cls-1" d="M271.51,419s28-24.92,27-35.65c-2.09-4.17-40.35-54.42-44.1-58.36s-4.13-7.51-4.13-7.51l4.69-1.12s-1.88-3.75-3.38-5.07a8,8,0,0,0-3-1.69s-21.2,3-26.27,2.44-12.76-4.88-16.51-4.32-4.69,5.25-4.69,5.25l-.19,1.69,5.25,1.5s-25,37.53-29.27,44.47S161.53,385,160,391.82c-.9,4.07,15.67,27.29,29.81,39.92,7.53,6.72,36.84,27.25,37.4,27.25s6-9,4.13-16.89-1.31-17.45-.19-19.33,4.69-3.94,4.69-3.94,6-7.13,15.57-6.19a18.88,18.88,0,0,1,13.89,8.26S269.44,420.32,271.51,419Z"/><path class="cls-1" d="M60.85,391.71a14.63,14.63,0,0,0-4.79,3.38l0,.06c-2.84,3.61-5.71,9.67-5.75,14.27-.08,10.83,4.28,17.32,17.29,21.41,12.74,4,19.69,2,24.95-1,3.56-2,6.93-7.26,5.43-11.67"/><path class="cls-1" d="M342.39,452.75s3.21,2,3.21,4.83c0,3.42-.94,20.29-17.85,23.11s-24.36-9.19-25.39-13.48c-.42-1.74,0-9,2.67-9.8"/><path class="cls-1" d="M360.06,476.1s-1.64-8.14-9.54-18.5c-4.07-5.33-8.15-6.5-8.15-6.5"/><path class="cls-1" d="M302.45,454.78s-4,3.12-4.25,11.33,11,26.9,26,35.67"/><line class="cls-1" x1="305.28" y1="506.31" x2="299.62" y2="473.75"/><path class="cls-1" d="M322.27,487.34s11,7.08,18.12,6.8"/><path class="cls-1" d="M13.2,550h0a8.16,8.16,0,0,0,8,8.33h79.48a8.16,8.16,0,0,0,8-8.33Z"/><path class="cls-1" d="M110.83,420.39s.85,47.53,18.25,81.05"/><line class="cls-1" x1="100.47" y1="558.03" x2="343.63" y2="558.03"/><path class="cls-1" d="M241.93,316s3.89,20.09,10,34.67"/><line class="cls-1" x1="232.53" y1="337.37" x2="233.18" y2="361.67"/><path class="cls-1" d="M196.89,354.22s16.2-28.84,15.88-37.26"/><line class="cls-1" x1="222.16" y1="327.65" x2="221.84" y2="336.4"/><path class="cls-1" d="M208.17,411.46s-.28,15.85,6.79,25.76"/><line class="cls-1" x1="192.59" y1="406.65" x2="194.58" y2="415.14"/><path class="cls-2" d="M359.53,498.53a2.71,2.71,0,0,1-2.51-3.71,61.07,61.07,0,0,1,41.45-36.34,2.7,2.7,0,1,1,1.33,5.24A55.64,55.64,0,0,0,362,496.84a2.71,2.71,0,0,1-2.51,1.7"/><path class="cls-2" d="M355.41,518.24h-.09a2.7,2.7,0,0,1-2.62-2.79,61,61,0,0,1,.73-7.69,2.7,2.7,0,1,1,5.34.85,56,56,0,0,0-.67,7,2.7,2.7,0,0,1-2.7,2.62"/><path class="cls-1" d="M340.08,550.67h0a7.94,7.94,0,0,0,7.9,8H478.8a7.94,7.94,0,0,0,7.9-8Z"/><path class="cls-4" d="M205.5,91s-6.87,18.19,12,37"/><path class="cls-1" d="M253.7,241.87s.27-5.79-4.69-5.65"/><circle class="cls-1" cx="52.18" cy="239.11" r="3.27" transform="translate(-153.81 106.96) rotate(-45.01)"/><circle class="cls-1" cx="63.25" cy="250.18" r="3.27" transform="translate(-158.4 118.03) rotate(-45.01)"/><line class="cls-1" x1="65.83" y1="235.33" x2="49.08" y2="252.08"/><path class="cls-1" d="M78.11,243.8A24.41,24.41,0,1,0,64,265.92l3.68,1.84v-4A24.38,24.38,0,0,0,78.11,243.8Z"/><line class="cls-1" x1="43.98" y1="245.61" x2="37.79" y2="245.61"/><path class="cls-1" d="M411.45,440.07l.85,0c7.59-.26,12.09,2.52,10.3,4.82s-7.94,3.07-14.36,1.54S405.2,440.58,411.45,440.07Z"/><path class="cls-1" d="M420,450.79c0-.47-3.6-2-1.56-4.22"/><path class="cls-1" d="M407.83,450.79c0-.47,3.59-2,1.56-4.22"/><path class="cls-1" d="M63.13,387.65s-4.29.66-10.89,7.59-4.62,5.28-9.9,26.73S21.88,487.29,8,509.73s-5.94,40.91,5.61,42.56"/><path class="cls-1" d="M68.74,354s-4.27,8.24-14.5,15.83S38.71,399.52,37.72,415s-15.84,66-15.84,66"/><path class="cls-1" d="M409.76,439.56s-10.13-16-11.12-31.49-4.29-39.59-14.52-47.18-20.46-13.53-20.46-13.53c-25.41-11.55-48.12-27.69-57.69-32.64s-16.1-7.55-16.1-7.55"/><path class="cls-1" d="M289.8,309.78s-.66-7.92-5.94-11.55-17.16-4.62-17.16-4.62"/><path class="cls-1" d="M190.83,292.27s-15.52,4.31-19.48,7.61-4,10.23-3.3,12.87,22.11,15.84,28,17.16"/><path class="cls-1" d="M144.63,320s18.48-12.54,22.77-12.54"/><path class="cls-1" d="M101.07,549.65s10.23-17.49,9.24-43.88.66-49.49,3.3-58.73"/><path class="cls-1" d="M92.82,528.21c.33-1,9.9-24.75,5.28-48.17a125.17,125.17,0,0,1,1.65-53.45c2.31-8.58,0-12.21,0-12.21"/><path class="cls-1" d="M79.62,478.71s12.87-14.19,20.13-52.13"/><path class="cls-1" d="M204.48,311.47s4.21,1.32,1.73,4.7"/><path class="cls-1" d="M433.78,100.08l-8.54,6.73v49.27H412.72V107l-5.78-6.89C418.64,91.67,433.78,100.08,433.78,100.08Z"/><path class="cls-1" d="M434.36,149.9a14.87,14.87,0,1,1-21.64-13.23v19.41h12.52V136.2A14.84,14.84,0,0,1,434.36,149.9Z"/></svg>