<svg id="Layer_1" data-name="Layer 1" xmlns="http://www.w3.org/2000/svg" viewBox="0 0 141.37 122.18"><defs><style>.cls-1{fill:#fff;}</style></defs><title>1Artboard 3</title><path class="cls-1" d="M65.15,122.18c-9.24-48.63-29.7-93.55-29.94-94l-.91.42c.23.5,20.6,45.19,29.83,93.62H59c-1.55-3.88-3.85-8-7.07-10-7.11-4.49-16.46-9.36-12.35-17.59s10.48-10.1,1.87-18S15.3,62.77,22,53.42s12-11.23,9-17.59S10.44,14.13,20.17,3.28,44.11,10.39,46.36,29.1s4.11,9.72,14.21,21.32,1.5,20.58,3.75,31.8,11.59,5.24,13.09,19.46c1.24,11.76-6,11.76-6.16,20.5Z"/><path class="cls-1" d="M114.83,89.71c.74,15.34-6,14.22-14.22,20.58-5.17,4-5.18,8.57-5.48,11.89H91.54C94.8,94.36,108,54.38,108.19,54l-.95-.32c-.14.43-13.46,40.6-16.7,68.55H85.74a16.67,16.67,0,0,0,.64-11.52c-2.24-7.86-7.11-13.09-3.74-21.33s15.71-8.23,11.6-19.45-7.86-20.21,6.36-26.57,3.74-15,12.72-19.45,7.48,12.34,1.12,31.43-.37,19.08.38,34.42"/><path class="cls-1" d="M7.82,58.65c6.36,6.36,0,13.1,6.36,18.34s9-1.13,15.34,15a144.33,144.33,0,0,1,7.77,30.23H33.47c-5.19-17.26-13.87-33-15.2-34.32l-.7.71c1.28,1.28,9.72,16.65,14.86,33.61H26.82c-.67-.81-1.39-1.65-2.16-2.54-9.73-11.22-17.59-16.09-10.86-18S16,94.57,5.57,78.11,1.46,52.29,7.82,58.65"/><path class="cls-1" d="M133.91,96.82c7.85,6,11.22,7.85,1.49,15.71-5.34,4.32-8.54,6.6-10.64,9.65h-4.34a84.78,84.78,0,0,1,7.94-24.75l-.88-.48a86.13,86.13,0,0,0-8.08,25.23h-2.94c1-6.7,3.57-21.8,7-32.85,4.49-14.59,13.47-22.82,15.72-13.09S126,90.83,133.91,96.82"/></svg>