<?xml version="1.0" encoding="utf-8"?>
<!-- Generator: Adobe Illustrator 21.1.0, SVG Export Plug-In . SVG Version: 6.00 Build 0)  -->
<svg version="1.1" id="Layer_1" xmlns="http://www.w3.org/2000/svg" xmlns:xlink="http://www.w3.org/1999/xlink" x="0px" y="0px"
	 viewBox="0 0 481.5 581.5" style="enable-background:new 0 0 481.5 581.5;" xml:space="preserve">
<style type="text/css">
	.st0{fill:#FFFFFF;}
	.st1{fill:none;stroke:#0D123B;stroke-width:1.33;stroke-miterlimit:10;}
	.st2{fill:#0D123B;}
	.st3{fill:#66BD4B;}
	.st4{fill:none;stroke:#0D123B;stroke-width:1.33;stroke-linecap:round;stroke-linejoin:round;}
	.st5{fill:none;stroke:#FFFFFF;stroke-linecap:round;stroke-miterlimit:10;}
</style>
<title>1Artboard 2</title>
<path class="st0" d="M145.8,158l28.9,32l14.8,5.6l0.2,11l13,14.3c0,0,24.4-34.6,48.1-58.3s34.6-35.9,34.6-35.9l-25.8-18.3
	c0,0-42.7,36.6-60.3,74.5L145.8,158z"/>
<path class="st1" d="M176,256.1l-1-0.8l4.1-5.8c1-1.4,2.6-2.2,4.3-2.2h54.1c1.9,0,3.7,2,4.6,3.6l0.1,0.6"/>
<path class="st2" d="M335.5,205.9c-0.6-2.5-1.4-2.5-2.1-5.7c-0.2-0.7-0.6-1.3-1-1.9v300.5c0,8-6.5,14.4-14.4,14.4H95.4
	c-8,0-14.4-6.4-14.4-14.4v-21.7c-1.2,1.3-3.1,2.1-5.5,4.3l-1.4,0.9v19.4l0.1-0.1c0.1,6.5,5.3,17.7,21.2,18.1h222.5
	c11.5,0,20.8-9.3,20.8-20.8c0,0,0,0,0,0l0.1-282.8C338.1,213.4,336.3,209.2,335.5,205.9"/>
<path class="st2" d="M318,58H95.4c-11.5,0-20.8,9.3-20.8,20.8c0,0,0,0,0,0V242c1,0.7,2,3.2,2.9,4c1.2,0.9,2.4,4.9,3.5,6V78.9
	c0-8,6.4-14.4,14.4-14.4h62.2l10.7,11.3c1.8,1.9,4.3,3,6.9,3H248c2.6,0,5.1-1.1,6.9-3l10.7-11.3h52.3c8,0,14.4,6.5,14.4,14.4v72.5
	c0.8-0.8,1.8-2.5,2.6-3.2c1.2-1.1,2.3-2.9,3.8-3.9V78.9C338.8,67.4,329.5,58,318,58C318,58,318,58,318,58 M193.2,71.4
	c-1.4,0-2.5-1.1-2.5-2.5s1.1-2.5,2.5-2.5c1.4,0,2.5,1.1,2.5,2.5C195.7,70.3,194.6,71.4,193.2,71.4C193.3,71.4,193.3,71.4,193.2,71.4
	 M240.7,70.2h-33.5c-0.7,0-1.3-0.6-1.3-1.3l0,0c0-0.7,0.6-1.3,1.3-1.3c0,0,0,0,0,0h33.5c0.7,0,1.3,0.6,1.3,1.3c0,0,0,0,0,0
	C242.1,69.6,241.5,70.2,240.7,70.2L240.7,70.2"/>
<path class="st0" d="M229.1,436.5h-9.4l-1.9-4.1h-14.5l-1.6,4.1h-9.1c-2.1,0-3.7,1.7-3.7,3.7l0,0v20.4c0,2.1,1.7,3.7,3.7,3.7l0,0
	h36.4c2.1,0,3.7-1.7,3.7-3.7v-20.4C232.8,438.1,231.2,436.5,229.1,436.5z M210.9,459c-5.1,0-9.3-4.1-9.3-9.3c0-5.1,4.1-9.3,9.3-9.3
	c5.1,0,9.3,4.1,9.3,9.3S216,459,210.9,459L210.9,459z M221.8,443c-0.8,0-1.4-0.6-1.4-1.4c0-0.8,0.6-1.4,1.4-1.4
	c0.8,0,1.4,0.6,1.4,1.4C223.3,442.4,222.7,443,221.8,443C221.9,443.1,221.9,443.1,221.8,443L221.8,443z"/>
<path class="st0" d="M199.3,434.7h-6.6c-0.5,0-0.9-0.4-0.9-0.9c0-0.5,0.4-0.9,0.9-0.9h6.6c0.5,0,0.9,0.4,0.9,0.9
	C200.2,434.3,199.8,434.7,199.3,434.7"/>
<path class="st1" d="M179.1,434v-7.2c0-1,0.8-1.8,1.8-1.8h7.4"/>
<path class="st1" d="M242.7,434v-7.2c0-1-0.8-1.7-1.7-1.8h-7.5"/>
<path class="st1" d="M242.7,464.9v7.2c0,1-0.8,1.8-1.7,1.8h-7.5"/>
<path class="st1" d="M179.1,464.9v7.2c0,1,0.8,1.8,1.8,1.8h7.4"/>
<line class="st1" x1="107.1" y1="363.2" x2="334" y2="363.2"/>
<path class="st1" d="M164.4,342.9c0.1,0.6,0,1.1-0.3,1.6c-1.7,3.7-10.4,7.4-21.1,8.8s-20-0.1-22.6-3.3c-0.4-0.4-0.6-1-0.7-1.5
	c-0.5-4.2,9-8.9,21.4-10.4S163.9,338.6,164.4,342.9z"/>
<path class="st1" d="M164.8,346c0.5,4.2-9,8.9-21.4,10.4s-22.7-0.6-23.3-4.9c-0.1-0.6,0-1.1,0.3-1.6c2.6,3.2,11.9,4.7,22.6,3.3
	s19.4-5.1,21.1-8.8C164.5,344.9,164.8,345.4,164.8,346z"/>
<path class="st1" d="M165.5,351.6c0.5,4.2-9,8.9-21.4,10.4s-22.7-0.6-23.3-4.9c-0.1-0.6,0-1.1,0.3-1.6c2.6,3.2,11.8,4.7,22.6,3.3
	s19.4-5.1,21.1-8.8C165.2,350.5,165.5,351,165.5,351.6z"/>
<path class="st1" d="M164.8,347.1c0,0,1.7,0.7-0.2,3.3"/>
<path class="st1" d="M120.3,352.5c0,0-1.9,0.9,0.8,3"/>
<line class="st1" x1="131.8" y1="343.5" x2="132.9" y2="344.2"/>
<line class="st1" x1="136.2" y1="350.6" x2="137.1" y2="349.8"/>
<line class="st1" x1="126.5" y1="347.8" x2="127.7" y2="347.6"/>
<line class="st1" x1="144.7" y1="340.2" x2="144" y2="341"/>
<line class="st1" x1="141.7" y1="345.4" x2="143.3" y2="345.7"/>
<line class="st1" x1="148.9" y1="348" x2="149.7" y2="348.5"/>
<line class="st1" x1="155.5" y1="345.5" x2="157.2" y2="345.4"/>
<line class="st1" x1="151.4" y1="342.3" x2="152.4" y2="341.4"/>
<path class="st1" d="M202.6,362.4h-43.1c-1,0-1.8-0.8-1.8-1.8c0-1,0.8-1.8,1.8-1.8h43.1c1,0,1.8,0.8,1.8,1.8
	C204.4,361.6,203.6,362.4,202.6,362.4z"/>
<path class="st1" d="M165.6,349.3h37.1c1,0,1.8,0.8,1.8,1.8c0,1-0.8,1.8-1.8,1.8h-37.2"/>
<path class="st2" d="M165.3,352.7h37.8c1,0,1.8,0.8,1.8,1.8c0,1-0.8,1.8-1.8,1.8h-41"/>
<path class="st1" d="M202.8,358.9c0.7,0,2.6-1.4,0.7-2.6"/>
<path class="st2" d="M164.7,347.4c0,0,0.9,0.7,0.1,2.7s-11.6,8.1-21.9,9s-15-0.5-17.3-1s-5-2-5.2-2.3s-1-3.1,0.4-2.4
	c0.6,0.2,1.2,0.5,1.7,0.9c1.2,0.8,10.2,4,20.7,2.4c12.3-1.9,19.8-6.1,20.5-7.1C164,348.9,164.4,348.2,164.7,347.4"/>
<polyline class="st2" points="245.7,306.3 245.7,255.9 232,255.9 232,297.2 "/>
<line class="st1" x1="161.6" y1="339.3" x2="161.6" y2="265.1"/>
<path class="st2" d="M232.1,255.9l-6.4,6.8c-1.6,1.6-3.7,2.6-6,2.5h-58.2c-1.4,0-2.6-1.2-2.6-2.6c0-0.4,0.1-0.8,0.3-1.1l2.6-5.6
	L232.1,255.9"/>
<polyline class="st2" points="245.6,256 250.2,250.8 241.4,250.8 232.1,256 "/>
<path class="st1" d="M161.8,327.6c0,0,14.3,6.5,26.6-3c7.6-5.8,14.3-15.3,23.4-21"/>
<path class="st1" d="M161.8,323.5c0,0,12.4,7.8,26.6-5.7c11.2-10.7,13.8-39.7,44-38.8"/>
<path class="st2" d="M219.1,277h-47.2c-0.8,0-1.5-0.7-1.5-1.5c0,0,0,0,0,0V273c0-0.8,0.7-1.5,1.5-1.5h47.2c0.8,0,1.5,0.7,1.5,1.5
	v2.6C220.6,276.4,220,277,219.1,277C219.2,277,219.2,277,219.1,277"/>
<path class="st2" d="M194.4,286.3H172c-0.9,0-1.6-0.7-1.6-1.5v-2.4c0-0.9,0.7-1.5,1.6-1.5h22.4c0.9,0,1.6,0.7,1.6,1.5v2.4
	C196,285.6,195.3,286.3,194.4,286.3"/>
<path class="st2" d="M78.7,245.4l4.2-3.9l1.4,6.2c1.1-3.7,6.3-11.3,6.3-11.3l1.9,7.5c0,0,11.1-9.2,24.9-3.4c-5.7,0.4-13.6,8-13.6,8
	s2.1-1.3,13,2.7c-3.8,0.6-10.3,6.9-10.3,6.9s1.5-0.6,6.1,0.2c-2.5,0.8-5.4,6.1-5.4,6.1s-9.4-1.7-14.5-0.2c-4.4-3.6-14.2-16-14.2-16
	L78.7,245.4z"/>
<path class="st2" d="M77.2,183.9c-1.9,0-67.1-26.4-67.1-26.4l66,38.2L77.2,183.9z"/>
<path class="st2" d="M71.8,329.5l42.5,69.3c0,0,5.2-17.7-5.2-32.5s-15.3-20.5-15.3-20.5s-6,0.3-9.5-2.5s-1.1-4.4-2.2-4.6
	s-11.7-13.1-11.7-13.1L71.8,329.5z"/>
<path class="st2" d="M78.6,415.7c0,1.1,11.7,13.4,13.6,25.9s-2.7,25.9-2.7,24.8s-17.5-60-17.5-60l5.2,4.4L78.6,415.7z"/>
<path class="st2" d="M356.4,253.4c0,0-18.1,122.4-18.1,119.6s0.5-132.3,0.5-132.3L356.4,253.4z"/>
<path class="st2" d="M476,579.4h-17.6c0,0,21.7-122.4,20.3-122.4S487.3,532,476,579.4"/>
<path class="st1" d="M309,306.9c0,0-6,1.9-8.9,5.3s-11.5,20.5-31.8,25.5s-32.4-3.1-39-4.7s-14.7,0.8-14.7,0.8l-1.2,3.1
	c1.1,5.9,4.3,11.3,9,15c7.4,5.6,22.2,18.5,56.1,7.6s39.3-36.6,39.6-39.1s-2.7-12.6-2.7-12.6s-1.2-13.4,1.2-18.5
	c1.2-2.6,2.6-5.2,4.2-7.6c0,0-0.1-2.6-1-1.9s-4.2,7.6-7.4,7.9s-3.1-5.2-3.1-5.2s-1.5,2.7-0.6,5.2s1.7,1.3,1.1,7.1
	c-0.6,4.3-1.7,8.6-3.2,12.7"/>
<path class="st1" d="M301.4,304.3c0,0-5.9,0.7-9.1,3.4s-14.2,13.9-33.9,15s-29.9-8.7-35.9-11.3s-13.9-1.9-13.9-1.9l-1.6,2.7
	c0,0-0.9,7.5,5.5,14.4c1.9,2.2,4.1,4.3,6.4,6.1"/>
<path class="st1" d="M216.6,309.6c-1.4-1.2-1.5-1.8-3.5-4.6c-5.5-7.8-3.6-15.1-3.6-15.1l1.9-2.4c0,0,8,0.3,13.6,3.8
	s12.7,15.6,32.4,17.3s27.7-4.4,31.2-6.6s9.5-2.1,9.5-2.1s5.8-3.9,8.2-8.1c1.1-1.8,1.8-3.7,2-5.8"/>
<path class="st2" d="M309,281.2c0,0,5.7-3,7.7-3.3c1.1-0.2,2.3,0.2,3,1.1c0,0-5.2,7.5-7.3,7.7S308.6,285.2,309,281.2"/>
<path class="st2" d="M213.4,336.8c0.9,2.3,3.4,0.6,3.4,0.6v-2.7l-2.2-1"/>
<path class="st2" d="M208.7,309l1.3,0.6v2.7c0,0-2.4,1.5-3.4-0.4C207.3,310.9,207.9,309.9,208.7,309"/>
<path class="st2" d="M210.3,288.5c0.3-0.3,0.6-0.6,0.9-1l1.5,0.6v2.7c0,0-2.6,1.6-3.4-0.6l0.3-0.7
	C209.8,289.2,210,288.9,210.3,288.5"/>
<path class="st1" d="M300.8,304.1c0,0,3.6-4.7,6-8.4c1.3-1.9,2.2-4.1,2.6-6.4"/>
<path class="st1" d="M293.9,328.1c0,0-31.1,32.9-66.2,8c-2.4-0.8-7.1-0.6-7.1-0.6"/>
<path class="st1" d="M307.2,290.1v-16.8c0-4.7-2.7-9.1-6.9-11.2l-7.3-3.7v-3.8c-3.7-0.5-7.4-0.7-11.1-0.7c-3.4-0.1-6.8,0.2-10.2,0.9
	v3.5l-7.3,3.7c-4.2,2.1-6.9,6.4-6.9,11.2v35.4"/>
<line class="st1" x1="305.9" y1="343.7" x2="305.9" y2="362.6"/>
<path class="st2" d="M282.3,249.6c-10.7,0-14.3,2.5-14.3,2.5v2.4c1.1,0.7,2.3,1.2,3.6,1.4c0-0.4,0.1-0.8,0.4-1.1
	c0.3-0.4,0.7-0.7,1.2-0.9c0.5-0.1,1-0.1,1.5,0.1c5.8,0.2,11.7-0.1,17.5-0.1c0.3,0,0.6,0.1,0.7,0.3l0,0c0.2,0.2,0.3,0.4,0.3,0.7v1.2
	c1.3-0.2,2.6-0.6,3.8-1.2l0.3-2.5C297.3,252.5,293,249.6,282.3,249.6"/>
<path class="st2" d="M260,308.7v-23.9c0-1.9,1.6-3.5,3.5-3.5h23.3c1.9,0,3.5,1.6,3.5,3.5V301c0,0-7.1,6.4-15.5,7.1
	S260,308.7,260,308.7"/>
<path class="st1" d="M143.1,304.6c0,0-8.3-38.9-44.9-41c-1.8-0.2-3.7,0.1-5.4,0.7"/>
<path class="st2" d="M124.1,74.6l-1.4,1.4c-2.7-2.8-7.2-2.9-10.1-0.2c0,0,0,0,0,0l-1.4-1.5C114.8,70.8,120.6,70.9,124.1,74.6
	C124.1,74.6,124.1,74.6,124.1,74.6"/>
<path class="st2" d="M121.8,76.8l-1.2,1.2c-1.6-1.7-4.4-1.8-6.1-0.2c0,0,0,0,0,0l-1.1-1.2C115.8,74.4,119.6,74.5,121.8,76.8"/>
<path class="st2" d="M119.6,79l-2,1.9l-1.9-2C116.7,77.8,118.5,77.9,119.6,79C119.5,79,119.5,79,119.6,79"/>
<path class="st2" d="M303.5,79.8h-1.1c-1,0-1.8-0.8-1.8-1.8v0v-3c0-1,0.8-1.8,1.8-1.8l0,0h1.1c1,0,1.8,0.8,1.8,1.8v3
	C305.3,79,304.5,79.8,303.5,79.8L303.5,79.8"/>
<path class="st2" d="M309.2,79.8h-1.1c-1,0-1.8-0.8-1.8-1.8v0v-3c0-1,0.8-1.8,1.8-1.8l0,0h1.1c1,0,1.8,0.8,1.8,1.8v3
	C311,79,310.2,79.8,309.2,79.8L309.2,79.8"/>
<path class="st2" d="M314.7,81.2H301c-0.9,0-1.7-0.8-1.7-1.7v0v-5.8c0-0.9,0.8-1.7,1.7-1.7l0,0h13.7c0.9,0,1.7,0.8,1.7,1.7v0v5.8
	C316.4,80.4,315.7,81.2,314.7,81.2L314.7,81.2 M301,72.4c-0.7,0-1.2,0.5-1.2,1.2v0v5.8c0,0.7,0.5,1.2,1.2,1.2l0,0h13.7
	c0.7,0,1.2-0.5,1.2-1.2v0v-5.8c0-0.7-0.5-1.2-1.2-1.2l0,0L301,72.4z"/>
<path class="st2" d="M316.7,78.7V74l0.4,0.2c1.2,0.5,1.8,1.9,1.3,3.2c-0.2,0.6-0.7,1-1.3,1.3L316.7,78.7z M317.2,74.8v3.1
	c0.9-0.6,1.1-1.8,0.5-2.6C317.6,75.1,317.4,74.9,317.2,74.8"/>
<path class="st2" d="M94.6,80.9h-1.3c-0.3,0-0.6-0.3-0.6-0.6l0,0v-2.1c0-0.3,0.3-0.6,0.6-0.6l0,0h1.3c0.3,0,0.6,0.3,0.6,0.6l0,0v2.1
	C95.1,80.7,94.9,80.9,94.6,80.9L94.6,80.9"/>
<path class="st2" d="M106.3,80.9H105c-0.3,0-0.6-0.3-0.6-0.6l0,0v-8.7c0-0.3,0.3-0.6,0.6-0.6l0,0h1.3c0.3,0,0.6,0.3,0.6,0.6l0,0v8.7
	C106.9,80.7,106.6,80.9,106.3,80.9L106.3,80.9"/>
<path class="st2" d="M98.5,80.9h-1.3c-0.3,0-0.6-0.3-0.6-0.6l0,0v-3.6c0-0.3,0.3-0.6,0.6-0.6l0,0h1.3c0.3,0,0.6,0.3,0.6,0.6l0,0v3.6
	C99.1,80.7,98.8,80.9,98.5,80.9L98.5,80.9"/>
<path class="st2" d="M102.4,80.9h-1.3c-0.3,0-0.6-0.3-0.6-0.6l0,0v-6.1c0-0.3,0.3-0.6,0.6-0.6l0,0h1.3c0.3,0,0.6,0.3,0.6,0.6l0,0
	v6.2C103,80.7,102.7,80.9,102.4,80.9L102.4,80.9"/>
<path class="st3" d="M272.3,299c0.1,2.6-1.9,4.8-4.5,4.9c-2.6,0.1-4.8-1.9-4.9-4.5c0-0.1,0-0.3,0-0.4c0-2.6,4.7-8.9,4.7-8.9
	S272.4,296.4,272.3,299"/>
<path class="st1" d="M150.4,188.3c2.2-0.2,4.5-0.3,6.7-0.3c11.2,0,22.3,2.6,32.3,7.8"/>
<path class="st1" d="M209.4,232.1c2.1,5.1,3.6,10.5,4.5,16"/>
<path class="st1" d="M75.9,237.6c3.9-10.5,9.8-20.3,17.3-28.7c5.2-5.8,16.4-12.2,16.4-12.2c10.4-5.7,22.1-8.7,34-8.6
	c2.3,0,4.5,0.1,6.8,0.3c4,0.4,8,1.1,11.8,2.1l1.2,0.4"/>
<path class="st1" d="M209.9,231.9h-1l-45.3,8.7c0,0-1-49.2-0.2-49.7s26.2,4.6,26.2,4.6v40"/>
<path class="st1" d="M209.9,231.9l13.6,0.4c1.9,5.1,3.3,10.4,4,15.8"/>
<path class="st2" d="M173.4,215.3c0,1.1-0.9,1.9-1.9,1.9s-1.9-0.9-1.9-1.9c0-1.1,0.9-1.9,1.9-1.9S173.4,214.2,173.4,215.3
	L173.4,215.3"/>
<path class="st2" d="M177.3,226.7c0,0.5-0.4,0.9-0.9,0.9c-0.5,0-0.9-0.4-0.9-0.9c0-0.5,0.4-0.9,0.9-0.9S177.3,226.2,177.3,226.7
	L177.3,226.7"/>
<path class="st2" d="M181.7,232.5c0,0.5-0.4,0.9-0.9,0.9c-0.5,0-0.9-0.4-0.9-0.9c0-0.5,0.4-0.9,0.9-0.9S181.7,232,181.7,232.5
	L181.7,232.5"/>
<path class="st2" d="M180.5,202.5c0,1.2-0.9,2.1-2.1,2.1c-1.2,0-2.1-0.9-2.1-2.1c0-1.2,0.9-2.1,2.1-2.1c0,0,0,0,0,0
	C179.5,200.4,180.5,201.3,180.5,202.5"/>
<path class="st2" d="M170.2,200.1c0,0.9-0.7,1.6-1.6,1.6s-1.6-0.7-1.6-1.6s0.7-1.6,1.6-1.6C169.5,198.6,170.2,199.3,170.2,200.1"/>
<path class="st2" d="M187.9,231.3c0,1.2-1,2.2-2.2,2.2s-2.2-1-2.2-2.2s1-2.2,2.2-2.2h0C186.9,229.1,187.9,230.1,187.9,231.3"/>
<path class="st2" d="M168.2,234.1c0,0.6-0.4,1-1,1s-1-0.4-1-1s0.4-1,1-1S168.2,233.5,168.2,234.1"/>
<path class="st2" d="M173.1,206.2c0,0.6-0.4,1-1,1s-1-0.4-1-1s0.4-1,1-1S173.1,205.6,173.1,206.2"/>
<path class="st2" d="M187.2,211c0,1.1-0.9,2.1-2.1,2.1s-2.1-0.9-2.1-2.1c0-1.1,0.9-2.1,2.1-2.1l0,0
	C186.3,208.9,187.2,209.9,187.2,211"/>
<path class="st2" d="M183.1,220.9c0,0.6-0.4,1-1,1s-1-0.4-1-1s0.4-1,1-1S183.1,220.4,183.1,220.9"/>
<path class="st2" d="M187.2,197.6c0,0.6-0.5,1.1-1.1,1.1c-0.6,0-1.1-0.5-1.1-1.1c0-0.6,0.5-1.1,1.1-1.1l0,0
	C186.8,196.5,187.2,197,187.2,197.6"/>
<path class="st2" d="M168.7,225c0,0.6-0.4,1-1,1s-1-0.4-1-1s0.4-1,1-1S168.7,224.4,168.7,225"/>
<line class="st1" x1="300.3" y1="390" x2="306.3" y2="465.8"/>
<line class="st1" x1="289.6" y1="443" x2="288.9" y2="485.3"/>
<line class="st1" x1="134.6" y1="381.3" x2="131.9" y2="417.5"/>
<polyline class="st1" points="147.7,337.1 156,305.2 116.9,305.2 "/>
<path class="st1" d="M53.7,307.4c0,0-1.9,7.3-8.4,9.9"/>
<path class="st4" d="M344.4,479.4c-5.1-25.8-7-52.1-5.6-78.4c2.5-41.7,25.5-92.1,36.1-100.2c-1.2-9.3-1.9-29.2-14.3-44.2
	c-12.4-14.9-27.4-56-33-72.8s2.5-30.5,11.2-39.8s14.9-5,19.3,0s39.8,61.6,61.6,86.5s40.4,42.3,44.2,55.4s0.6,26.8-0.6,44.2
	s10,49.1,15.5,124.4s-2.5,126.3-2.5,126.3"/>
<path class="st4" d="M201.3,519.2c7.4,10.3,15.5,20,24.3,29.2c13.7,14.3,20.5,14.9,24.3,19.3s4.4,13.1,4.4,13.1"/>
<path class="st4" d="M379.8,175.8c-5.5,1.5-10.4,4.5-14.3,8.7c-6.2,6.8-17.4-23-16.2-31.7s8.7-8.7,8.7-8.7"/>
<path class="st4" d="M350.6,317c0,0,15.5-15.5,24.3-16.2l-16.2-2.5"/>
<path class="st4" d="M338.2,241.7c0,0,17.4,10,22.4,14.9"/>
<path class="st4" d="M82.3,339.4c0.7,3.6,3,5.7,9.5,6.1s23.7-9.7,24.8-28s-2.9-34-17.5-46.7S76.4,246.3,75,242.3"/>
<path class="st4" d="M88.4,297c2.5,2.2,3.1,6,1.2,8.8c-2.8,4.4-4.8,9.2-6,14.3c-1.3,6.4-1.8,12.9-1.5,19.4c0,0-15.7-17.1-20.8-23.7
	s-5.1-16.1-1.1-21.9s12.4-6.2,17.5-4.4C80.7,290.4,85.1,294,88.4,297z"/>
<path class="st4" d="M75.3,214.6c0,0-19,18.2-28.1,24.1s-17.9,8.8-19.4,24.8c-1.5,16.1,1.5,21.5,11,28.1s15.7,19,20.4,21.2"/>
<path class="st4" d="M99.1,270.8c-3.2-2.2-6.8-3.9-10.6-4.8"/>
<path class="st4" d="M56,310.6c-1.1,0.7-10.2,16.4-18.2,20.1s-11.3,15-9.9,25.2s12.8,16.4,24.4,29.2s25.2,26.3,25.2,26.3"/>
<path class="st4" d="M92.7,345.5c0,0,19.8,20.6,22.4,35.5c2.5,13.7-2.3,27.7-12.8,36.9c-9.8,8.8-20.8,1.8-23-1.8s-2.9-6.9,0.7-16.8
	c2.1-5.7,5.9-11.5,8.7-15.4c2.4-3.2,1.8-7.7-1.3-10.3c-4.7-3.9-10.8-5.7-16.9-5c-15,1.5-17.3,14.5-13.3,21.4"/>
<path class="st4" d="M73.9,329.9c0,0-7.3-7.7-13.5-5.1"/>
<path class="st4" d="M60.3,394.1c0,0-8.3,6.6-14.4,8.5S35.7,412,34,420s1.6,11.3,6.3,17.4c0,0,14.9,25.7,17.3,33.4s3.1,8.8,7.7,12
	s20.7-4.3,25.5-23.3s0.3-20.6-5.1-31.2c-3.9-7.6-7.6-13.1-7.6-14.2"/>
<path class="st4" d="M49,452.3c-2.8-4.4,2.8-14.1,11.4-13.5s15.3,13.4,15.3,13.4s2.4,2.1-4.2,5S59.4,469.6,59.1,472"/>
<path class="st4" d="M76.6,194.9c0,0-58.3-29.5-68.5-39.2c-13-12.3-8-33,6.7-42.2s60,16.8,60,16.8"/>
<line class="st5" x1="65.5" y1="53.9" x2="37.6" y2="31.5"/>
<line class="st5" x1="92.8" y1="42.1" x2="88.5" y2="0.5"/>
<line class="st5" x1="61.8" y1="79.9" x2="22.7" y2="79.9"/>
</svg>
