<svg id="Layer_1" data-name="Layer 1" xmlns="http://www.w3.org/2000/svg" viewBox="0 0 515.97 569.47"><defs><style>.cls-1{fill:#fff;}.cls-2,.cls-4,.cls-5,.cls-6,.cls-7{fill:none;}.cls-2,.cls-7{stroke:#0c123a;}.cls-2,.cls-4,.cls-5,.cls-6{stroke-miterlimit:10;}.cls-2,.cls-4,.cls-6,.cls-7{stroke-width:1.33px;}.cls-3{fill:#0c123a;}.cls-4,.cls-5{stroke:#fff;}.cls-5{stroke-width:2px;}.cls-6{stroke:#ee4b70;}.cls-7{stroke-linecap:round;stroke-linejoin:round;}</style></defs><title>1Artboard 3</title><path class="cls-1" d="M280.08,252.05a89.89,89.89,0,0,1,2.49-14.56,57,57,0,0,1,3.51-9.53s-8.44,3.77-9.2,10.61,3.21,13.48,3.21,13.48"/><path class="cls-1" d="M263.75,192s1.53-6.11-.76-10.7-.77-14.27.26-18.09,4.08-8.66,6.11-11.21,7.13-5.35,7.13-5.35-13.18,8.68-6.94,33.48c2.74,10.89-3.9,15-3.9,15h-2.11Z"/><path class="cls-1" d="M285.25,263.63s-7.5,3.2-9.31,2.92-1-4.17,2.5-4.45a14,14,0,0,1,6.81,1.53"/><path class="cls-1" d="M263.9,253.86c-1.65,0-2.38-2.59-1.15-5.93a65.69,65.69,0,0,0,3.81-37.29s1,13-2,21.91c-2.29,6.67-5.14,15-5.58,19.06a2.21,2.21,0,0,0-.13,1,.81.81,0,0,0,.09.28c0,.62.2,1,.52,1.11.11,0,.28-.1.48-.35a23.73,23.73,0,0,0,6,1c2.13.18-.37-.74-2-.74"/><path class="cls-1" d="M158,226.35c0,7.92-3,14.35-6.62,14.35s-6.62-6.42-6.62-14.35,3-14.34,6.62-14.34,6.62,6.42,6.62,14.34"/><path class="cls-2" d="M375.25,221.67c-.82,27.67,18,36.84,20.38,39.82"/><path class="cls-2" d="M364.58,213.5c-.56,5.18-1.28,10.18-3.47,12.71-4,4.66-13,.62-13,.62"/><path class="cls-3" d="M375.92,222.19c0-1.16,1-4.75,1.28-6.26,2.28-12.15,18.7-19.57,20.57-41.32s-20.51-28.27-20.51-28.27,2.8-7.77-3.42-13.36-32.62-15.84-38.52-14.29-7.77,9.94-16.46,8.39-9.63-8.39-14.6-6.52-3.11,8.08-9,9-10.41-5.1-14.13-10.38c-9.32,3.11-11.45,22-3,26.85,6.4,3.68,11.5,3.42,27.34-1.86s33.24-.93,41,3.42-1.86,8.08-11.5,15.22-8.08,14-7.77,26.1,2.29,20.93,2.49,26.11c2.05,1,5.76,2.08,10.5-2.18,1.88-1.69,2-6.1,2-6.1.93-8.39,8.1-16.41,17.74-14.86s9.94,7.77,7.77,14.91c-1,3.27-3.12,2.14-3.59,6.51Z"/><path class="cls-3" d="M352.75,253c.85-.74-35.35,39.84-35.35,39.84s-14.94-3.7-14.46-3.53,12.53-3.7,49.8-36.31"/><path class="cls-2" d="M347.86,220s6.21-4,3.73-6.4-4-2.13-4-5.34,6.11-16.43,16-10.3"/><path class="cls-2" d="M351.19,201.12s5.15,6.51.41,12.45"/><path class="cls-2" d="M358.12,206.49a9.23,9.23,0,0,0,0-9.63"/><path class="cls-2" d="M276.91,145.11c-3.42,0-11.81,8.39-13.67,17.4s-1.55,15.55,0,20.52-.62,14.6-.62,14.6c-.31,5.9.31,5.59,3.11,12.43,1.24,5.59,1.55,16.47-2.8,28s-5.59,15.84-2.8,16.47,16,2.15,16-3.44c0-3-1.55-3.73-1.55-3.73"/><path class="cls-2" d="M272.44,206.42s7.51,1.06,10.9,7.25c0,0-7.56-1.94-10-.44l.45-6.06"/><path class="cls-3" d="M264.87,191.14s-.83,4.46,1.39,4.23,11.36-1.34,15.24-.67,4.43,0,5.54-1.34,3-4.45-1.39-6-20.51.67-20.78,3.79"/><path class="cls-2" d="M270.39,255.41s2.17,6.52,4,6.52,11.5,1.86,14,1.55"/><path class="cls-2" d="M285.61,275.29a46.93,46.93,0,0,0-7.46-5.59c-3.42-1.86-4-5.59-1.24-7.46"/><path class="cls-2" d="M281.88,272.24s-4.65,11.95,1.24,15.49c6.21,3.73,17.09,1.55,17.09,1.55,17.71-3.42,47.22-32.31,51.57-35.73s2.58-24.76,2.58-24.76"/><path class="cls-2" d="M336.87,314.75s-8.08-14.91-15.53-19.57-17.4-6.53-21.13-5.9"/><path class="cls-3" d="M273.94,212.74a3,3,0,0,0,0,.3v3.73a2.56,2.56,0,1,0,5.1,0V213a3,3,0,0,0,0-.3Z"/><path class="cls-3" d="M288.64,203v6.43c10.19-.76,50-3.53,50.7-3.53l1.73-5.28Z"/><path class="cls-3" d="M284.7,202.15c0-.35-.07-.69-.11-1,0,0-8.58-2.79-14.24-2.48a28,28,0,0,0-6.51,1.13c-1.6.48-2.7,2.49-2.58,4.73.33,6.5,1.08,19.74,2.09,24.59,1.36,6.52,10.4,9.63,14.69,3.73,3-4.16,5.83-11.74,6.66-20.43Zm-8.27,28.43a5.39,5.39,0,0,1-4.48,2.21c-3,0-5.89-2.09-6.4-4.58-.68-3.28-1.42-12-2-23.93a1.39,1.39,0,0,1,.8-1.46,25.49,25.49,0,0,1,6.11-1.06c.27,0,.55,0,.83,0a47,47,0,0,1,11.27,2c.82,11-2.34,21.69-6.11,26.88"/><line class="cls-4" x1="164.45" y1="203.22" x2="241.81" y2="154.44"/><line class="cls-4" x1="169.11" y1="247.33" x2="240.87" y2="282.44"/><line class="cls-4" x1="170.97" y1="233.35" x2="237.46" y2="239.88"/><line class="cls-4" x1="209.18" y1="208.81" x2="238.08" y2="203.84"/><line class="cls-5" x1="168.18" y1="217.51" x2="179.36" y2="215.02"/><path class="cls-3" d="M149.22,208.81c-5.49,0-9.94,8-9.94,17.87s4.45,17.86,9.94,17.86,9.94-8,9.94-17.86-4.45-17.87-9.94-17.87m1.67,31.07c-3.17,0-5.75-5.91-5.75-13.2s2.58-13.21,5.75-13.21,5.75,5.91,5.75,13.21-2.57,13.2-5.75,13.2"/><path class="cls-2" d="M215.71,405.47s-23.92-1.86-28.27-1.24-3.73,9.63-.93,13,9.63,2.48,9.63,2.48"/><path class="cls-2" d="M203.9,419.45a13.29,13.29,0,0,0-5.28-1.24c-3.73-.31-4.66,5.28-4.66,10.56s9.94,8.7,9.94,8.7"/><path class="cls-2" d="M197.07,434.05c-3.73-.31-4.66,5.28-4.66,10.56s9.94,8.7,9.94,8.7"/><path class="cls-2" d="M228.45,472.27s-14.29-3.11-23-5.9-9.94-4.66-10.56-7.77,1.55-8.39,1.55-8.39"/><path class="cls-2" d="M266.35,446.17s-14.29-12.43-21.44-21.44-7.46-17.4-15.53-22.06-23-.93-23-.93"/><path class="cls-2" d="M205.46,404.23v-6.83a5,5,0,1,0-9.94,0v6.52"/><path class="cls-2" d="M225.73,471s20.09,7.19,25.11,12.22"/><path class="cls-2" d="M50.3,448.52c-2.1.84-2.34,15.13.45,16.37s64-.7,65.84-3.49,2.49-9.32-1.55-10.87S56.52,446,50.3,448.52Z"/><path class="cls-2" d="M116.6,461.39a5.38,5.38,0,0,1-2.1,2.59c-1.59,1-14,3-29.82,3.46s-34.46,0-36.33,0-1.85-3.06-2.57-7.38a38.16,38.16,0,0,1,.17-10,12,12,0,0,1,5.11-2"/><path class="cls-2" d="M71,467.87h0c-.15,0-.93,42.79-1.12,53.11a4.32,4.32,0,0,1-2,3.55c-3,1.89-8.87,5.14-14.79,5.14-5.52,0-11.18-2-14.38-3.37a4.37,4.37,0,0,1-2.65-4c-.15-16.15-.91-98.61-.26-99.13a24.1,24.1,0,0,1,17.58-8.35,26,26,0,0,1,16.08,5,4.35,4.35,0,0,1,1.78,3.5l.19,24h0"/><line class="cls-2" x1="292.78" y1="563.97" x2="293.09" y2="520.06"/><path class="cls-2" d="M195.79,452.13H168s-2.88-1.85-2.88-7.61.21-62.16.21-62.16l-1.85-5.76h67.1l-1.65,5.76v19.55"/><polyline class="cls-3" points="169.44 451.92 169.65 455.42 194.96 455.42 195.79 452.13"/><line class="cls-2" x1="224.81" y1="381.33" x2="190.64" y2="381.33"/><path class="cls-3" d="M192,312.46s15,8.65,9.88,21.2-4.73,29.84,4.73,33.55c-24.9-3.09-29.23-11.73-27.37-20.79,2.56-12.52,23.26-10.29,12.76-34"/><path class="cls-3" d="M204.58,307.93s12.15,10.41,7.2,21c-4.15,8.86-7.41,11.94-3.5,20,0,0,1.18-8.32,9-17.17s.05-20.5-12.71-23.79"/><polyline class="cls-2" points="318.85 127.09 318.85 25.85 23.35 25.85 23.35 569.47"/><polyline class="cls-2" points="0.67 567.64 0.67 9.52 337.27 9.52 337.27 118.13"/><line class="cls-2" x1="295.24" y1="129.57" x2="295.24" y2="25.85"/><line class="cls-2" x1="295.24" y1="455.42" x2="295.24" y2="290.54"/><circle class="cls-2" cx="459.37" cy="56.6" r="55.94"/><path class="cls-3" d="M515.31,63.22a55.94,55.94,0,1,1-111.88,0c0-1,0-2,.08-3a55.94,55.94,0,0,0,111.72,0c0,1,.08,2,.08,3"/><circle class="cls-2" cx="456.69" cy="29.73" r="2.78"/><circle class="cls-2" cx="463.21" cy="29.73" r="2.78"/><circle class="cls-2" cx="459.64" cy="57.15" r="2.78"/><path class="cls-2" d="M459.69,54.74s-.2-16.43,2.91-22.23"/><path class="cls-2" d="M459.59,54.74s.2-16.43-2.91-22.23"/><path class="cls-2" d="M459.69,19.95s-.2,5.18,2.91,7"/><path class="cls-2" d="M459.59,19.95s.2,5.18-2.91,7"/><line class="cls-2" x1="459.64" y1="67.54" x2="459.64" y2="59.93"/><line class="cls-2" x1="434.35" y1="10.65" x2="436.93" y2="15.47"/><line class="cls-2" x1="481.4" y1="98.46" x2="483.98" y2="103.27"/><line class="cls-2" x1="412.85" y1="81.78" x2="417.67" y2="79.2"/><line class="cls-2" x1="500.66" y1="34.73" x2="505.47" y2="32.15"/><line class="cls-2" x1="413.65" y1="30.72" x2="418.38" y2="33.45"/><line class="cls-2" x1="499.95" y1="80.48" x2="504.68" y2="83.21"/><line class="cls-2" x1="432.92" y1="102.48" x2="435.65" y2="97.75"/><line class="cls-2" x1="482.68" y1="16.18" x2="485.41" y2="11.45"/><circle class="cls-2" cx="459.16" cy="106.77" r="1.71"/><circle class="cls-2" cx="459.16" cy="6.47" r="1.71"/><circle class="cls-2" cx="509.32" cy="56.62" r="1.71"/><circle class="cls-2" cx="409.01" cy="56.62" r="1.71"/><path class="cls-2" d="M456.78,55.94,420.91,45.15a.84.84,0,1,0-.48,1.61l36.69,10.89"/><path class="cls-3" d="M176,376.72a13.45,13.45,0,0,1,2.51,7v63.16a7.91,7.91,0,0,0,2,5.31l-12.45,0s-2.88-.74-2.88-7.61v-63l-1.65-4.87"/><path class="cls-2" d="M285.19,264.12s-7.6,3.24-9.43,3-1-4.22,2.53-4.5A14.14,14.14,0,0,1,285.19,264.12Z"/><polygon class="cls-3" points="23.9 39.31 23.9 26.37 294.81 26.37 23.9 39.31"/><path class="cls-2" d="M39.16,521.73V425.22s13.26-13.83,29.35-3.1"/><path class="cls-3" d="M58.63,497a3.1,3.1,0,1,0-4.38,2.82V506a1.28,1.28,0,0,0,2.56,0v-6.12A3.1,3.1,0,0,0,58.63,497"/><path class="cls-2" d="M282.94,231.79s7.07-11.21,5.25-29.92"/><path class="cls-6" d="M284.92,144s-12.55-7-3.69-21.41"/><line class="cls-6" x1="290.46" y1="143.23" x2="288.98" y2="136.58"/><path class="cls-6" d="M348,176.08s23.25,4.06,25.47,19.19"/><path class="cls-6" d="M358,171.65s12.92,1.85,15.87,10.7"/><path class="cls-6" d="M368.71,146.55s4.92-8.78-11.44-14.76"/><path class="cls-6" d="M362.94,146.78s2.44-5.63-4.56-8"/><path class="cls-3" d="M199.38,392.55a5,5,0,0,0-3.86,4.84v6.52l3.86.12Z"/><path class="cls-2" d="M333.71,310.21s-2.48,7.17.55,8,13.83-19,30.07-33.93c19.29-17.79,35.28-22.48,38.31-27.17s-8.31-2.35-12.86-1.12"/><path class="cls-2" d="M387,253.28s13.2-3.35,15.68-3.35,14.41,12.79,15,14.45-2.21,5.79-2.21,5.79"/><path class="cls-2" d="M332.33,307.45s-2.76,4.69-2.76,7.45,3.59,9.93,3.59,9.93,6.62,4.72,10.37-2.48"/><path class="cls-7" d="M265.43,445.38s2.48,0-.83,14.07-7.86,25.24-12.41,27.31-3.72-2.07-3.72-2.07l-.41,5.79,5.79,1.65a68.31,68.31,0,0,0,13.65-29.38C271.22,444.55,265.43,445.38,265.43,445.38Z"/><path class="cls-7" d="M358.85,480.7s-1.88-7.19-10.32-12.51-11.88,2.69-33.14-4.51-36-11.88-41-15.63-7.19-2.5-7.19-2.5"/><path class="cls-7" d="M354.7,461.6s-16.07-2.47-22.26,4.95"/><path class="cls-7" d="M345.43,336.72s-9.08,21.61-11.13,38.95c-3.32,28.11-2,72.51-3,78.45s1.11,12.43,1.11,12.43"/><path class="cls-7" d="M252.23,492.45,251,500.89s9.69-4.07,14.69-29.39"/><path class="cls-7" d="M296,514s-3.13-2.81-19.39-.62S251,500.89,251,500.89"/><path class="cls-7" d="M276.61,513.33c8.44,1.25,15,4.76,40,14.76,12,4.8,43.75,8.33,60.32,9.55,20.1,1.49,28-28.71,29.06-48.84.33-6.49,7.6-79.55,9.89-101.39,1.73-16.43-1.24-47.6-9.89-57.49"/><path class="cls-7" d="M461.8,514.15c.94-1.56,5.36-23.58,6.93-54.53s-3-83.54-11.4-119.32c-8.66-36.82-33.7-65.72-40.26-72.6"/><path class="cls-2" d="M321.32,465.31c0-1.88-3.09-73,7.52-115.76,4.57-18.46,4.32-24.73,4.32-24.73"/><path class="cls-2" d="M360.1,304.22s13.44-14.07,31-23.76"/><path class="cls-2" d="M470,564.06s-.31-50.34-3.75-75"/><line class="cls-2" x1="318.23" y1="528.37" x2="319.14" y2="565.62"/><path class="cls-7" d="M423.33,391.12s-6.8,15.46-9.89,19.78"/><path class="cls-7" d="M360.27,534.55S371.39,508,402.92,508"/></svg>